%TF.GenerationSoftware,KiCad,Pcbnew,(5.1.7)-1*%
%TF.CreationDate,2020-11-07T21:13:55-05:00*%
%TF.ProjectId,ATmega32u4 Breakout,41546d65-6761-4333-9275-342042726561,rev?*%
%TF.SameCoordinates,Original*%
%TF.FileFunction,Legend,Top*%
%TF.FilePolarity,Positive*%
%FSLAX46Y46*%
G04 Gerber Fmt 4.6, Leading zero omitted, Abs format (unit mm)*
G04 Created by KiCad (PCBNEW (5.1.7)-1) date 2020-11-07 21:13:55*
%MOMM*%
%LPD*%
G01*
G04 APERTURE LIST*
%ADD10C,0.150000*%
%ADD11C,0.120000*%
G04 APERTURE END LIST*
D10*
X141819333Y-78558000D02*
X141819333Y-79034190D01*
X141533619Y-78462761D02*
X142533619Y-78796095D01*
X141533619Y-79129428D01*
X142533619Y-79319904D02*
X142533619Y-79891333D01*
X141533619Y-79605619D02*
X142533619Y-79605619D01*
X141533619Y-80224666D02*
X142200285Y-80224666D01*
X142105047Y-80224666D02*
X142152666Y-80272285D01*
X142200285Y-80367523D01*
X142200285Y-80510380D01*
X142152666Y-80605619D01*
X142057428Y-80653238D01*
X141533619Y-80653238D01*
X142057428Y-80653238D02*
X142152666Y-80700857D01*
X142200285Y-80796095D01*
X142200285Y-80938952D01*
X142152666Y-81034190D01*
X142057428Y-81081809D01*
X141533619Y-81081809D01*
X141581238Y-81938952D02*
X141533619Y-81843714D01*
X141533619Y-81653238D01*
X141581238Y-81558000D01*
X141676476Y-81510380D01*
X142057428Y-81510380D01*
X142152666Y-81558000D01*
X142200285Y-81653238D01*
X142200285Y-81843714D01*
X142152666Y-81938952D01*
X142057428Y-81986571D01*
X141962190Y-81986571D01*
X141866952Y-81510380D01*
X142200285Y-82843714D02*
X141390761Y-82843714D01*
X141295523Y-82796095D01*
X141247904Y-82748476D01*
X141200285Y-82653238D01*
X141200285Y-82510380D01*
X141247904Y-82415142D01*
X141581238Y-82843714D02*
X141533619Y-82748476D01*
X141533619Y-82558000D01*
X141581238Y-82462761D01*
X141628857Y-82415142D01*
X141724095Y-82367523D01*
X142009809Y-82367523D01*
X142105047Y-82415142D01*
X142152666Y-82462761D01*
X142200285Y-82558000D01*
X142200285Y-82748476D01*
X142152666Y-82843714D01*
X141533619Y-83748476D02*
X142057428Y-83748476D01*
X142152666Y-83700857D01*
X142200285Y-83605619D01*
X142200285Y-83415142D01*
X142152666Y-83319904D01*
X141581238Y-83748476D02*
X141533619Y-83653238D01*
X141533619Y-83415142D01*
X141581238Y-83319904D01*
X141676476Y-83272285D01*
X141771714Y-83272285D01*
X141866952Y-83319904D01*
X141914571Y-83415142D01*
X141914571Y-83653238D01*
X141962190Y-83748476D01*
X142533619Y-84129428D02*
X142533619Y-84748476D01*
X142152666Y-84415142D01*
X142152666Y-84558000D01*
X142105047Y-84653238D01*
X142057428Y-84700857D01*
X141962190Y-84748476D01*
X141724095Y-84748476D01*
X141628857Y-84700857D01*
X141581238Y-84653238D01*
X141533619Y-84558000D01*
X141533619Y-84272285D01*
X141581238Y-84177047D01*
X141628857Y-84129428D01*
X142438380Y-85129428D02*
X142486000Y-85177047D01*
X142533619Y-85272285D01*
X142533619Y-85510380D01*
X142486000Y-85605619D01*
X142438380Y-85653238D01*
X142343142Y-85700857D01*
X142247904Y-85700857D01*
X142105047Y-85653238D01*
X141533619Y-85081809D01*
X141533619Y-85700857D01*
X142200285Y-86558000D02*
X141533619Y-86558000D01*
X142200285Y-86129428D02*
X141676476Y-86129428D01*
X141581238Y-86177047D01*
X141533619Y-86272285D01*
X141533619Y-86415142D01*
X141581238Y-86510380D01*
X141628857Y-86558000D01*
X142200285Y-87462761D02*
X141533619Y-87462761D01*
X142581238Y-87224666D02*
X141866952Y-86986571D01*
X141866952Y-87605619D01*
X148526571Y-124085000D02*
X148455142Y-124049285D01*
X148348000Y-124049285D01*
X148240857Y-124085000D01*
X148169428Y-124156428D01*
X148133714Y-124227857D01*
X148098000Y-124370714D01*
X148098000Y-124477857D01*
X148133714Y-124620714D01*
X148169428Y-124692142D01*
X148240857Y-124763571D01*
X148348000Y-124799285D01*
X148419428Y-124799285D01*
X148526571Y-124763571D01*
X148562285Y-124727857D01*
X148562285Y-124477857D01*
X148419428Y-124477857D01*
X148883714Y-124799285D02*
X148883714Y-124049285D01*
X149312285Y-124799285D01*
X149312285Y-124049285D01*
X149669428Y-124799285D02*
X149669428Y-124049285D01*
X149848000Y-124049285D01*
X149955142Y-124085000D01*
X150026571Y-124156428D01*
X150062285Y-124227857D01*
X150098000Y-124370714D01*
X150098000Y-124477857D01*
X150062285Y-124620714D01*
X150026571Y-124692142D01*
X149955142Y-124763571D01*
X149848000Y-124799285D01*
X149669428Y-124799285D01*
X147594000Y-122045000D02*
X147951142Y-122045000D01*
X147522571Y-122259285D02*
X147772571Y-121509285D01*
X148022571Y-122259285D01*
X148165428Y-121509285D02*
X148415428Y-122259285D01*
X148665428Y-121509285D01*
X149344000Y-122187857D02*
X149308285Y-122223571D01*
X149201142Y-122259285D01*
X149129714Y-122259285D01*
X149022571Y-122223571D01*
X148951142Y-122152142D01*
X148915428Y-122080714D01*
X148879714Y-121937857D01*
X148879714Y-121830714D01*
X148915428Y-121687857D01*
X148951142Y-121616428D01*
X149022571Y-121545000D01*
X149129714Y-121509285D01*
X149201142Y-121509285D01*
X149308285Y-121545000D01*
X149344000Y-121580714D01*
X150094000Y-122187857D02*
X150058285Y-122223571D01*
X149951142Y-122259285D01*
X149879714Y-122259285D01*
X149772571Y-122223571D01*
X149701142Y-122152142D01*
X149665428Y-122080714D01*
X149629714Y-121937857D01*
X149629714Y-121830714D01*
X149665428Y-121687857D01*
X149701142Y-121616428D01*
X149772571Y-121545000D01*
X149879714Y-121509285D01*
X149951142Y-121509285D01*
X150058285Y-121545000D01*
X150094000Y-121580714D01*
X148169428Y-119719285D02*
X148169428Y-118969285D01*
X148455142Y-118969285D01*
X148526571Y-119005000D01*
X148562285Y-119040714D01*
X148598000Y-119112142D01*
X148598000Y-119219285D01*
X148562285Y-119290714D01*
X148526571Y-119326428D01*
X148455142Y-119362142D01*
X148169428Y-119362142D01*
X148919428Y-119719285D02*
X148919428Y-118969285D01*
X149098000Y-118969285D01*
X149205142Y-119005000D01*
X149276571Y-119076428D01*
X149312285Y-119147857D01*
X149348000Y-119290714D01*
X149348000Y-119397857D01*
X149312285Y-119540714D01*
X149276571Y-119612142D01*
X149205142Y-119683571D01*
X149098000Y-119719285D01*
X148919428Y-119719285D01*
X149990857Y-119219285D02*
X149990857Y-119719285D01*
X149812285Y-118933571D02*
X149633714Y-119469285D01*
X150098000Y-119469285D01*
X146046285Y-117179285D02*
X146046285Y-116429285D01*
X146332000Y-116429285D01*
X146403428Y-116465000D01*
X146439142Y-116500714D01*
X146474857Y-116572142D01*
X146474857Y-116679285D01*
X146439142Y-116750714D01*
X146403428Y-116786428D01*
X146332000Y-116822142D01*
X146046285Y-116822142D01*
X146796285Y-117179285D02*
X146796285Y-116429285D01*
X146974857Y-116429285D01*
X147082000Y-116465000D01*
X147153428Y-116536428D01*
X147189142Y-116607857D01*
X147224857Y-116750714D01*
X147224857Y-116857857D01*
X147189142Y-117000714D01*
X147153428Y-117072142D01*
X147082000Y-117143571D01*
X146974857Y-117179285D01*
X146796285Y-117179285D01*
X147867714Y-116429285D02*
X147724857Y-116429285D01*
X147653428Y-116465000D01*
X147617714Y-116500714D01*
X147546285Y-116607857D01*
X147510571Y-116750714D01*
X147510571Y-117036428D01*
X147546285Y-117107857D01*
X147582000Y-117143571D01*
X147653428Y-117179285D01*
X147796285Y-117179285D01*
X147867714Y-117143571D01*
X147903428Y-117107857D01*
X147939142Y-117036428D01*
X147939142Y-116857857D01*
X147903428Y-116786428D01*
X147867714Y-116750714D01*
X147796285Y-116715000D01*
X147653428Y-116715000D01*
X147582000Y-116750714D01*
X147546285Y-116786428D01*
X147510571Y-116857857D01*
X148260571Y-116893571D02*
X148832000Y-116893571D01*
X149082000Y-116429285D02*
X149510571Y-116429285D01*
X149296285Y-117179285D02*
X149296285Y-116429285D01*
X150153428Y-117179285D02*
X149724857Y-117179285D01*
X149939142Y-117179285D02*
X149939142Y-116429285D01*
X149867714Y-116536428D01*
X149796285Y-116607857D01*
X149724857Y-116643571D01*
X146046285Y-114639285D02*
X146046285Y-113889285D01*
X146332000Y-113889285D01*
X146403428Y-113925000D01*
X146439142Y-113960714D01*
X146474857Y-114032142D01*
X146474857Y-114139285D01*
X146439142Y-114210714D01*
X146403428Y-114246428D01*
X146332000Y-114282142D01*
X146046285Y-114282142D01*
X146796285Y-114639285D02*
X146796285Y-113889285D01*
X146974857Y-113889285D01*
X147082000Y-113925000D01*
X147153428Y-113996428D01*
X147189142Y-114067857D01*
X147224857Y-114210714D01*
X147224857Y-114317857D01*
X147189142Y-114460714D01*
X147153428Y-114532142D01*
X147082000Y-114603571D01*
X146974857Y-114639285D01*
X146796285Y-114639285D01*
X147474857Y-113889285D02*
X147974857Y-113889285D01*
X147653428Y-114639285D01*
X148260571Y-114353571D02*
X148832000Y-114353571D01*
X149082000Y-113889285D02*
X149510571Y-113889285D01*
X149296285Y-114639285D02*
X149296285Y-113889285D01*
X149903428Y-113889285D02*
X149974857Y-113889285D01*
X150046285Y-113925000D01*
X150082000Y-113960714D01*
X150117714Y-114032142D01*
X150153428Y-114175000D01*
X150153428Y-114353571D01*
X150117714Y-114496428D01*
X150082000Y-114567857D01*
X150046285Y-114603571D01*
X149974857Y-114639285D01*
X149903428Y-114639285D01*
X149832000Y-114603571D01*
X149796285Y-114567857D01*
X149760571Y-114496428D01*
X149724857Y-114353571D01*
X149724857Y-114175000D01*
X149760571Y-114032142D01*
X149796285Y-113960714D01*
X149832000Y-113925000D01*
X149903428Y-113889285D01*
X145399428Y-112099285D02*
X145399428Y-111349285D01*
X145685142Y-111349285D01*
X145756571Y-111385000D01*
X145792285Y-111420714D01*
X145828000Y-111492142D01*
X145828000Y-111599285D01*
X145792285Y-111670714D01*
X145756571Y-111706428D01*
X145685142Y-111742142D01*
X145399428Y-111742142D01*
X146399428Y-111706428D02*
X146506571Y-111742142D01*
X146542285Y-111777857D01*
X146578000Y-111849285D01*
X146578000Y-111956428D01*
X146542285Y-112027857D01*
X146506571Y-112063571D01*
X146435142Y-112099285D01*
X146149428Y-112099285D01*
X146149428Y-111349285D01*
X146399428Y-111349285D01*
X146470857Y-111385000D01*
X146506571Y-111420714D01*
X146542285Y-111492142D01*
X146542285Y-111563571D01*
X146506571Y-111635000D01*
X146470857Y-111670714D01*
X146399428Y-111706428D01*
X146149428Y-111706428D01*
X147220857Y-111599285D02*
X147220857Y-112099285D01*
X147042285Y-111313571D02*
X146863714Y-111849285D01*
X147328000Y-111849285D01*
X147613714Y-111813571D02*
X148185142Y-111813571D01*
X148506571Y-111885000D02*
X148863714Y-111885000D01*
X148435142Y-112099285D02*
X148685142Y-111349285D01*
X148935142Y-112099285D01*
X149578000Y-112099285D02*
X149149428Y-112099285D01*
X149363714Y-112099285D02*
X149363714Y-111349285D01*
X149292285Y-111456428D01*
X149220857Y-111527857D01*
X149149428Y-111563571D01*
X150292285Y-112099285D02*
X149863714Y-112099285D01*
X150078000Y-112099285D02*
X150078000Y-111349285D01*
X150006571Y-111456428D01*
X149935142Y-111527857D01*
X149863714Y-111563571D01*
X145399428Y-109559285D02*
X145399428Y-108809285D01*
X145685142Y-108809285D01*
X145756571Y-108845000D01*
X145792285Y-108880714D01*
X145828000Y-108952142D01*
X145828000Y-109059285D01*
X145792285Y-109130714D01*
X145756571Y-109166428D01*
X145685142Y-109202142D01*
X145399428Y-109202142D01*
X146399428Y-109166428D02*
X146506571Y-109202142D01*
X146542285Y-109237857D01*
X146578000Y-109309285D01*
X146578000Y-109416428D01*
X146542285Y-109487857D01*
X146506571Y-109523571D01*
X146435142Y-109559285D01*
X146149428Y-109559285D01*
X146149428Y-108809285D01*
X146399428Y-108809285D01*
X146470857Y-108845000D01*
X146506571Y-108880714D01*
X146542285Y-108952142D01*
X146542285Y-109023571D01*
X146506571Y-109095000D01*
X146470857Y-109130714D01*
X146399428Y-109166428D01*
X146149428Y-109166428D01*
X147256571Y-108809285D02*
X146899428Y-108809285D01*
X146863714Y-109166428D01*
X146899428Y-109130714D01*
X146970857Y-109095000D01*
X147149428Y-109095000D01*
X147220857Y-109130714D01*
X147256571Y-109166428D01*
X147292285Y-109237857D01*
X147292285Y-109416428D01*
X147256571Y-109487857D01*
X147220857Y-109523571D01*
X147149428Y-109559285D01*
X146970857Y-109559285D01*
X146899428Y-109523571D01*
X146863714Y-109487857D01*
X147613714Y-109273571D02*
X148185142Y-109273571D01*
X148506571Y-109345000D02*
X148863714Y-109345000D01*
X148435142Y-109559285D02*
X148685142Y-108809285D01*
X148935142Y-109559285D01*
X149578000Y-109559285D02*
X149149428Y-109559285D01*
X149363714Y-109559285D02*
X149363714Y-108809285D01*
X149292285Y-108916428D01*
X149220857Y-108987857D01*
X149149428Y-109023571D01*
X149863714Y-108880714D02*
X149899428Y-108845000D01*
X149970857Y-108809285D01*
X150149428Y-108809285D01*
X150220857Y-108845000D01*
X150256571Y-108880714D01*
X150292285Y-108952142D01*
X150292285Y-109023571D01*
X150256571Y-109130714D01*
X149828000Y-109559285D01*
X150292285Y-109559285D01*
X145399428Y-107019285D02*
X145399428Y-106269285D01*
X145685142Y-106269285D01*
X145756571Y-106305000D01*
X145792285Y-106340714D01*
X145828000Y-106412142D01*
X145828000Y-106519285D01*
X145792285Y-106590714D01*
X145756571Y-106626428D01*
X145685142Y-106662142D01*
X145399428Y-106662142D01*
X146399428Y-106626428D02*
X146506571Y-106662142D01*
X146542285Y-106697857D01*
X146578000Y-106769285D01*
X146578000Y-106876428D01*
X146542285Y-106947857D01*
X146506571Y-106983571D01*
X146435142Y-107019285D01*
X146149428Y-107019285D01*
X146149428Y-106269285D01*
X146399428Y-106269285D01*
X146470857Y-106305000D01*
X146506571Y-106340714D01*
X146542285Y-106412142D01*
X146542285Y-106483571D01*
X146506571Y-106555000D01*
X146470857Y-106590714D01*
X146399428Y-106626428D01*
X146149428Y-106626428D01*
X147220857Y-106269285D02*
X147078000Y-106269285D01*
X147006571Y-106305000D01*
X146970857Y-106340714D01*
X146899428Y-106447857D01*
X146863714Y-106590714D01*
X146863714Y-106876428D01*
X146899428Y-106947857D01*
X146935142Y-106983571D01*
X147006571Y-107019285D01*
X147149428Y-107019285D01*
X147220857Y-106983571D01*
X147256571Y-106947857D01*
X147292285Y-106876428D01*
X147292285Y-106697857D01*
X147256571Y-106626428D01*
X147220857Y-106590714D01*
X147149428Y-106555000D01*
X147006571Y-106555000D01*
X146935142Y-106590714D01*
X146899428Y-106626428D01*
X146863714Y-106697857D01*
X147613714Y-106733571D02*
X148185142Y-106733571D01*
X148506571Y-106805000D02*
X148863714Y-106805000D01*
X148435142Y-107019285D02*
X148685142Y-106269285D01*
X148935142Y-107019285D01*
X149578000Y-107019285D02*
X149149428Y-107019285D01*
X149363714Y-107019285D02*
X149363714Y-106269285D01*
X149292285Y-106376428D01*
X149220857Y-106447857D01*
X149149428Y-106483571D01*
X150042285Y-106269285D02*
X150113714Y-106269285D01*
X150185142Y-106305000D01*
X150220857Y-106340714D01*
X150256571Y-106412142D01*
X150292285Y-106555000D01*
X150292285Y-106733571D01*
X150256571Y-106876428D01*
X150220857Y-106947857D01*
X150185142Y-106983571D01*
X150113714Y-107019285D01*
X150042285Y-107019285D01*
X149970857Y-106983571D01*
X149935142Y-106947857D01*
X149899428Y-106876428D01*
X149863714Y-106733571D01*
X149863714Y-106555000D01*
X149899428Y-106412142D01*
X149935142Y-106340714D01*
X149970857Y-106305000D01*
X150042285Y-106269285D01*
X148423428Y-104479285D02*
X148423428Y-103729285D01*
X148709142Y-103729285D01*
X148780571Y-103765000D01*
X148816285Y-103800714D01*
X148852000Y-103872142D01*
X148852000Y-103979285D01*
X148816285Y-104050714D01*
X148780571Y-104086428D01*
X148709142Y-104122142D01*
X148423428Y-104122142D01*
X149602000Y-104407857D02*
X149566285Y-104443571D01*
X149459142Y-104479285D01*
X149387714Y-104479285D01*
X149280571Y-104443571D01*
X149209142Y-104372142D01*
X149173428Y-104300714D01*
X149137714Y-104157857D01*
X149137714Y-104050714D01*
X149173428Y-103907857D01*
X149209142Y-103836428D01*
X149280571Y-103765000D01*
X149387714Y-103729285D01*
X149459142Y-103729285D01*
X149566285Y-103765000D01*
X149602000Y-103800714D01*
X150244857Y-103729285D02*
X150102000Y-103729285D01*
X150030571Y-103765000D01*
X149994857Y-103800714D01*
X149923428Y-103907857D01*
X149887714Y-104050714D01*
X149887714Y-104336428D01*
X149923428Y-104407857D01*
X149959142Y-104443571D01*
X150030571Y-104479285D01*
X150173428Y-104479285D01*
X150244857Y-104443571D01*
X150280571Y-104407857D01*
X150316285Y-104336428D01*
X150316285Y-104157857D01*
X150280571Y-104086428D01*
X150244857Y-104050714D01*
X150173428Y-104015000D01*
X150030571Y-104015000D01*
X149959142Y-104050714D01*
X149923428Y-104086428D01*
X149887714Y-104157857D01*
X148423428Y-101939285D02*
X148423428Y-101189285D01*
X148709142Y-101189285D01*
X148780571Y-101225000D01*
X148816285Y-101260714D01*
X148852000Y-101332142D01*
X148852000Y-101439285D01*
X148816285Y-101510714D01*
X148780571Y-101546428D01*
X148709142Y-101582142D01*
X148423428Y-101582142D01*
X149602000Y-101867857D02*
X149566285Y-101903571D01*
X149459142Y-101939285D01*
X149387714Y-101939285D01*
X149280571Y-101903571D01*
X149209142Y-101832142D01*
X149173428Y-101760714D01*
X149137714Y-101617857D01*
X149137714Y-101510714D01*
X149173428Y-101367857D01*
X149209142Y-101296428D01*
X149280571Y-101225000D01*
X149387714Y-101189285D01*
X149459142Y-101189285D01*
X149566285Y-101225000D01*
X149602000Y-101260714D01*
X149852000Y-101189285D02*
X150352000Y-101189285D01*
X150030571Y-101939285D01*
X150430666Y-99893333D02*
X149730666Y-99893333D01*
X149730666Y-99626666D01*
X149764000Y-99560000D01*
X149797333Y-99526666D01*
X149864000Y-99493333D01*
X149964000Y-99493333D01*
X150030666Y-99526666D01*
X150064000Y-99560000D01*
X150097333Y-99626666D01*
X150097333Y-99893333D01*
X150064000Y-99193333D02*
X150064000Y-98960000D01*
X150430666Y-98860000D02*
X150430666Y-99193333D01*
X149730666Y-99193333D01*
X149730666Y-98860000D01*
X149797333Y-98593333D02*
X149764000Y-98560000D01*
X149730666Y-98493333D01*
X149730666Y-98326666D01*
X149764000Y-98260000D01*
X149797333Y-98226666D01*
X149864000Y-98193333D01*
X149930666Y-98193333D01*
X150030666Y-98226666D01*
X150430666Y-98626666D01*
X150430666Y-98193333D01*
X149730666Y-97453333D02*
X150430666Y-97220000D01*
X149730666Y-96986666D01*
X150364000Y-96353333D02*
X150397333Y-96386666D01*
X150430666Y-96486666D01*
X150430666Y-96553333D01*
X150397333Y-96653333D01*
X150330666Y-96720000D01*
X150264000Y-96753333D01*
X150130666Y-96786666D01*
X150030666Y-96786666D01*
X149897333Y-96753333D01*
X149830666Y-96720000D01*
X149764000Y-96653333D01*
X149730666Y-96553333D01*
X149730666Y-96486666D01*
X149764000Y-96386666D01*
X149797333Y-96353333D01*
X150364000Y-95653333D02*
X150397333Y-95686666D01*
X150430666Y-95786666D01*
X150430666Y-95853333D01*
X150397333Y-95953333D01*
X150330666Y-96020000D01*
X150264000Y-96053333D01*
X150130666Y-96086666D01*
X150030666Y-96086666D01*
X149897333Y-96053333D01*
X149830666Y-96020000D01*
X149764000Y-95953333D01*
X149730666Y-95853333D01*
X149730666Y-95786666D01*
X149764000Y-95686666D01*
X149797333Y-95653333D01*
X148780571Y-93605000D02*
X148709142Y-93569285D01*
X148602000Y-93569285D01*
X148494857Y-93605000D01*
X148423428Y-93676428D01*
X148387714Y-93747857D01*
X148352000Y-93890714D01*
X148352000Y-93997857D01*
X148387714Y-94140714D01*
X148423428Y-94212142D01*
X148494857Y-94283571D01*
X148602000Y-94319285D01*
X148673428Y-94319285D01*
X148780571Y-94283571D01*
X148816285Y-94247857D01*
X148816285Y-93997857D01*
X148673428Y-93997857D01*
X149137714Y-94319285D02*
X149137714Y-93569285D01*
X149566285Y-94319285D01*
X149566285Y-93569285D01*
X149923428Y-94319285D02*
X149923428Y-93569285D01*
X150102000Y-93569285D01*
X150209142Y-93605000D01*
X150280571Y-93676428D01*
X150316285Y-93747857D01*
X150352000Y-93890714D01*
X150352000Y-93997857D01*
X150316285Y-94140714D01*
X150280571Y-94212142D01*
X150209142Y-94283571D01*
X150102000Y-94319285D01*
X149923428Y-94319285D01*
X146064142Y-91779285D02*
X146064142Y-91029285D01*
X146349857Y-91029285D01*
X146421285Y-91065000D01*
X146457000Y-91100714D01*
X146492714Y-91172142D01*
X146492714Y-91279285D01*
X146457000Y-91350714D01*
X146421285Y-91386428D01*
X146349857Y-91422142D01*
X146064142Y-91422142D01*
X147064142Y-91386428D02*
X146814142Y-91386428D01*
X146814142Y-91779285D02*
X146814142Y-91029285D01*
X147171285Y-91029285D01*
X147385571Y-91029285D02*
X147885571Y-91029285D01*
X147564142Y-91779285D01*
X148171285Y-91493571D02*
X148742714Y-91493571D01*
X149064142Y-91565000D02*
X149421285Y-91565000D01*
X148992714Y-91779285D02*
X149242714Y-91029285D01*
X149492714Y-91779285D01*
X149671285Y-91029285D02*
X150171285Y-91029285D01*
X149849857Y-91779285D01*
X146064142Y-89239285D02*
X146064142Y-88489285D01*
X146349857Y-88489285D01*
X146421285Y-88525000D01*
X146457000Y-88560714D01*
X146492714Y-88632142D01*
X146492714Y-88739285D01*
X146457000Y-88810714D01*
X146421285Y-88846428D01*
X146349857Y-88882142D01*
X146064142Y-88882142D01*
X147064142Y-88846428D02*
X146814142Y-88846428D01*
X146814142Y-89239285D02*
X146814142Y-88489285D01*
X147171285Y-88489285D01*
X147778428Y-88489285D02*
X147635571Y-88489285D01*
X147564142Y-88525000D01*
X147528428Y-88560714D01*
X147457000Y-88667857D01*
X147421285Y-88810714D01*
X147421285Y-89096428D01*
X147457000Y-89167857D01*
X147492714Y-89203571D01*
X147564142Y-89239285D01*
X147707000Y-89239285D01*
X147778428Y-89203571D01*
X147814142Y-89167857D01*
X147849857Y-89096428D01*
X147849857Y-88917857D01*
X147814142Y-88846428D01*
X147778428Y-88810714D01*
X147707000Y-88775000D01*
X147564142Y-88775000D01*
X147492714Y-88810714D01*
X147457000Y-88846428D01*
X147421285Y-88917857D01*
X148171285Y-88953571D02*
X148742714Y-88953571D01*
X149064142Y-89025000D02*
X149421285Y-89025000D01*
X148992714Y-89239285D02*
X149242714Y-88489285D01*
X149492714Y-89239285D01*
X150064142Y-88489285D02*
X149921285Y-88489285D01*
X149849857Y-88525000D01*
X149814142Y-88560714D01*
X149742714Y-88667857D01*
X149707000Y-88810714D01*
X149707000Y-89096428D01*
X149742714Y-89167857D01*
X149778428Y-89203571D01*
X149849857Y-89239285D01*
X149992714Y-89239285D01*
X150064142Y-89203571D01*
X150099857Y-89167857D01*
X150135571Y-89096428D01*
X150135571Y-88917857D01*
X150099857Y-88846428D01*
X150064142Y-88810714D01*
X149992714Y-88775000D01*
X149849857Y-88775000D01*
X149778428Y-88810714D01*
X149742714Y-88846428D01*
X149707000Y-88917857D01*
X146064142Y-86445285D02*
X146064142Y-85695285D01*
X146349857Y-85695285D01*
X146421285Y-85731000D01*
X146457000Y-85766714D01*
X146492714Y-85838142D01*
X146492714Y-85945285D01*
X146457000Y-86016714D01*
X146421285Y-86052428D01*
X146349857Y-86088142D01*
X146064142Y-86088142D01*
X147064142Y-86052428D02*
X146814142Y-86052428D01*
X146814142Y-86445285D02*
X146814142Y-85695285D01*
X147171285Y-85695285D01*
X147814142Y-85695285D02*
X147457000Y-85695285D01*
X147421285Y-86052428D01*
X147457000Y-86016714D01*
X147528428Y-85981000D01*
X147707000Y-85981000D01*
X147778428Y-86016714D01*
X147814142Y-86052428D01*
X147849857Y-86123857D01*
X147849857Y-86302428D01*
X147814142Y-86373857D01*
X147778428Y-86409571D01*
X147707000Y-86445285D01*
X147528428Y-86445285D01*
X147457000Y-86409571D01*
X147421285Y-86373857D01*
X148171285Y-86159571D02*
X148742714Y-86159571D01*
X149064142Y-86231000D02*
X149421285Y-86231000D01*
X148992714Y-86445285D02*
X149242714Y-85695285D01*
X149492714Y-86445285D01*
X150099857Y-85695285D02*
X149742714Y-85695285D01*
X149707000Y-86052428D01*
X149742714Y-86016714D01*
X149814142Y-85981000D01*
X149992714Y-85981000D01*
X150064142Y-86016714D01*
X150099857Y-86052428D01*
X150135571Y-86123857D01*
X150135571Y-86302428D01*
X150099857Y-86373857D01*
X150064142Y-86409571D01*
X149992714Y-86445285D01*
X149814142Y-86445285D01*
X149742714Y-86409571D01*
X149707000Y-86373857D01*
X146064142Y-84159285D02*
X146064142Y-83409285D01*
X146349857Y-83409285D01*
X146421285Y-83445000D01*
X146457000Y-83480714D01*
X146492714Y-83552142D01*
X146492714Y-83659285D01*
X146457000Y-83730714D01*
X146421285Y-83766428D01*
X146349857Y-83802142D01*
X146064142Y-83802142D01*
X147064142Y-83766428D02*
X146814142Y-83766428D01*
X146814142Y-84159285D02*
X146814142Y-83409285D01*
X147171285Y-83409285D01*
X147778428Y-83659285D02*
X147778428Y-84159285D01*
X147599857Y-83373571D02*
X147421285Y-83909285D01*
X147885571Y-83909285D01*
X148171285Y-83873571D02*
X148742714Y-83873571D01*
X149064142Y-83945000D02*
X149421285Y-83945000D01*
X148992714Y-84159285D02*
X149242714Y-83409285D01*
X149492714Y-84159285D01*
X150064142Y-83659285D02*
X150064142Y-84159285D01*
X149885571Y-83373571D02*
X149707000Y-83909285D01*
X150171285Y-83909285D01*
X146064142Y-81619285D02*
X146064142Y-80869285D01*
X146349857Y-80869285D01*
X146421285Y-80905000D01*
X146457000Y-80940714D01*
X146492714Y-81012142D01*
X146492714Y-81119285D01*
X146457000Y-81190714D01*
X146421285Y-81226428D01*
X146349857Y-81262142D01*
X146064142Y-81262142D01*
X147064142Y-81226428D02*
X146814142Y-81226428D01*
X146814142Y-81619285D02*
X146814142Y-80869285D01*
X147171285Y-80869285D01*
X147849857Y-81619285D02*
X147421285Y-81619285D01*
X147635571Y-81619285D02*
X147635571Y-80869285D01*
X147564142Y-80976428D01*
X147492714Y-81047857D01*
X147421285Y-81083571D01*
X148171285Y-81333571D02*
X148742714Y-81333571D01*
X149064142Y-81405000D02*
X149421285Y-81405000D01*
X148992714Y-81619285D02*
X149242714Y-80869285D01*
X149492714Y-81619285D01*
X150135571Y-81619285D02*
X149707000Y-81619285D01*
X149921285Y-81619285D02*
X149921285Y-80869285D01*
X149849857Y-80976428D01*
X149778428Y-81047857D01*
X149707000Y-81083571D01*
X146064142Y-79079285D02*
X146064142Y-78329285D01*
X146349857Y-78329285D01*
X146421285Y-78365000D01*
X146457000Y-78400714D01*
X146492714Y-78472142D01*
X146492714Y-78579285D01*
X146457000Y-78650714D01*
X146421285Y-78686428D01*
X146349857Y-78722142D01*
X146064142Y-78722142D01*
X147064142Y-78686428D02*
X146814142Y-78686428D01*
X146814142Y-79079285D02*
X146814142Y-78329285D01*
X147171285Y-78329285D01*
X147599857Y-78329285D02*
X147671285Y-78329285D01*
X147742714Y-78365000D01*
X147778428Y-78400714D01*
X147814142Y-78472142D01*
X147849857Y-78615000D01*
X147849857Y-78793571D01*
X147814142Y-78936428D01*
X147778428Y-79007857D01*
X147742714Y-79043571D01*
X147671285Y-79079285D01*
X147599857Y-79079285D01*
X147528428Y-79043571D01*
X147492714Y-79007857D01*
X147457000Y-78936428D01*
X147421285Y-78793571D01*
X147421285Y-78615000D01*
X147457000Y-78472142D01*
X147492714Y-78400714D01*
X147528428Y-78365000D01*
X147599857Y-78329285D01*
X148171285Y-78793571D02*
X148742714Y-78793571D01*
X149064142Y-78865000D02*
X149421285Y-78865000D01*
X148992714Y-79079285D02*
X149242714Y-78329285D01*
X149492714Y-79079285D01*
X149885571Y-78329285D02*
X149957000Y-78329285D01*
X150028428Y-78365000D01*
X150064142Y-78400714D01*
X150099857Y-78472142D01*
X150135571Y-78615000D01*
X150135571Y-78793571D01*
X150099857Y-78936428D01*
X150064142Y-79007857D01*
X150028428Y-79043571D01*
X149957000Y-79079285D01*
X149885571Y-79079285D01*
X149814142Y-79043571D01*
X149778428Y-79007857D01*
X149742714Y-78936428D01*
X149707000Y-78793571D01*
X149707000Y-78615000D01*
X149742714Y-78472142D01*
X149778428Y-78400714D01*
X149814142Y-78365000D01*
X149885571Y-78329285D01*
X147883714Y-76325000D02*
X148240857Y-76325000D01*
X147812285Y-76539285D02*
X148062285Y-75789285D01*
X148312285Y-76539285D01*
X148990857Y-76539285D02*
X148740857Y-76182142D01*
X148562285Y-76539285D02*
X148562285Y-75789285D01*
X148848000Y-75789285D01*
X148919428Y-75825000D01*
X148955142Y-75860714D01*
X148990857Y-75932142D01*
X148990857Y-76039285D01*
X148955142Y-76110714D01*
X148919428Y-76146428D01*
X148848000Y-76182142D01*
X148562285Y-76182142D01*
X149312285Y-76146428D02*
X149562285Y-76146428D01*
X149669428Y-76539285D02*
X149312285Y-76539285D01*
X149312285Y-75789285D01*
X149669428Y-75789285D01*
X150240857Y-76146428D02*
X149990857Y-76146428D01*
X149990857Y-76539285D02*
X149990857Y-75789285D01*
X150348000Y-75789285D01*
X148780571Y-73285000D02*
X148709142Y-73249285D01*
X148602000Y-73249285D01*
X148494857Y-73285000D01*
X148423428Y-73356428D01*
X148387714Y-73427857D01*
X148352000Y-73570714D01*
X148352000Y-73677857D01*
X148387714Y-73820714D01*
X148423428Y-73892142D01*
X148494857Y-73963571D01*
X148602000Y-73999285D01*
X148673428Y-73999285D01*
X148780571Y-73963571D01*
X148816285Y-73927857D01*
X148816285Y-73677857D01*
X148673428Y-73677857D01*
X149137714Y-73999285D02*
X149137714Y-73249285D01*
X149566285Y-73999285D01*
X149566285Y-73249285D01*
X149923428Y-73999285D02*
X149923428Y-73249285D01*
X150102000Y-73249285D01*
X150209142Y-73285000D01*
X150280571Y-73356428D01*
X150316285Y-73427857D01*
X150352000Y-73570714D01*
X150352000Y-73677857D01*
X150316285Y-73820714D01*
X150280571Y-73892142D01*
X150209142Y-73963571D01*
X150102000Y-73999285D01*
X149923428Y-73999285D01*
X147848000Y-71245000D02*
X148205142Y-71245000D01*
X147776571Y-71459285D02*
X148026571Y-70709285D01*
X148276571Y-71459285D01*
X148419428Y-70709285D02*
X148669428Y-71459285D01*
X148919428Y-70709285D01*
X149598000Y-71387857D02*
X149562285Y-71423571D01*
X149455142Y-71459285D01*
X149383714Y-71459285D01*
X149276571Y-71423571D01*
X149205142Y-71352142D01*
X149169428Y-71280714D01*
X149133714Y-71137857D01*
X149133714Y-71030714D01*
X149169428Y-70887857D01*
X149205142Y-70816428D01*
X149276571Y-70745000D01*
X149383714Y-70709285D01*
X149455142Y-70709285D01*
X149562285Y-70745000D01*
X149598000Y-70780714D01*
X150348000Y-71387857D02*
X150312285Y-71423571D01*
X150205142Y-71459285D01*
X150133714Y-71459285D01*
X150026571Y-71423571D01*
X149955142Y-71352142D01*
X149919428Y-71280714D01*
X149883714Y-71137857D01*
X149883714Y-71030714D01*
X149919428Y-70887857D01*
X149955142Y-70816428D01*
X150026571Y-70745000D01*
X150133714Y-70709285D01*
X150205142Y-70709285D01*
X150312285Y-70745000D01*
X150348000Y-70780714D01*
X133691428Y-124799285D02*
X133691428Y-124049285D01*
X133977142Y-124049285D01*
X134048571Y-124085000D01*
X134084285Y-124120714D01*
X134120000Y-124192142D01*
X134120000Y-124299285D01*
X134084285Y-124370714D01*
X134048571Y-124406428D01*
X133977142Y-124442142D01*
X133691428Y-124442142D01*
X134441428Y-124799285D02*
X134441428Y-124049285D01*
X134620000Y-124049285D01*
X134727142Y-124085000D01*
X134798571Y-124156428D01*
X134834285Y-124227857D01*
X134870000Y-124370714D01*
X134870000Y-124477857D01*
X134834285Y-124620714D01*
X134798571Y-124692142D01*
X134727142Y-124763571D01*
X134620000Y-124799285D01*
X134441428Y-124799285D01*
X135548571Y-124049285D02*
X135191428Y-124049285D01*
X135155714Y-124406428D01*
X135191428Y-124370714D01*
X135262857Y-124335000D01*
X135441428Y-124335000D01*
X135512857Y-124370714D01*
X135548571Y-124406428D01*
X135584285Y-124477857D01*
X135584285Y-124656428D01*
X135548571Y-124727857D01*
X135512857Y-124763571D01*
X135441428Y-124799285D01*
X135262857Y-124799285D01*
X135191428Y-124763571D01*
X135155714Y-124727857D01*
X133733285Y-122259285D02*
X133733285Y-121509285D01*
X134019000Y-121509285D01*
X134090428Y-121545000D01*
X134126142Y-121580714D01*
X134161857Y-121652142D01*
X134161857Y-121759285D01*
X134126142Y-121830714D01*
X134090428Y-121866428D01*
X134019000Y-121902142D01*
X133733285Y-121902142D01*
X134483285Y-122259285D02*
X134483285Y-121509285D01*
X134661857Y-121509285D01*
X134769000Y-121545000D01*
X134840428Y-121616428D01*
X134876142Y-121687857D01*
X134911857Y-121830714D01*
X134911857Y-121937857D01*
X134876142Y-122080714D01*
X134840428Y-122152142D01*
X134769000Y-122223571D01*
X134661857Y-122259285D01*
X134483285Y-122259285D01*
X135161857Y-121509285D02*
X135626142Y-121509285D01*
X135376142Y-121795000D01*
X135483285Y-121795000D01*
X135554714Y-121830714D01*
X135590428Y-121866428D01*
X135626142Y-121937857D01*
X135626142Y-122116428D01*
X135590428Y-122187857D01*
X135554714Y-122223571D01*
X135483285Y-122259285D01*
X135269000Y-122259285D01*
X135197571Y-122223571D01*
X135161857Y-122187857D01*
X135947571Y-121973571D02*
X136519000Y-121973571D01*
X136769000Y-121509285D02*
X137197571Y-121509285D01*
X136983285Y-122259285D02*
X136983285Y-121509285D01*
X137376142Y-121509285D02*
X137876142Y-122259285D01*
X137876142Y-121509285D02*
X137376142Y-122259285D01*
X138161857Y-122259285D02*
X138161857Y-121509285D01*
X138340428Y-121509285D01*
X138447571Y-121545000D01*
X138519000Y-121616428D01*
X138554714Y-121687857D01*
X138590428Y-121830714D01*
X138590428Y-121937857D01*
X138554714Y-122080714D01*
X138519000Y-122152142D01*
X138447571Y-122223571D01*
X138340428Y-122259285D01*
X138161857Y-122259285D01*
X133644000Y-119719285D02*
X133644000Y-118969285D01*
X133929714Y-118969285D01*
X134001142Y-119005000D01*
X134036857Y-119040714D01*
X134072571Y-119112142D01*
X134072571Y-119219285D01*
X134036857Y-119290714D01*
X134001142Y-119326428D01*
X133929714Y-119362142D01*
X133644000Y-119362142D01*
X134394000Y-119719285D02*
X134394000Y-118969285D01*
X134572571Y-118969285D01*
X134679714Y-119005000D01*
X134751142Y-119076428D01*
X134786857Y-119147857D01*
X134822571Y-119290714D01*
X134822571Y-119397857D01*
X134786857Y-119540714D01*
X134751142Y-119612142D01*
X134679714Y-119683571D01*
X134572571Y-119719285D01*
X134394000Y-119719285D01*
X135108285Y-119040714D02*
X135144000Y-119005000D01*
X135215428Y-118969285D01*
X135394000Y-118969285D01*
X135465428Y-119005000D01*
X135501142Y-119040714D01*
X135536857Y-119112142D01*
X135536857Y-119183571D01*
X135501142Y-119290714D01*
X135072571Y-119719285D01*
X135536857Y-119719285D01*
X135858285Y-119433571D02*
X136429714Y-119433571D01*
X137215428Y-119719285D02*
X136965428Y-119362142D01*
X136786857Y-119719285D02*
X136786857Y-118969285D01*
X137072571Y-118969285D01*
X137144000Y-119005000D01*
X137179714Y-119040714D01*
X137215428Y-119112142D01*
X137215428Y-119219285D01*
X137179714Y-119290714D01*
X137144000Y-119326428D01*
X137072571Y-119362142D01*
X136786857Y-119362142D01*
X137465428Y-118969285D02*
X137965428Y-119719285D01*
X137965428Y-118969285D02*
X137465428Y-119719285D01*
X138251142Y-119719285D02*
X138251142Y-118969285D01*
X138429714Y-118969285D01*
X138536857Y-119005000D01*
X138608285Y-119076428D01*
X138644000Y-119147857D01*
X138679714Y-119290714D01*
X138679714Y-119397857D01*
X138644000Y-119540714D01*
X138608285Y-119612142D01*
X138536857Y-119683571D01*
X138429714Y-119719285D01*
X138251142Y-119719285D01*
X133697571Y-117179285D02*
X133697571Y-116429285D01*
X133983285Y-116429285D01*
X134054714Y-116465000D01*
X134090428Y-116500714D01*
X134126142Y-116572142D01*
X134126142Y-116679285D01*
X134090428Y-116750714D01*
X134054714Y-116786428D01*
X133983285Y-116822142D01*
X133697571Y-116822142D01*
X134447571Y-117179285D02*
X134447571Y-116429285D01*
X134626142Y-116429285D01*
X134733285Y-116465000D01*
X134804714Y-116536428D01*
X134840428Y-116607857D01*
X134876142Y-116750714D01*
X134876142Y-116857857D01*
X134840428Y-117000714D01*
X134804714Y-117072142D01*
X134733285Y-117143571D01*
X134626142Y-117179285D01*
X134447571Y-117179285D01*
X135590428Y-117179285D02*
X135161857Y-117179285D01*
X135376142Y-117179285D02*
X135376142Y-116429285D01*
X135304714Y-116536428D01*
X135233285Y-116607857D01*
X135161857Y-116643571D01*
X135911857Y-116893571D02*
X136483285Y-116893571D01*
X136804714Y-117143571D02*
X136911857Y-117179285D01*
X137090428Y-117179285D01*
X137161857Y-117143571D01*
X137197571Y-117107857D01*
X137233285Y-117036428D01*
X137233285Y-116965000D01*
X137197571Y-116893571D01*
X137161857Y-116857857D01*
X137090428Y-116822142D01*
X136947571Y-116786428D01*
X136876142Y-116750714D01*
X136840428Y-116715000D01*
X136804714Y-116643571D01*
X136804714Y-116572142D01*
X136840428Y-116500714D01*
X136876142Y-116465000D01*
X136947571Y-116429285D01*
X137126142Y-116429285D01*
X137233285Y-116465000D01*
X137554714Y-117179285D02*
X137554714Y-116429285D01*
X137733285Y-116429285D01*
X137840428Y-116465000D01*
X137911857Y-116536428D01*
X137947571Y-116607857D01*
X137983285Y-116750714D01*
X137983285Y-116857857D01*
X137947571Y-117000714D01*
X137911857Y-117072142D01*
X137840428Y-117143571D01*
X137733285Y-117179285D01*
X137554714Y-117179285D01*
X138269000Y-116965000D02*
X138626142Y-116965000D01*
X138197571Y-117179285D02*
X138447571Y-116429285D01*
X138697571Y-117179285D01*
X133715428Y-114639285D02*
X133715428Y-113889285D01*
X134001142Y-113889285D01*
X134072571Y-113925000D01*
X134108285Y-113960714D01*
X134144000Y-114032142D01*
X134144000Y-114139285D01*
X134108285Y-114210714D01*
X134072571Y-114246428D01*
X134001142Y-114282142D01*
X133715428Y-114282142D01*
X134465428Y-114639285D02*
X134465428Y-113889285D01*
X134644000Y-113889285D01*
X134751142Y-113925000D01*
X134822571Y-113996428D01*
X134858285Y-114067857D01*
X134894000Y-114210714D01*
X134894000Y-114317857D01*
X134858285Y-114460714D01*
X134822571Y-114532142D01*
X134751142Y-114603571D01*
X134644000Y-114639285D01*
X134465428Y-114639285D01*
X135358285Y-113889285D02*
X135429714Y-113889285D01*
X135501142Y-113925000D01*
X135536857Y-113960714D01*
X135572571Y-114032142D01*
X135608285Y-114175000D01*
X135608285Y-114353571D01*
X135572571Y-114496428D01*
X135536857Y-114567857D01*
X135501142Y-114603571D01*
X135429714Y-114639285D01*
X135358285Y-114639285D01*
X135286857Y-114603571D01*
X135251142Y-114567857D01*
X135215428Y-114496428D01*
X135179714Y-114353571D01*
X135179714Y-114175000D01*
X135215428Y-114032142D01*
X135251142Y-113960714D01*
X135286857Y-113925000D01*
X135358285Y-113889285D01*
X135929714Y-114353571D02*
X136501142Y-114353571D01*
X136822571Y-114603571D02*
X136929714Y-114639285D01*
X137108285Y-114639285D01*
X137179714Y-114603571D01*
X137215428Y-114567857D01*
X137251142Y-114496428D01*
X137251142Y-114425000D01*
X137215428Y-114353571D01*
X137179714Y-114317857D01*
X137108285Y-114282142D01*
X136965428Y-114246428D01*
X136894000Y-114210714D01*
X136858285Y-114175000D01*
X136822571Y-114103571D01*
X136822571Y-114032142D01*
X136858285Y-113960714D01*
X136894000Y-113925000D01*
X136965428Y-113889285D01*
X137144000Y-113889285D01*
X137251142Y-113925000D01*
X138001142Y-114567857D02*
X137965428Y-114603571D01*
X137858285Y-114639285D01*
X137786857Y-114639285D01*
X137679714Y-114603571D01*
X137608285Y-114532142D01*
X137572571Y-114460714D01*
X137536857Y-114317857D01*
X137536857Y-114210714D01*
X137572571Y-114067857D01*
X137608285Y-113996428D01*
X137679714Y-113925000D01*
X137786857Y-113889285D01*
X137858285Y-113889285D01*
X137965428Y-113925000D01*
X138001142Y-113960714D01*
X138679714Y-114639285D02*
X138322571Y-114639285D01*
X138322571Y-113889285D01*
X133610142Y-111349285D02*
X134110142Y-112099285D01*
X134110142Y-111349285D02*
X133610142Y-112099285D01*
X134288714Y-111349285D02*
X134717285Y-111349285D01*
X134503000Y-112099285D02*
X134503000Y-111349285D01*
X134931571Y-111885000D02*
X135288714Y-111885000D01*
X134860142Y-112099285D02*
X135110142Y-111349285D01*
X135360142Y-112099285D01*
X135967285Y-112099285D02*
X135610142Y-112099285D01*
X135610142Y-111349285D01*
X136610142Y-112099285D02*
X136181571Y-112099285D01*
X136395857Y-112099285D02*
X136395857Y-111349285D01*
X136324428Y-111456428D01*
X136253000Y-111527857D01*
X136181571Y-111563571D01*
X133610142Y-108809285D02*
X134110142Y-109559285D01*
X134110142Y-108809285D02*
X133610142Y-109559285D01*
X134288714Y-108809285D02*
X134717285Y-108809285D01*
X134503000Y-109559285D02*
X134503000Y-108809285D01*
X134931571Y-109345000D02*
X135288714Y-109345000D01*
X134860142Y-109559285D02*
X135110142Y-108809285D01*
X135360142Y-109559285D01*
X135967285Y-109559285D02*
X135610142Y-109559285D01*
X135610142Y-108809285D01*
X136181571Y-108880714D02*
X136217285Y-108845000D01*
X136288714Y-108809285D01*
X136467285Y-108809285D01*
X136538714Y-108845000D01*
X136574428Y-108880714D01*
X136610142Y-108952142D01*
X136610142Y-109023571D01*
X136574428Y-109130714D01*
X136145857Y-109559285D01*
X136610142Y-109559285D01*
X134048571Y-106305000D02*
X133977142Y-106269285D01*
X133870000Y-106269285D01*
X133762857Y-106305000D01*
X133691428Y-106376428D01*
X133655714Y-106447857D01*
X133620000Y-106590714D01*
X133620000Y-106697857D01*
X133655714Y-106840714D01*
X133691428Y-106912142D01*
X133762857Y-106983571D01*
X133870000Y-107019285D01*
X133941428Y-107019285D01*
X134048571Y-106983571D01*
X134084285Y-106947857D01*
X134084285Y-106697857D01*
X133941428Y-106697857D01*
X134405714Y-107019285D02*
X134405714Y-106269285D01*
X134834285Y-107019285D01*
X134834285Y-106269285D01*
X135191428Y-107019285D02*
X135191428Y-106269285D01*
X135370000Y-106269285D01*
X135477142Y-106305000D01*
X135548571Y-106376428D01*
X135584285Y-106447857D01*
X135620000Y-106590714D01*
X135620000Y-106697857D01*
X135584285Y-106840714D01*
X135548571Y-106912142D01*
X135477142Y-106983571D01*
X135370000Y-107019285D01*
X135191428Y-107019285D01*
X133620000Y-103729285D02*
X133870000Y-104479285D01*
X134120000Y-103729285D01*
X134798571Y-104407857D02*
X134762857Y-104443571D01*
X134655714Y-104479285D01*
X134584285Y-104479285D01*
X134477142Y-104443571D01*
X134405714Y-104372142D01*
X134370000Y-104300714D01*
X134334285Y-104157857D01*
X134334285Y-104050714D01*
X134370000Y-103907857D01*
X134405714Y-103836428D01*
X134477142Y-103765000D01*
X134584285Y-103729285D01*
X134655714Y-103729285D01*
X134762857Y-103765000D01*
X134798571Y-103800714D01*
X135548571Y-104407857D02*
X135512857Y-104443571D01*
X135405714Y-104479285D01*
X135334285Y-104479285D01*
X135227142Y-104443571D01*
X135155714Y-104372142D01*
X135120000Y-104300714D01*
X135084285Y-104157857D01*
X135084285Y-104050714D01*
X135120000Y-103907857D01*
X135155714Y-103836428D01*
X135227142Y-103765000D01*
X135334285Y-103729285D01*
X135405714Y-103729285D01*
X135512857Y-103765000D01*
X135548571Y-103800714D01*
X134155714Y-101939285D02*
X133905714Y-101582142D01*
X133727142Y-101939285D02*
X133727142Y-101189285D01*
X134012857Y-101189285D01*
X134084285Y-101225000D01*
X134120000Y-101260714D01*
X134155714Y-101332142D01*
X134155714Y-101439285D01*
X134120000Y-101510714D01*
X134084285Y-101546428D01*
X134012857Y-101582142D01*
X133727142Y-101582142D01*
X134477142Y-101546428D02*
X134727142Y-101546428D01*
X134834285Y-101939285D02*
X134477142Y-101939285D01*
X134477142Y-101189285D01*
X134834285Y-101189285D01*
X135120000Y-101903571D02*
X135227142Y-101939285D01*
X135405714Y-101939285D01*
X135477142Y-101903571D01*
X135512857Y-101867857D01*
X135548571Y-101796428D01*
X135548571Y-101725000D01*
X135512857Y-101653571D01*
X135477142Y-101617857D01*
X135405714Y-101582142D01*
X135262857Y-101546428D01*
X135191428Y-101510714D01*
X135155714Y-101475000D01*
X135120000Y-101403571D01*
X135120000Y-101332142D01*
X135155714Y-101260714D01*
X135191428Y-101225000D01*
X135262857Y-101189285D01*
X135441428Y-101189285D01*
X135548571Y-101225000D01*
X133541333Y-98193333D02*
X134241333Y-98193333D01*
X134241333Y-98460000D01*
X134208000Y-98526666D01*
X134174666Y-98560000D01*
X134108000Y-98593333D01*
X134008000Y-98593333D01*
X133941333Y-98560000D01*
X133908000Y-98526666D01*
X133874666Y-98460000D01*
X133874666Y-98193333D01*
X133908000Y-99126666D02*
X133874666Y-99226666D01*
X133841333Y-99260000D01*
X133774666Y-99293333D01*
X133674666Y-99293333D01*
X133608000Y-99260000D01*
X133574666Y-99226666D01*
X133541333Y-99160000D01*
X133541333Y-98893333D01*
X134241333Y-98893333D01*
X134241333Y-99126666D01*
X134208000Y-99193333D01*
X134174666Y-99226666D01*
X134108000Y-99260000D01*
X134041333Y-99260000D01*
X133974666Y-99226666D01*
X133941333Y-99193333D01*
X133908000Y-99126666D01*
X133908000Y-98893333D01*
X134241333Y-99526666D02*
X134241333Y-99993333D01*
X133541333Y-99693333D01*
X134185367Y-95910454D02*
X133655037Y-95380124D01*
X133857068Y-95178094D01*
X133932829Y-95152840D01*
X133983337Y-95152840D01*
X134059098Y-95178094D01*
X134134859Y-95253855D01*
X134160113Y-95329617D01*
X134160113Y-95380124D01*
X134134859Y-95455886D01*
X133932829Y-95657916D01*
X134614682Y-94925556D02*
X134715697Y-94875048D01*
X134766205Y-94875048D01*
X134841966Y-94900302D01*
X134917728Y-94976063D01*
X134942981Y-95051825D01*
X134942981Y-95102332D01*
X134917728Y-95178094D01*
X134715697Y-95380124D01*
X134185367Y-94849794D01*
X134362144Y-94673018D01*
X134437905Y-94647764D01*
X134488413Y-94647764D01*
X134564174Y-94673018D01*
X134614682Y-94723525D01*
X134639936Y-94799287D01*
X134639936Y-94849794D01*
X134614682Y-94925556D01*
X134437905Y-95102332D01*
X134665190Y-94369972D02*
X134993489Y-94041672D01*
X135018743Y-94420479D01*
X135094504Y-94344718D01*
X135170266Y-94319464D01*
X135220773Y-94319464D01*
X135296535Y-94344718D01*
X135422804Y-94470987D01*
X135448058Y-94546748D01*
X135448058Y-94597256D01*
X135422804Y-94673018D01*
X135271281Y-94824540D01*
X135195520Y-94849794D01*
X135145012Y-94849794D01*
X135549073Y-94142687D02*
X135953134Y-93738626D01*
X136407703Y-93688119D02*
X135877373Y-93157789D01*
X136432956Y-93359819D01*
X136230926Y-92804235D01*
X136761256Y-93334565D01*
X137013794Y-93082027D02*
X136483464Y-92551697D01*
X137215825Y-92829489D02*
X137316840Y-92778981D01*
X137443109Y-92652712D01*
X137468363Y-92576951D01*
X137468363Y-92526443D01*
X137443109Y-92450682D01*
X137392601Y-92400174D01*
X137316840Y-92374920D01*
X137266332Y-92374920D01*
X137190571Y-92400174D01*
X137064302Y-92475936D01*
X136988540Y-92501190D01*
X136938033Y-92501190D01*
X136862271Y-92475936D01*
X136811764Y-92425428D01*
X136786510Y-92349667D01*
X136786510Y-92299159D01*
X136811764Y-92223398D01*
X136938033Y-92097129D01*
X137039048Y-92046621D01*
X137342094Y-91693068D02*
X137443109Y-91592052D01*
X137518870Y-91566798D01*
X137619886Y-91566798D01*
X137746155Y-91642560D01*
X137922931Y-91819337D01*
X137998693Y-91945606D01*
X137998693Y-92046621D01*
X137973439Y-92122382D01*
X137872424Y-92223398D01*
X137796662Y-92248651D01*
X137695647Y-92248651D01*
X137569378Y-92172890D01*
X137392601Y-91996113D01*
X137316840Y-91869844D01*
X137316840Y-91768829D01*
X137342094Y-91693068D01*
X134185367Y-94132454D02*
X133655037Y-93602124D01*
X133857068Y-93400094D01*
X133932829Y-93374840D01*
X133983337Y-93374840D01*
X134059098Y-93400094D01*
X134134859Y-93475855D01*
X134160113Y-93551617D01*
X134160113Y-93602124D01*
X134134859Y-93677886D01*
X133932829Y-93879916D01*
X134614682Y-93147556D02*
X134715697Y-93097048D01*
X134766205Y-93097048D01*
X134841966Y-93122302D01*
X134917728Y-93198063D01*
X134942981Y-93273825D01*
X134942981Y-93324332D01*
X134917728Y-93400094D01*
X134715697Y-93602124D01*
X134185367Y-93071794D01*
X134362144Y-92895018D01*
X134437905Y-92869764D01*
X134488413Y-92869764D01*
X134564174Y-92895018D01*
X134614682Y-92945525D01*
X134639936Y-93021287D01*
X134639936Y-93071794D01*
X134614682Y-93147556D01*
X134437905Y-93324332D01*
X134740951Y-92617226D02*
X134740951Y-92566718D01*
X134766205Y-92490956D01*
X134892474Y-92364687D01*
X134968235Y-92339434D01*
X135018743Y-92339434D01*
X135094504Y-92364687D01*
X135145012Y-92415195D01*
X135195520Y-92516210D01*
X135195520Y-93122302D01*
X135523819Y-92794002D01*
X135549073Y-92364687D02*
X135953134Y-91960626D01*
X136407703Y-91910119D02*
X135877373Y-91379789D01*
X136432956Y-91581819D01*
X136230926Y-91026235D01*
X136761256Y-91556565D01*
X136584479Y-90672682D02*
X136685495Y-90571667D01*
X136761256Y-90546413D01*
X136862271Y-90546413D01*
X136988540Y-90622174D01*
X137165317Y-90798951D01*
X137241079Y-90925220D01*
X137241079Y-91026235D01*
X137215825Y-91101997D01*
X137114809Y-91203012D01*
X137039048Y-91228266D01*
X136938033Y-91228266D01*
X136811764Y-91152504D01*
X136634987Y-90975728D01*
X136559226Y-90849459D01*
X136559226Y-90748443D01*
X136584479Y-90672682D01*
X137518870Y-90748443D02*
X137619886Y-90697936D01*
X137746155Y-90571667D01*
X137771409Y-90495905D01*
X137771409Y-90445398D01*
X137746155Y-90369636D01*
X137695647Y-90319129D01*
X137619886Y-90293875D01*
X137569378Y-90293875D01*
X137493617Y-90319129D01*
X137367348Y-90394890D01*
X137291586Y-90420144D01*
X137241079Y-90420144D01*
X137165317Y-90394890D01*
X137114809Y-90344382D01*
X137089556Y-90268621D01*
X137089556Y-90218113D01*
X137114809Y-90142352D01*
X137241079Y-90016083D01*
X137342094Y-89965575D01*
X138074454Y-90243367D02*
X137544124Y-89713037D01*
X134147486Y-91884335D02*
X133617156Y-91354005D01*
X133819187Y-91151975D01*
X133894948Y-91126721D01*
X133945456Y-91126721D01*
X134021217Y-91151975D01*
X134096979Y-91227736D01*
X134122233Y-91303497D01*
X134122233Y-91354005D01*
X134096979Y-91429766D01*
X133894948Y-91631797D01*
X134576801Y-90899436D02*
X134677816Y-90848929D01*
X134728324Y-90848929D01*
X134804086Y-90874183D01*
X134879847Y-90949944D01*
X134905101Y-91025705D01*
X134905101Y-91076213D01*
X134879847Y-91151975D01*
X134677816Y-91354005D01*
X134147486Y-90823675D01*
X134324263Y-90646898D01*
X134400024Y-90621644D01*
X134450532Y-90621644D01*
X134526294Y-90646898D01*
X134576801Y-90697406D01*
X134602055Y-90773167D01*
X134602055Y-90823675D01*
X134576801Y-90899436D01*
X134400024Y-91076213D01*
X135485938Y-90545883D02*
X135182893Y-90848929D01*
X135334416Y-90697406D02*
X134804086Y-90167076D01*
X134829339Y-90293345D01*
X134829339Y-90394360D01*
X134804086Y-90470122D01*
X135511192Y-90116568D02*
X135915253Y-89712507D01*
X136319314Y-89662000D02*
X136420330Y-89611492D01*
X136546599Y-89485223D01*
X136571852Y-89409461D01*
X136571852Y-89358954D01*
X136546599Y-89283192D01*
X136496091Y-89232685D01*
X136420330Y-89207431D01*
X136369822Y-89207431D01*
X136294061Y-89232685D01*
X136167791Y-89308446D01*
X136092030Y-89333700D01*
X136041522Y-89333700D01*
X135965761Y-89308446D01*
X135915253Y-89257938D01*
X135890000Y-89182177D01*
X135890000Y-89131669D01*
X135915253Y-89055908D01*
X136041522Y-88929639D01*
X136142538Y-88879131D01*
X137127436Y-88803370D02*
X137127436Y-88853877D01*
X137076929Y-88954893D01*
X137026421Y-89005400D01*
X136925406Y-89055908D01*
X136824391Y-89055908D01*
X136748629Y-89030654D01*
X136622360Y-88954893D01*
X136546599Y-88879131D01*
X136470837Y-88752862D01*
X136445583Y-88677101D01*
X136445583Y-88576086D01*
X136496091Y-88475070D01*
X136546599Y-88424563D01*
X136647614Y-88374055D01*
X136698122Y-88374055D01*
X137657766Y-88374055D02*
X137405228Y-88626593D01*
X136874898Y-88096263D01*
X137834543Y-88197278D02*
X137304213Y-87666948D01*
X138137589Y-87894233D02*
X137607259Y-87818471D01*
X137607259Y-87363902D02*
X137607259Y-87969994D01*
X134131936Y-89359886D02*
X133601606Y-88829556D01*
X133803636Y-88627525D01*
X133879398Y-88602271D01*
X133929905Y-88602271D01*
X134005667Y-88627525D01*
X134081428Y-88703287D01*
X134106682Y-88779048D01*
X134106682Y-88829556D01*
X134081428Y-88905317D01*
X133879398Y-89107348D01*
X134561251Y-88374987D02*
X134662266Y-88324479D01*
X134712773Y-88324479D01*
X134788535Y-88349733D01*
X134864296Y-88425495D01*
X134889550Y-88501256D01*
X134889550Y-88551764D01*
X134864296Y-88627525D01*
X134662266Y-88829556D01*
X134131936Y-88299226D01*
X134308712Y-88122449D01*
X134384474Y-88097195D01*
X134434981Y-88097195D01*
X134510743Y-88122449D01*
X134561251Y-88172956D01*
X134586504Y-88248718D01*
X134586504Y-88299226D01*
X134561251Y-88374987D01*
X134384474Y-88551764D01*
X134763281Y-87667880D02*
X134813789Y-87617373D01*
X134889550Y-87592119D01*
X134940058Y-87592119D01*
X135015819Y-87617373D01*
X135142088Y-87693134D01*
X135268357Y-87819403D01*
X135344119Y-87945672D01*
X135369373Y-88021434D01*
X135369373Y-88071941D01*
X135344119Y-88147703D01*
X135293611Y-88198210D01*
X135217850Y-88223464D01*
X135167342Y-88223464D01*
X135091581Y-88198210D01*
X134965312Y-88122449D01*
X134839043Y-87996180D01*
X134763281Y-87869911D01*
X134738027Y-87794149D01*
X134738027Y-87743642D01*
X134763281Y-87667880D01*
X135495642Y-87592119D02*
X135899703Y-87188058D01*
X136303764Y-87137550D02*
X136404779Y-87087043D01*
X136531048Y-86960773D01*
X136556302Y-86885012D01*
X136556302Y-86834504D01*
X136531048Y-86758743D01*
X136480540Y-86708235D01*
X136404779Y-86682981D01*
X136354271Y-86682981D01*
X136278510Y-86708235D01*
X136152241Y-86783997D01*
X136076479Y-86809251D01*
X136025972Y-86809251D01*
X135950210Y-86783997D01*
X135899703Y-86733489D01*
X135874449Y-86657728D01*
X135874449Y-86607220D01*
X135899703Y-86531459D01*
X136025972Y-86405190D01*
X136126987Y-86354682D01*
X136808840Y-86632474D02*
X136909855Y-86581966D01*
X137036124Y-86455697D01*
X137061378Y-86379936D01*
X137061378Y-86329428D01*
X137036124Y-86253667D01*
X136985617Y-86203159D01*
X136909855Y-86177905D01*
X136859348Y-86177905D01*
X136783586Y-86203159D01*
X136657317Y-86278920D01*
X136581556Y-86304174D01*
X136531048Y-86304174D01*
X136455287Y-86278920D01*
X136404779Y-86228413D01*
X136379525Y-86152651D01*
X136379525Y-86102144D01*
X136404779Y-86026382D01*
X136531048Y-85900113D01*
X136632063Y-85849606D01*
X133611309Y-86279852D02*
X134318416Y-86633406D01*
X133964862Y-85926299D01*
X134570954Y-85825284D02*
X134671969Y-85774776D01*
X134722477Y-85774776D01*
X134798238Y-85800030D01*
X134874000Y-85875791D01*
X134899253Y-85951553D01*
X134899253Y-86002061D01*
X134874000Y-86077822D01*
X134671969Y-86279852D01*
X134141639Y-85749522D01*
X134318416Y-85572746D01*
X134394177Y-85547492D01*
X134444685Y-85547492D01*
X134520446Y-85572746D01*
X134570954Y-85623253D01*
X134596208Y-85699015D01*
X134596208Y-85749522D01*
X134570954Y-85825284D01*
X134394177Y-86002061D01*
X134671969Y-85219192D02*
X135101284Y-85648507D01*
X135177045Y-85673761D01*
X135227553Y-85673761D01*
X135303314Y-85648507D01*
X135404330Y-85547492D01*
X135429583Y-85471730D01*
X135429583Y-85421223D01*
X135404330Y-85345461D01*
X134975015Y-84916147D01*
X135707375Y-85193938D02*
X135808391Y-85143431D01*
X135934660Y-85017162D01*
X135959913Y-84941400D01*
X135959913Y-84890893D01*
X135934660Y-84815131D01*
X135884152Y-84764624D01*
X135808391Y-84739370D01*
X135757883Y-84739370D01*
X135682122Y-84764624D01*
X135555852Y-84840385D01*
X135480091Y-84865639D01*
X135429583Y-84865639D01*
X135353822Y-84840385D01*
X135303314Y-84789877D01*
X135278061Y-84714116D01*
X135278061Y-84663608D01*
X135303314Y-84587847D01*
X135429583Y-84461578D01*
X135530599Y-84411070D01*
X133842285Y-83409285D02*
X133842285Y-84016428D01*
X133878000Y-84087857D01*
X133913714Y-84123571D01*
X133985142Y-84159285D01*
X134128000Y-84159285D01*
X134199428Y-84123571D01*
X134235142Y-84087857D01*
X134270857Y-84016428D01*
X134270857Y-83409285D01*
X135056571Y-84087857D02*
X135020857Y-84123571D01*
X134913714Y-84159285D01*
X134842285Y-84159285D01*
X134735142Y-84123571D01*
X134663714Y-84052142D01*
X134628000Y-83980714D01*
X134592285Y-83837857D01*
X134592285Y-83730714D01*
X134628000Y-83587857D01*
X134663714Y-83516428D01*
X134735142Y-83445000D01*
X134842285Y-83409285D01*
X134913714Y-83409285D01*
X135020857Y-83445000D01*
X135056571Y-83480714D01*
X135342285Y-83945000D02*
X135699428Y-83945000D01*
X135270857Y-84159285D02*
X135520857Y-83409285D01*
X135770857Y-84159285D01*
X136020857Y-84159285D02*
X136020857Y-83409285D01*
X136306571Y-83409285D01*
X136378000Y-83445000D01*
X136413714Y-83480714D01*
X136449428Y-83552142D01*
X136449428Y-83659285D01*
X136413714Y-83730714D01*
X136378000Y-83766428D01*
X136306571Y-83802142D01*
X136020857Y-83802142D01*
X133770857Y-80869285D02*
X133770857Y-81476428D01*
X133806571Y-81547857D01*
X133842285Y-81583571D01*
X133913714Y-81619285D01*
X134056571Y-81619285D01*
X134128000Y-81583571D01*
X134163714Y-81547857D01*
X134199428Y-81476428D01*
X134199428Y-80869285D01*
X134949428Y-80905000D02*
X134878000Y-80869285D01*
X134770857Y-80869285D01*
X134663714Y-80905000D01*
X134592285Y-80976428D01*
X134556571Y-81047857D01*
X134520857Y-81190714D01*
X134520857Y-81297857D01*
X134556571Y-81440714D01*
X134592285Y-81512142D01*
X134663714Y-81583571D01*
X134770857Y-81619285D01*
X134842285Y-81619285D01*
X134949428Y-81583571D01*
X134985142Y-81547857D01*
X134985142Y-81297857D01*
X134842285Y-81297857D01*
X135306571Y-81619285D02*
X135306571Y-80869285D01*
X135735142Y-81619285D01*
X135735142Y-80869285D01*
X136092285Y-81619285D02*
X136092285Y-80869285D01*
X136270857Y-80869285D01*
X136378000Y-80905000D01*
X136449428Y-80976428D01*
X136485142Y-81047857D01*
X136520857Y-81190714D01*
X136520857Y-81297857D01*
X136485142Y-81440714D01*
X136449428Y-81512142D01*
X136378000Y-81583571D01*
X136270857Y-81619285D01*
X136092285Y-81619285D01*
X133705285Y-79079285D02*
X133705285Y-78329285D01*
X133883857Y-78329285D01*
X133991000Y-78365000D01*
X134062428Y-78436428D01*
X134098142Y-78507857D01*
X134133857Y-78650714D01*
X134133857Y-78757857D01*
X134098142Y-78900714D01*
X134062428Y-78972142D01*
X133991000Y-79043571D01*
X133883857Y-79079285D01*
X133705285Y-79079285D01*
X134455285Y-78793571D02*
X135026714Y-78793571D01*
X134741000Y-79079285D02*
X134741000Y-78507857D01*
X133705285Y-76539285D02*
X133705285Y-75789285D01*
X133883857Y-75789285D01*
X133991000Y-75825000D01*
X134062428Y-75896428D01*
X134098142Y-75967857D01*
X134133857Y-76110714D01*
X134133857Y-76217857D01*
X134098142Y-76360714D01*
X134062428Y-76432142D01*
X133991000Y-76503571D01*
X133883857Y-76539285D01*
X133705285Y-76539285D01*
X134455285Y-76253571D02*
X135026714Y-76253571D01*
X133588285Y-73249285D02*
X133588285Y-73856428D01*
X133624000Y-73927857D01*
X133659714Y-73963571D01*
X133731142Y-73999285D01*
X133874000Y-73999285D01*
X133945428Y-73963571D01*
X133981142Y-73927857D01*
X134016857Y-73856428D01*
X134016857Y-73249285D01*
X134266857Y-73249285D02*
X134516857Y-73999285D01*
X134766857Y-73249285D01*
X135445428Y-73927857D02*
X135409714Y-73963571D01*
X135302571Y-73999285D01*
X135231142Y-73999285D01*
X135124000Y-73963571D01*
X135052571Y-73892142D01*
X135016857Y-73820714D01*
X134981142Y-73677857D01*
X134981142Y-73570714D01*
X135016857Y-73427857D01*
X135052571Y-73356428D01*
X135124000Y-73285000D01*
X135231142Y-73249285D01*
X135302571Y-73249285D01*
X135409714Y-73285000D01*
X135445428Y-73320714D01*
X136195428Y-73927857D02*
X136159714Y-73963571D01*
X136052571Y-73999285D01*
X135981142Y-73999285D01*
X135874000Y-73963571D01*
X135802571Y-73892142D01*
X135766857Y-73820714D01*
X135731142Y-73677857D01*
X135731142Y-73570714D01*
X135766857Y-73427857D01*
X135802571Y-73356428D01*
X135874000Y-73285000D01*
X135981142Y-73249285D01*
X136052571Y-73249285D01*
X136159714Y-73285000D01*
X136195428Y-73320714D01*
X133546714Y-71459285D02*
X133546714Y-70709285D01*
X133832428Y-70709285D01*
X133903857Y-70745000D01*
X133939571Y-70780714D01*
X133975285Y-70852142D01*
X133975285Y-70959285D01*
X133939571Y-71030714D01*
X133903857Y-71066428D01*
X133832428Y-71102142D01*
X133546714Y-71102142D01*
X134296714Y-71066428D02*
X134546714Y-71066428D01*
X134653857Y-71459285D02*
X134296714Y-71459285D01*
X134296714Y-70709285D01*
X134653857Y-70709285D01*
X135296714Y-70709285D02*
X135153857Y-70709285D01*
X135082428Y-70745000D01*
X135046714Y-70780714D01*
X134975285Y-70887857D01*
X134939571Y-71030714D01*
X134939571Y-71316428D01*
X134975285Y-71387857D01*
X135011000Y-71423571D01*
X135082428Y-71459285D01*
X135225285Y-71459285D01*
X135296714Y-71423571D01*
X135332428Y-71387857D01*
X135368142Y-71316428D01*
X135368142Y-71137857D01*
X135332428Y-71066428D01*
X135296714Y-71030714D01*
X135225285Y-70995000D01*
X135082428Y-70995000D01*
X135011000Y-71030714D01*
X134975285Y-71066428D01*
X134939571Y-71137857D01*
X135689571Y-71173571D02*
X136261000Y-71173571D01*
X136618142Y-71459285D02*
X136618142Y-70709285D01*
X136796714Y-70709285D01*
X136903857Y-70745000D01*
X136975285Y-70816428D01*
X137011000Y-70887857D01*
X137046714Y-71030714D01*
X137046714Y-71137857D01*
X137011000Y-71280714D01*
X136975285Y-71352142D01*
X136903857Y-71423571D01*
X136796714Y-71459285D01*
X136618142Y-71459285D01*
X137296714Y-70709285D02*
X137796714Y-70709285D01*
X137475285Y-71459285D01*
D11*
%TO.C,Y1*%
X139461000Y-116917000D02*
X139461000Y-123167000D01*
X144511000Y-116917000D02*
X144511000Y-123167000D01*
X139461000Y-116917000D02*
G75*
G02*
X144511000Y-116917000I2525000J0D01*
G01*
X139461000Y-123167000D02*
G75*
G03*
X144511000Y-123167000I2525000J0D01*
G01*
D10*
%TO.C,U1*%
X141579414Y-90878031D02*
X140677852Y-89976470D01*
X149304555Y-97790000D02*
X148827258Y-97312703D01*
X141986000Y-105108555D02*
X141508703Y-104631258D01*
X134667445Y-97790000D02*
X135144742Y-98267297D01*
X141986000Y-90471445D02*
X142463297Y-90948742D01*
X134667445Y-97790000D02*
X135144742Y-97312703D01*
X141986000Y-105108555D02*
X142463297Y-104631258D01*
X149304555Y-97790000D02*
X148827258Y-98267297D01*
X141986000Y-90471445D02*
X141579414Y-90878031D01*
D11*
%TO.C,J1*%
X130496000Y-69790000D02*
X131826000Y-69790000D01*
X130496000Y-71120000D02*
X130496000Y-69790000D01*
X130496000Y-72390000D02*
X133156000Y-72390000D01*
X133156000Y-72390000D02*
X133156000Y-125790000D01*
X130496000Y-72390000D02*
X130496000Y-125790000D01*
X130496000Y-125790000D02*
X133156000Y-125790000D01*
%TO.C,J2*%
X150816000Y-125790000D02*
X153476000Y-125790000D01*
X150816000Y-72390000D02*
X150816000Y-125790000D01*
X153476000Y-72390000D02*
X153476000Y-125790000D01*
X150816000Y-72390000D02*
X153476000Y-72390000D01*
X150816000Y-71120000D02*
X150816000Y-69790000D01*
X150816000Y-69790000D02*
X152146000Y-69790000D01*
%TO.C,C2*%
X144176000Y-112155000D02*
X144176000Y-110897000D01*
X142336000Y-112155000D02*
X142336000Y-110897000D01*
%TO.C,C1*%
X141636000Y-110857000D02*
X141636000Y-112115000D01*
X139796000Y-110857000D02*
X139796000Y-112115000D01*
%TO.C,Y1*%
D10*
X141962190Y-120491190D02*
X142438380Y-120491190D01*
X141438380Y-120824523D02*
X141962190Y-120491190D01*
X141438380Y-120157857D01*
X142438380Y-119300714D02*
X142438380Y-119872142D01*
X142438380Y-119586428D02*
X141438380Y-119586428D01*
X141581238Y-119681666D01*
X141676476Y-119776904D01*
X141724095Y-119872142D01*
%TO.C,C2*%
X143613142Y-108370666D02*
X143660761Y-108418285D01*
X143708380Y-108561142D01*
X143708380Y-108656380D01*
X143660761Y-108799238D01*
X143565523Y-108894476D01*
X143470285Y-108942095D01*
X143279809Y-108989714D01*
X143136952Y-108989714D01*
X142946476Y-108942095D01*
X142851238Y-108894476D01*
X142756000Y-108799238D01*
X142708380Y-108656380D01*
X142708380Y-108561142D01*
X142756000Y-108418285D01*
X142803619Y-108370666D01*
X142803619Y-107989714D02*
X142756000Y-107942095D01*
X142708380Y-107846857D01*
X142708380Y-107608761D01*
X142756000Y-107513523D01*
X142803619Y-107465904D01*
X142898857Y-107418285D01*
X142994095Y-107418285D01*
X143136952Y-107465904D01*
X143708380Y-108037333D01*
X143708380Y-107418285D01*
%TO.C,C1*%
X141073142Y-108370666D02*
X141120761Y-108418285D01*
X141168380Y-108561142D01*
X141168380Y-108656380D01*
X141120761Y-108799238D01*
X141025523Y-108894476D01*
X140930285Y-108942095D01*
X140739809Y-108989714D01*
X140596952Y-108989714D01*
X140406476Y-108942095D01*
X140311238Y-108894476D01*
X140216000Y-108799238D01*
X140168380Y-108656380D01*
X140168380Y-108561142D01*
X140216000Y-108418285D01*
X140263619Y-108370666D01*
X141168380Y-107418285D02*
X141168380Y-107989714D01*
X141168380Y-107704000D02*
X140168380Y-107704000D01*
X140311238Y-107799238D01*
X140406476Y-107894476D01*
X140454095Y-107989714D01*
%TD*%
M02*
