%TF.GenerationSoftware,KiCad,Pcbnew,(5.1.7)-1*%
%TF.CreationDate,2020-11-07T21:13:55-05:00*%
%TF.ProjectId,ATmega32u4 Breakout,41546d65-6761-4333-9275-342042726561,rev?*%
%TF.SameCoordinates,Original*%
%TF.FileFunction,Soldermask,Bot*%
%TF.FilePolarity,Negative*%
%FSLAX46Y46*%
G04 Gerber Fmt 4.6, Leading zero omitted, Abs format (unit mm)*
G04 Created by KiCad (PCBNEW (5.1.7)-1) date 2020-11-07 21:13:55*
%MOMM*%
%LPD*%
G01*
G04 APERTURE LIST*
%ADD10C,1.601600*%
%ADD11O,1.801600X1.801600*%
%ADD12C,1.701600*%
G04 APERTURE END LIST*
D10*
%TO.C,Y1*%
X141986000Y-117602000D03*
X141986000Y-122482000D03*
%TD*%
%TO.C,J1*%
G36*
G01*
X130925200Y-71970000D02*
X130925200Y-70270000D01*
G75*
G02*
X130976000Y-70219200I50800J0D01*
G01*
X132676000Y-70219200D01*
G75*
G02*
X132726800Y-70270000I0J-50800D01*
G01*
X132726800Y-71970000D01*
G75*
G02*
X132676000Y-72020800I-50800J0D01*
G01*
X130976000Y-72020800D01*
G75*
G02*
X130925200Y-71970000I0J50800D01*
G01*
G37*
D11*
X131826000Y-73660000D03*
X131826000Y-76200000D03*
X131826000Y-78740000D03*
X131826000Y-81280000D03*
X131826000Y-83820000D03*
X131826000Y-86360000D03*
X131826000Y-88900000D03*
X131826000Y-91440000D03*
X131826000Y-93980000D03*
X131826000Y-96520000D03*
X131826000Y-99060000D03*
X131826000Y-101600000D03*
X131826000Y-104140000D03*
X131826000Y-106680000D03*
X131826000Y-109220000D03*
X131826000Y-111760000D03*
X131826000Y-114300000D03*
X131826000Y-116840000D03*
X131826000Y-119380000D03*
X131826000Y-121920000D03*
X131826000Y-124460000D03*
%TD*%
%TO.C,J2*%
X152146000Y-124460000D03*
X152146000Y-121920000D03*
X152146000Y-119380000D03*
X152146000Y-116840000D03*
X152146000Y-114300000D03*
X152146000Y-111760000D03*
X152146000Y-109220000D03*
X152146000Y-106680000D03*
X152146000Y-104140000D03*
X152146000Y-101600000D03*
X152146000Y-99060000D03*
X152146000Y-96520000D03*
X152146000Y-93980000D03*
X152146000Y-91440000D03*
X152146000Y-88900000D03*
X152146000Y-86360000D03*
X152146000Y-83820000D03*
X152146000Y-81280000D03*
X152146000Y-78740000D03*
X152146000Y-76200000D03*
X152146000Y-73660000D03*
G36*
G01*
X151245200Y-71970000D02*
X151245200Y-70270000D01*
G75*
G02*
X151296000Y-70219200I50800J0D01*
G01*
X152996000Y-70219200D01*
G75*
G02*
X153046800Y-70270000I0J-50800D01*
G01*
X153046800Y-71970000D01*
G75*
G02*
X152996000Y-72020800I-50800J0D01*
G01*
X151296000Y-72020800D01*
G75*
G02*
X151245200Y-71970000I0J50800D01*
G01*
G37*
%TD*%
D12*
%TO.C,C2*%
X143256000Y-112776000D03*
X143256000Y-110276000D03*
%TD*%
%TO.C,C1*%
X140716000Y-112736000D03*
X140716000Y-110236000D03*
%TD*%
M02*
