%TF.GenerationSoftware,KiCad,Pcbnew,(5.1.7)-1*%
%TF.CreationDate,2020-11-07T21:13:55-05:00*%
%TF.ProjectId,ATmega32u4 Breakout,41546d65-6761-4333-9275-342042726561,rev?*%
%TF.SameCoordinates,Original*%
%TF.FileFunction,Copper,L1,Top*%
%TF.FilePolarity,Positive*%
%FSLAX46Y46*%
G04 Gerber Fmt 4.6, Leading zero omitted, Abs format (unit mm)*
G04 Created by KiCad (PCBNEW (5.1.7)-1) date 2020-11-07 21:13:55*
%MOMM*%
%LPD*%
G01*
G04 APERTURE LIST*
%TA.AperFunction,ComponentPad*%
%ADD10C,1.500000*%
%TD*%
%TA.AperFunction,SMDPad,CuDef*%
%ADD11C,0.100000*%
%TD*%
%TA.AperFunction,ComponentPad*%
%ADD12R,1.700000X1.700000*%
%TD*%
%TA.AperFunction,ComponentPad*%
%ADD13O,1.700000X1.700000*%
%TD*%
%TA.AperFunction,ComponentPad*%
%ADD14C,1.600000*%
%TD*%
%TA.AperFunction,ViaPad*%
%ADD15C,0.700000*%
%TD*%
%TA.AperFunction,ViaPad*%
%ADD16C,0.800000*%
%TD*%
%TA.AperFunction,Conductor*%
%ADD17C,0.250000*%
%TD*%
%TA.AperFunction,Conductor*%
%ADD18C,0.400000*%
%TD*%
G04 APERTURE END LIST*
D10*
%TO.P,Y1,1*%
%TO.N,XTAL1*%
X141986000Y-117602000D03*
%TO.P,Y1,2*%
%TO.N,XTAL2*%
X141986000Y-122482000D03*
%TD*%
%TA.AperFunction,SMDPad,CuDef*%
D11*
%TO.P,U1,1*%
%TO.N,D7*%
G36*
X140059134Y-90595188D02*
G01*
X140448042Y-90206280D01*
X141508702Y-91266940D01*
X141119794Y-91655848D01*
X140059134Y-90595188D01*
G37*
%TD.AperFunction*%
%TA.AperFunction,SMDPad,CuDef*%
%TO.P,U1,2*%
%TO.N,UVCC*%
G36*
X139493449Y-91160874D02*
G01*
X139882357Y-90771966D01*
X140943017Y-91832626D01*
X140554109Y-92221534D01*
X139493449Y-91160874D01*
G37*
%TD.AperFunction*%
%TA.AperFunction,SMDPad,CuDef*%
%TO.P,U1,3*%
%TO.N,D-*%
G36*
X138927764Y-91726559D02*
G01*
X139316672Y-91337651D01*
X140377332Y-92398311D01*
X139988424Y-92787219D01*
X138927764Y-91726559D01*
G37*
%TD.AperFunction*%
%TA.AperFunction,SMDPad,CuDef*%
%TO.P,U1,4*%
%TO.N,D+*%
G36*
X138362078Y-92292244D02*
G01*
X138750986Y-91903336D01*
X139811646Y-92963996D01*
X139422738Y-93352904D01*
X138362078Y-92292244D01*
G37*
%TD.AperFunction*%
%TA.AperFunction,SMDPad,CuDef*%
%TO.P,U1,5*%
%TO.N,UGND*%
G36*
X137796393Y-92857930D02*
G01*
X138185301Y-92469022D01*
X139245961Y-93529682D01*
X138857053Y-93918590D01*
X137796393Y-92857930D01*
G37*
%TD.AperFunction*%
%TA.AperFunction,SMDPad,CuDef*%
%TO.P,U1,6*%
%TO.N,UCAP*%
G36*
X137230707Y-93423615D02*
G01*
X137619615Y-93034707D01*
X138680275Y-94095367D01*
X138291367Y-94484275D01*
X137230707Y-93423615D01*
G37*
%TD.AperFunction*%
%TA.AperFunction,SMDPad,CuDef*%
%TO.P,U1,7*%
%TO.N,VBUS*%
G36*
X136665022Y-93989301D02*
G01*
X137053930Y-93600393D01*
X138114590Y-94661053D01*
X137725682Y-95049961D01*
X136665022Y-93989301D01*
G37*
%TD.AperFunction*%
%TA.AperFunction,SMDPad,CuDef*%
%TO.P,U1,8*%
%TO.N,PB0*%
G36*
X136099336Y-94554986D02*
G01*
X136488244Y-94166078D01*
X137548904Y-95226738D01*
X137159996Y-95615646D01*
X136099336Y-94554986D01*
G37*
%TD.AperFunction*%
%TA.AperFunction,SMDPad,CuDef*%
%TO.P,U1,9*%
%TO.N,PB1*%
G36*
X135533651Y-95120672D02*
G01*
X135922559Y-94731764D01*
X136983219Y-95792424D01*
X136594311Y-96181332D01*
X135533651Y-95120672D01*
G37*
%TD.AperFunction*%
%TA.AperFunction,SMDPad,CuDef*%
%TO.P,U1,10*%
%TO.N,PB2*%
G36*
X134967966Y-95686357D02*
G01*
X135356874Y-95297449D01*
X136417534Y-96358109D01*
X136028626Y-96747017D01*
X134967966Y-95686357D01*
G37*
%TD.AperFunction*%
%TA.AperFunction,SMDPad,CuDef*%
%TO.P,U1,11*%
%TO.N,PB3*%
G36*
X134402280Y-96252042D02*
G01*
X134791188Y-95863134D01*
X135851848Y-96923794D01*
X135462940Y-97312702D01*
X134402280Y-96252042D01*
G37*
%TD.AperFunction*%
%TA.AperFunction,SMDPad,CuDef*%
%TO.P,U1,12*%
%TO.N,PB7*%
G36*
X134791188Y-99716866D02*
G01*
X134402280Y-99327958D01*
X135462940Y-98267298D01*
X135851848Y-98656206D01*
X134791188Y-99716866D01*
G37*
%TD.AperFunction*%
%TA.AperFunction,SMDPad,CuDef*%
%TO.P,U1,13*%
%TO.N,RESET*%
G36*
X135356874Y-100282551D02*
G01*
X134967966Y-99893643D01*
X136028626Y-98832983D01*
X136417534Y-99221891D01*
X135356874Y-100282551D01*
G37*
%TD.AperFunction*%
%TA.AperFunction,SMDPad,CuDef*%
%TO.P,U1,14*%
%TO.N,VCC*%
G36*
X135922559Y-100848236D02*
G01*
X135533651Y-100459328D01*
X136594311Y-99398668D01*
X136983219Y-99787576D01*
X135922559Y-100848236D01*
G37*
%TD.AperFunction*%
%TA.AperFunction,SMDPad,CuDef*%
%TO.P,U1,15*%
%TO.N,GND*%
G36*
X136488244Y-101413922D02*
G01*
X136099336Y-101025014D01*
X137159996Y-99964354D01*
X137548904Y-100353262D01*
X136488244Y-101413922D01*
G37*
%TD.AperFunction*%
%TA.AperFunction,SMDPad,CuDef*%
%TO.P,U1,16*%
%TO.N,XTAL2*%
G36*
X137053930Y-101979607D02*
G01*
X136665022Y-101590699D01*
X137725682Y-100530039D01*
X138114590Y-100918947D01*
X137053930Y-101979607D01*
G37*
%TD.AperFunction*%
%TA.AperFunction,SMDPad,CuDef*%
%TO.P,U1,17*%
%TO.N,XTAL1*%
G36*
X137619615Y-102545293D02*
G01*
X137230707Y-102156385D01*
X138291367Y-101095725D01*
X138680275Y-101484633D01*
X137619615Y-102545293D01*
G37*
%TD.AperFunction*%
%TA.AperFunction,SMDPad,CuDef*%
%TO.P,U1,18*%
%TO.N,PD0*%
G36*
X138185301Y-103110978D02*
G01*
X137796393Y-102722070D01*
X138857053Y-101661410D01*
X139245961Y-102050318D01*
X138185301Y-103110978D01*
G37*
%TD.AperFunction*%
%TA.AperFunction,SMDPad,CuDef*%
%TO.P,U1,19*%
%TO.N,PD1*%
G36*
X138750986Y-103676664D02*
G01*
X138362078Y-103287756D01*
X139422738Y-102227096D01*
X139811646Y-102616004D01*
X138750986Y-103676664D01*
G37*
%TD.AperFunction*%
%TA.AperFunction,SMDPad,CuDef*%
%TO.P,U1,20*%
%TO.N,PD2*%
G36*
X139316672Y-104242349D02*
G01*
X138927764Y-103853441D01*
X139988424Y-102792781D01*
X140377332Y-103181689D01*
X139316672Y-104242349D01*
G37*
%TD.AperFunction*%
%TA.AperFunction,SMDPad,CuDef*%
%TO.P,U1,21*%
%TO.N,PD3*%
G36*
X139882357Y-104808034D02*
G01*
X139493449Y-104419126D01*
X140554109Y-103358466D01*
X140943017Y-103747374D01*
X139882357Y-104808034D01*
G37*
%TD.AperFunction*%
%TA.AperFunction,SMDPad,CuDef*%
%TO.P,U1,22*%
%TO.N,PD5*%
G36*
X140448042Y-105373720D02*
G01*
X140059134Y-104984812D01*
X141119794Y-103924152D01*
X141508702Y-104313060D01*
X140448042Y-105373720D01*
G37*
%TD.AperFunction*%
%TA.AperFunction,SMDPad,CuDef*%
%TO.P,U1,23*%
%TO.N,GND*%
G36*
X142463298Y-104313060D02*
G01*
X142852206Y-103924152D01*
X143912866Y-104984812D01*
X143523958Y-105373720D01*
X142463298Y-104313060D01*
G37*
%TD.AperFunction*%
%TA.AperFunction,SMDPad,CuDef*%
%TO.P,U1,24*%
%TO.N,AVCC*%
G36*
X143028983Y-103747374D02*
G01*
X143417891Y-103358466D01*
X144478551Y-104419126D01*
X144089643Y-104808034D01*
X143028983Y-103747374D01*
G37*
%TD.AperFunction*%
%TA.AperFunction,SMDPad,CuDef*%
%TO.P,U1,25*%
%TO.N,PD4*%
G36*
X143594668Y-103181689D02*
G01*
X143983576Y-102792781D01*
X145044236Y-103853441D01*
X144655328Y-104242349D01*
X143594668Y-103181689D01*
G37*
%TD.AperFunction*%
%TA.AperFunction,SMDPad,CuDef*%
%TO.P,U1,26*%
%TO.N,PD6*%
G36*
X144160354Y-102616004D02*
G01*
X144549262Y-102227096D01*
X145609922Y-103287756D01*
X145221014Y-103676664D01*
X144160354Y-102616004D01*
G37*
%TD.AperFunction*%
%TA.AperFunction,SMDPad,CuDef*%
%TO.P,U1,27*%
%TO.N,PD7*%
G36*
X144726039Y-102050318D02*
G01*
X145114947Y-101661410D01*
X146175607Y-102722070D01*
X145786699Y-103110978D01*
X144726039Y-102050318D01*
G37*
%TD.AperFunction*%
%TA.AperFunction,SMDPad,CuDef*%
%TO.P,U1,28*%
%TO.N,PB4*%
G36*
X145291725Y-101484633D02*
G01*
X145680633Y-101095725D01*
X146741293Y-102156385D01*
X146352385Y-102545293D01*
X145291725Y-101484633D01*
G37*
%TD.AperFunction*%
%TA.AperFunction,SMDPad,CuDef*%
%TO.P,U1,29*%
%TO.N,PB5*%
G36*
X145857410Y-100918947D02*
G01*
X146246318Y-100530039D01*
X147306978Y-101590699D01*
X146918070Y-101979607D01*
X145857410Y-100918947D01*
G37*
%TD.AperFunction*%
%TA.AperFunction,SMDPad,CuDef*%
%TO.P,U1,30*%
%TO.N,PB6*%
G36*
X146423096Y-100353262D02*
G01*
X146812004Y-99964354D01*
X147872664Y-101025014D01*
X147483756Y-101413922D01*
X146423096Y-100353262D01*
G37*
%TD.AperFunction*%
%TA.AperFunction,SMDPad,CuDef*%
%TO.P,U1,31*%
%TO.N,PC6*%
G36*
X146988781Y-99787576D02*
G01*
X147377689Y-99398668D01*
X148438349Y-100459328D01*
X148049441Y-100848236D01*
X146988781Y-99787576D01*
G37*
%TD.AperFunction*%
%TA.AperFunction,SMDPad,CuDef*%
%TO.P,U1,32*%
%TO.N,PC7*%
G36*
X147554466Y-99221891D02*
G01*
X147943374Y-98832983D01*
X149004034Y-99893643D01*
X148615126Y-100282551D01*
X147554466Y-99221891D01*
G37*
%TD.AperFunction*%
%TA.AperFunction,SMDPad,CuDef*%
%TO.P,U1,33*%
%TO.N,PE2*%
G36*
X148120152Y-98656206D02*
G01*
X148509060Y-98267298D01*
X149569720Y-99327958D01*
X149180812Y-99716866D01*
X148120152Y-98656206D01*
G37*
%TD.AperFunction*%
%TA.AperFunction,SMDPad,CuDef*%
%TO.P,U1,34*%
%TO.N,VCC*%
G36*
X148509060Y-97312702D02*
G01*
X148120152Y-96923794D01*
X149180812Y-95863134D01*
X149569720Y-96252042D01*
X148509060Y-97312702D01*
G37*
%TD.AperFunction*%
%TA.AperFunction,SMDPad,CuDef*%
%TO.P,U1,35*%
%TO.N,GND*%
G36*
X147943374Y-96747017D02*
G01*
X147554466Y-96358109D01*
X148615126Y-95297449D01*
X149004034Y-95686357D01*
X147943374Y-96747017D01*
G37*
%TD.AperFunction*%
%TA.AperFunction,SMDPad,CuDef*%
%TO.P,U1,36*%
%TO.N,PF7*%
G36*
X147377689Y-96181332D02*
G01*
X146988781Y-95792424D01*
X148049441Y-94731764D01*
X148438349Y-95120672D01*
X147377689Y-96181332D01*
G37*
%TD.AperFunction*%
%TA.AperFunction,SMDPad,CuDef*%
%TO.P,U1,37*%
%TO.N,PF6*%
G36*
X146812004Y-95615646D02*
G01*
X146423096Y-95226738D01*
X147483756Y-94166078D01*
X147872664Y-94554986D01*
X146812004Y-95615646D01*
G37*
%TD.AperFunction*%
%TA.AperFunction,SMDPad,CuDef*%
%TO.P,U1,38*%
%TO.N,PF5*%
G36*
X146246318Y-95049961D02*
G01*
X145857410Y-94661053D01*
X146918070Y-93600393D01*
X147306978Y-93989301D01*
X146246318Y-95049961D01*
G37*
%TD.AperFunction*%
%TA.AperFunction,SMDPad,CuDef*%
%TO.P,U1,39*%
%TO.N,PF4*%
G36*
X145680633Y-94484275D02*
G01*
X145291725Y-94095367D01*
X146352385Y-93034707D01*
X146741293Y-93423615D01*
X145680633Y-94484275D01*
G37*
%TD.AperFunction*%
%TA.AperFunction,SMDPad,CuDef*%
%TO.P,U1,40*%
%TO.N,PF1*%
G36*
X145114947Y-93918590D02*
G01*
X144726039Y-93529682D01*
X145786699Y-92469022D01*
X146175607Y-92857930D01*
X145114947Y-93918590D01*
G37*
%TD.AperFunction*%
%TA.AperFunction,SMDPad,CuDef*%
%TO.P,U1,41*%
%TO.N,PF0*%
G36*
X144549262Y-93352904D02*
G01*
X144160354Y-92963996D01*
X145221014Y-91903336D01*
X145609922Y-92292244D01*
X144549262Y-93352904D01*
G37*
%TD.AperFunction*%
%TA.AperFunction,SMDPad,CuDef*%
%TO.P,U1,42*%
%TO.N,AREF*%
G36*
X143983576Y-92787219D02*
G01*
X143594668Y-92398311D01*
X144655328Y-91337651D01*
X145044236Y-91726559D01*
X143983576Y-92787219D01*
G37*
%TD.AperFunction*%
%TA.AperFunction,SMDPad,CuDef*%
%TO.P,U1,43*%
%TO.N,GND*%
G36*
X143417891Y-92221534D02*
G01*
X143028983Y-91832626D01*
X144089643Y-90771966D01*
X144478551Y-91160874D01*
X143417891Y-92221534D01*
G37*
%TD.AperFunction*%
%TA.AperFunction,SMDPad,CuDef*%
%TO.P,U1,44*%
%TO.N,AVCC*%
G36*
X142852206Y-91655848D02*
G01*
X142463298Y-91266940D01*
X143523958Y-90206280D01*
X143912866Y-90595188D01*
X142852206Y-91655848D01*
G37*
%TD.AperFunction*%
%TD*%
D12*
%TO.P,J1,1*%
%TO.N,D7*%
X131826000Y-71120000D03*
D13*
%TO.P,J1,2*%
%TO.N,UVCC*%
X131826000Y-73660000D03*
%TO.P,J1,3*%
%TO.N,D-*%
X131826000Y-76200000D03*
%TO.P,J1,4*%
%TO.N,D+*%
X131826000Y-78740000D03*
%TO.P,J1,5*%
%TO.N,UGND*%
X131826000Y-81280000D03*
%TO.P,J1,6*%
%TO.N,UCAP*%
X131826000Y-83820000D03*
%TO.P,J1,7*%
%TO.N,VBUS*%
X131826000Y-86360000D03*
%TO.P,J1,8*%
%TO.N,PB0*%
X131826000Y-88900000D03*
%TO.P,J1,9*%
%TO.N,PB1*%
X131826000Y-91440000D03*
%TO.P,J1,10*%
%TO.N,PB2*%
X131826000Y-93980000D03*
%TO.P,J1,11*%
%TO.N,PB3*%
X131826000Y-96520000D03*
%TO.P,J1,12*%
%TO.N,PB7*%
X131826000Y-99060000D03*
%TO.P,J1,13*%
%TO.N,RESET*%
X131826000Y-101600000D03*
%TO.P,J1,14*%
%TO.N,VCC*%
X131826000Y-104140000D03*
%TO.P,J1,15*%
%TO.N,GND*%
X131826000Y-106680000D03*
%TO.P,J1,16*%
%TO.N,XTAL2*%
X131826000Y-109220000D03*
%TO.P,J1,17*%
%TO.N,XTAL1*%
X131826000Y-111760000D03*
%TO.P,J1,18*%
%TO.N,PD0*%
X131826000Y-114300000D03*
%TO.P,J1,19*%
%TO.N,PD1*%
X131826000Y-116840000D03*
%TO.P,J1,20*%
%TO.N,PD2*%
X131826000Y-119380000D03*
%TO.P,J1,21*%
%TO.N,PD3*%
X131826000Y-121920000D03*
%TO.P,J1,22*%
%TO.N,PD5*%
X131826000Y-124460000D03*
%TD*%
%TO.P,J2,22*%
%TO.N,GND*%
X152146000Y-124460000D03*
%TO.P,J2,21*%
%TO.N,AVCC*%
X152146000Y-121920000D03*
%TO.P,J2,20*%
%TO.N,PD4*%
X152146000Y-119380000D03*
%TO.P,J2,19*%
%TO.N,PD6*%
X152146000Y-116840000D03*
%TO.P,J2,18*%
%TO.N,PD7*%
X152146000Y-114300000D03*
%TO.P,J2,17*%
%TO.N,PB4*%
X152146000Y-111760000D03*
%TO.P,J2,16*%
%TO.N,PB5*%
X152146000Y-109220000D03*
%TO.P,J2,15*%
%TO.N,PB6*%
X152146000Y-106680000D03*
%TO.P,J2,14*%
%TO.N,PC6*%
X152146000Y-104140000D03*
%TO.P,J2,13*%
%TO.N,PC7*%
X152146000Y-101600000D03*
%TO.P,J2,12*%
%TO.N,PE2*%
X152146000Y-99060000D03*
%TO.P,J2,11*%
%TO.N,VCC*%
X152146000Y-96520000D03*
%TO.P,J2,10*%
%TO.N,GND*%
X152146000Y-93980000D03*
%TO.P,J2,9*%
%TO.N,PF7*%
X152146000Y-91440000D03*
%TO.P,J2,8*%
%TO.N,PF6*%
X152146000Y-88900000D03*
%TO.P,J2,7*%
%TO.N,PF5*%
X152146000Y-86360000D03*
%TO.P,J2,6*%
%TO.N,PF4*%
X152146000Y-83820000D03*
%TO.P,J2,5*%
%TO.N,PF1*%
X152146000Y-81280000D03*
%TO.P,J2,4*%
%TO.N,PF0*%
X152146000Y-78740000D03*
%TO.P,J2,3*%
%TO.N,AREF*%
X152146000Y-76200000D03*
%TO.P,J2,2*%
%TO.N,GND*%
X152146000Y-73660000D03*
D12*
%TO.P,J2,1*%
%TO.N,AVCC*%
X152146000Y-71120000D03*
%TD*%
D14*
%TO.P,C2,1*%
%TO.N,XTAL1*%
X143256000Y-112776000D03*
%TO.P,C2,2*%
%TO.N,GND*%
X143256000Y-110276000D03*
%TD*%
%TO.P,C1,2*%
%TO.N,GND*%
X140716000Y-112736000D03*
%TO.P,C1,1*%
%TO.N,XTAL2*%
X140716000Y-110236000D03*
%TD*%
D15*
%TO.N,VCC*%
X137668000Y-98806000D03*
X143256000Y-98806000D03*
D16*
%TO.N,XTAL1*%
X131826000Y-111760000D03*
%TD*%
D17*
%TO.N,D7*%
X140783918Y-80077918D02*
X131826000Y-71120000D01*
X140783918Y-90931064D02*
X140783918Y-80077918D01*
D18*
%TO.N,UVCC*%
X139559124Y-90837641D02*
X140218233Y-91496750D01*
X139559124Y-81393124D02*
X139559124Y-90837641D01*
X131826000Y-73660000D02*
X139559124Y-81393124D01*
D17*
%TO.N,D-*%
X138885612Y-91295499D02*
X139652548Y-92062435D01*
X138885612Y-83259612D02*
X138885612Y-91295499D01*
X131826000Y-76200000D02*
X138885612Y-83259612D01*
%TO.N,D+*%
X139086862Y-92628120D02*
X138602754Y-92144012D01*
X137939010Y-91480268D02*
X139086862Y-92628120D01*
X137939010Y-84853010D02*
X137939010Y-91480268D01*
X131826000Y-78740000D02*
X137939010Y-84853010D01*
D18*
%TO.N,UGND*%
X138521177Y-93017045D02*
X137414000Y-91909868D01*
X138521177Y-93193806D02*
X138521177Y-93017045D01*
X137414000Y-86868000D02*
X131826000Y-81280000D01*
X137414000Y-91909868D02*
X137414000Y-86868000D01*
D17*
%TO.N,UCAP*%
X136455990Y-88449990D02*
X131826000Y-83820000D01*
X136455990Y-92259990D02*
X136455990Y-88449990D01*
X137955491Y-93759491D02*
X136455990Y-92259990D01*
%TO.N,VBUS*%
X137389806Y-94325177D02*
X137389806Y-94042350D01*
D18*
X134795000Y-89329000D02*
X131826000Y-86360000D01*
X134795000Y-91765710D02*
X134795000Y-89329000D01*
X137354467Y-94325177D02*
X134795000Y-91765710D01*
X137389806Y-94325177D02*
X137354467Y-94325177D01*
D17*
%TO.N,PB0*%
X134169990Y-91243990D02*
X131826000Y-88900000D01*
X134169990Y-92236732D02*
X134169990Y-91243990D01*
X136824120Y-94890862D02*
X134169990Y-92236732D01*
%TO.N,PB1*%
X136229609Y-95456548D02*
X132210062Y-91437001D01*
X136512435Y-95456548D02*
X136229609Y-95456548D01*
%TO.N,PB2*%
X135946750Y-96022233D02*
X133901518Y-93977001D01*
X131828999Y-93977001D02*
X131826000Y-93980000D01*
X133901518Y-93977001D02*
X131828999Y-93977001D01*
%TO.N,PB3*%
X131893918Y-96587918D02*
X131826000Y-96520000D01*
X135127064Y-96587918D02*
X131893918Y-96587918D01*
%TO.N,PB7*%
X131893918Y-98992082D02*
X131826000Y-99060000D01*
X135127064Y-98992082D02*
X131893918Y-98992082D01*
%TO.N,RESET*%
X135946750Y-99557767D02*
X135462641Y-100041876D01*
X133384124Y-100041876D02*
X131826000Y-101600000D01*
X135208641Y-100041876D02*
X133384124Y-100041876D01*
X135692750Y-99557767D02*
X135208641Y-100041876D01*
D18*
%TO.N,VCC*%
X152078082Y-96587918D02*
X152146000Y-96520000D01*
X148844936Y-96587918D02*
X152078082Y-96587918D01*
X132241887Y-104140000D02*
X131826000Y-104140000D01*
X136258435Y-100123452D02*
X132241887Y-104140000D01*
X136350548Y-100123452D02*
X137668000Y-98806000D01*
X136258435Y-100123452D02*
X136350548Y-100123452D01*
X146626854Y-98806000D02*
X148844936Y-96587918D01*
X143256000Y-98806000D02*
X146626854Y-98806000D01*
D17*
%TO.N,GND*%
X140796000Y-112736000D02*
X140716000Y-112736000D01*
X143256000Y-110276000D02*
X140796000Y-112736000D01*
D18*
X148279250Y-96022233D02*
X148325767Y-96022233D01*
X150368000Y-93980000D02*
X152146000Y-93980000D01*
X148325767Y-96022233D02*
X150368000Y-93980000D01*
X143188082Y-110208082D02*
X143256000Y-110276000D01*
X143188082Y-104648936D02*
X143188082Y-110208082D01*
X134348990Y-104157010D02*
X131826000Y-106680000D01*
X134348990Y-103164268D02*
X134348990Y-104157010D01*
X136824120Y-100689138D02*
X134348990Y-103164268D01*
X138669175Y-100130029D02*
X143188082Y-104648936D01*
X137383229Y-100130029D02*
X138669175Y-100130029D01*
X136824120Y-100689138D02*
X137383229Y-100130029D01*
X147543381Y-96758102D02*
X148279250Y-96022233D01*
X147388759Y-96758102D02*
X147543381Y-96758102D01*
X143194658Y-92564001D02*
X147388759Y-96758102D01*
X143194658Y-92055859D02*
X143194658Y-92564001D01*
X143753767Y-91496750D02*
X143194658Y-92055859D01*
X144312876Y-81493124D02*
X152146000Y-73660000D01*
X144312876Y-90760880D02*
X144312876Y-81493124D01*
X143753767Y-91319989D02*
X144312876Y-90760880D01*
X143753767Y-91496750D02*
X143753767Y-91319989D01*
X152146000Y-124166000D02*
X152146000Y-124460000D01*
X140716000Y-112736000D02*
X152146000Y-124166000D01*
D17*
%TO.N,XTAL2*%
X131826000Y-109220000D02*
X131730002Y-109220000D01*
X134874000Y-106172000D02*
X131826000Y-109220000D01*
X134874000Y-103770629D02*
X134874000Y-106172000D01*
X137389806Y-101254823D02*
X134874000Y-103770629D01*
X139590999Y-120086999D02*
X139590999Y-111361001D01*
X139590999Y-111361001D02*
X140716000Y-110236000D01*
X141986000Y-122482000D02*
X139590999Y-120086999D01*
%TO.N,XTAL1*%
X131778001Y-111757001D02*
X131682003Y-111757001D01*
X135324010Y-104705990D02*
X135324010Y-108258991D01*
X138209491Y-101820509D02*
X135324010Y-104705990D01*
X135324010Y-108258991D02*
X131826000Y-111757001D01*
%TO.N,PD0*%
X135774019Y-110351981D02*
X131826000Y-114300000D01*
X135774019Y-105387352D02*
X135774019Y-110351981D01*
X138775177Y-102386194D02*
X135774019Y-105387352D01*
%TO.N,PD1*%
X136398000Y-112268000D02*
X131826000Y-116840000D01*
X136398000Y-105894742D02*
X136398000Y-112268000D01*
X139340862Y-102951880D02*
X136398000Y-105894742D01*
%TO.N,PD2*%
X139906548Y-103517565D02*
X139422439Y-104001674D01*
X137160000Y-114046000D02*
X131826000Y-119380000D01*
X137160000Y-106010113D02*
X137160000Y-106680000D01*
X139652548Y-103517565D02*
X137160000Y-106010113D01*
X137160000Y-106680000D02*
X137160000Y-114046000D01*
X137160000Y-106426000D02*
X137160000Y-106680000D01*
%TO.N,PD3*%
X131826000Y-121920000D02*
X137922000Y-115824000D01*
X137922000Y-114300000D02*
X137922000Y-114458002D01*
X137922000Y-106379483D02*
X137922000Y-114808000D01*
X140218233Y-104083250D02*
X137922000Y-106379483D01*
X137922000Y-114808000D02*
X137922000Y-114300000D01*
X137922000Y-115824000D02*
X137922000Y-114808000D01*
%TO.N,PD5*%
X138574999Y-117711001D02*
X131826000Y-124460000D01*
X138574999Y-106857855D02*
X138574999Y-117711001D01*
X140783918Y-104648936D02*
X138574999Y-106857855D01*
D18*
%TO.N,AVCC*%
X143188082Y-80077918D02*
X143188082Y-90931064D01*
X152146000Y-71120000D02*
X143188082Y-80077918D01*
X143753767Y-104083250D02*
X144762990Y-105092473D01*
X144762990Y-114536990D02*
X152146000Y-121920000D01*
X144762990Y-105092473D02*
X144762990Y-114536990D01*
X143188082Y-90931064D02*
X143188082Y-90999918D01*
X140716000Y-101045483D02*
X143753767Y-104083250D01*
X140716000Y-93472000D02*
X140716000Y-101045483D01*
X143188082Y-90999918D02*
X140716000Y-93472000D01*
D17*
%TO.N,PD4*%
X144319452Y-103517565D02*
X145288000Y-104486113D01*
X145288000Y-112522000D02*
X152146000Y-119380000D01*
X145288000Y-104486113D02*
X145288000Y-112522000D01*
%TO.N,PD6*%
X144885138Y-102951880D02*
X145796000Y-103862742D01*
X145796000Y-110490000D02*
X152146000Y-116840000D01*
X145796000Y-103862742D02*
X145796000Y-110490000D01*
%TO.N,PD7*%
X145450823Y-102386194D02*
X146812000Y-103747371D01*
X146812000Y-108966000D02*
X152146000Y-114300000D01*
X146812000Y-103747371D02*
X146812000Y-108966000D01*
%TO.N,PB4*%
X146016509Y-101820509D02*
X147574000Y-103378000D01*
X147574000Y-107188000D02*
X152146000Y-111760000D01*
X147574000Y-103378000D02*
X147574000Y-107188000D01*
%TO.N,PB5*%
X152146000Y-108419002D02*
X148590000Y-104863002D01*
X152146000Y-109220000D02*
X152146000Y-108419002D01*
X148590000Y-103262629D02*
X146582194Y-101254823D01*
X148590000Y-104863002D02*
X148590000Y-103262629D01*
%TO.N,PB6*%
X152146000Y-106680000D02*
X149606000Y-104140000D01*
X149606000Y-103147258D02*
X147147880Y-100689138D01*
X149606000Y-104140000D02*
X149606000Y-103147258D01*
%TO.N,PC7*%
X150321483Y-101600000D02*
X148279250Y-99557767D01*
X152146000Y-101600000D02*
X150321483Y-101600000D01*
%TO.N,PE2*%
X152078082Y-98992082D02*
X152146000Y-99060000D01*
X149098936Y-98992082D02*
X152078082Y-98992082D01*
%TO.N,PF7*%
X151984113Y-91440000D02*
X152146000Y-91440000D01*
X151730113Y-91440000D02*
X152146000Y-91440000D01*
X147713565Y-95456548D02*
X151730113Y-91440000D01*
%TO.N,PF6*%
X147631988Y-93414012D02*
X152146000Y-88900000D01*
X147631988Y-94406754D02*
X147631988Y-93414012D01*
X147147880Y-94890862D02*
X147631988Y-94406754D01*
%TO.N,PF5*%
X146836194Y-94325177D02*
X146836194Y-94042350D01*
X146582194Y-94325177D02*
X146582194Y-94084216D01*
X147181979Y-91324021D02*
X152146000Y-86360000D01*
X147181979Y-93864021D02*
X147181979Y-91324021D01*
X146720823Y-94325177D02*
X147181979Y-93864021D01*
X146582194Y-94325177D02*
X146720823Y-94325177D01*
%TO.N,PF4*%
X146500617Y-93275383D02*
X146500617Y-89465383D01*
X146500617Y-89465383D02*
X146939000Y-89027000D01*
X146016509Y-93759491D02*
X146500617Y-93275383D01*
X146939000Y-89027000D02*
X152146000Y-83820000D01*
X146870294Y-89095706D02*
X146939000Y-89027000D01*
%TO.N,PF1*%
X146050607Y-92594022D02*
X146050607Y-87375393D01*
X146050607Y-87375393D02*
X146304000Y-87122000D01*
X145450823Y-93193806D02*
X146050607Y-92594022D01*
X146304000Y-87122000D02*
X152146000Y-81280000D01*
X146188932Y-87237068D02*
X146304000Y-87122000D01*
%TO.N,PF0*%
X145600597Y-91912661D02*
X144885138Y-92628120D01*
X145600597Y-85285403D02*
X145600597Y-91912661D01*
X152146000Y-78740000D02*
X145600597Y-85285403D01*
%TO.N,AREF*%
X145150587Y-91231300D02*
X144319452Y-92062435D01*
X145150587Y-83195413D02*
X145150587Y-91231300D01*
X152146000Y-76200000D02*
X145150587Y-83195413D01*
%TO.N,PC6*%
X151730113Y-104140000D02*
X147713565Y-100123452D01*
X152146000Y-104140000D02*
X151730113Y-104140000D01*
%TD*%
M02*
