M48
; DRILL file {KiCad (5.1.7)-1} date 11/07/20 21:13:58
; FORMAT={-:-/ absolute / inch / decimal}
; #@! TF.CreationDate,2020-11-07T21:13:58-05:00
; #@! TF.GenerationSoftware,Kicad,Pcbnew,(5.1.7)-1
FMAT,2
INCH
T1C0.0157
T2C0.0197
T3C0.0315
T4C0.0394
%
G90
G05
T1
X5.19Y-4.4
T2
X5.42Y-3.89
X5.64Y-3.89
T3
X5.64Y-4.3416
X5.64Y-4.44
X5.54Y-4.34
X5.54Y-4.4384
X5.59Y-4.63
X5.59Y-4.8221
T4
X5.99Y-2.8
X5.99Y-2.9
X5.99Y-3.0
X5.99Y-3.1
X5.99Y-3.2
X5.99Y-3.3
X5.99Y-3.4
X5.99Y-3.5
X5.99Y-3.6
X5.99Y-3.7
X5.99Y-3.8
X5.99Y-3.9
X5.99Y-4.0
X5.99Y-4.1
X5.99Y-4.2
X5.99Y-4.3
X5.99Y-4.4
X5.99Y-4.5
X5.99Y-4.6
X5.99Y-4.7
X5.99Y-4.8
X5.99Y-4.9
X5.19Y-2.8
X5.19Y-2.9
X5.19Y-3.0
X5.19Y-3.1
X5.19Y-3.2
X5.19Y-3.3
X5.19Y-3.4
X5.19Y-3.5
X5.19Y-3.6
X5.19Y-3.7
X5.19Y-3.8
X5.19Y-3.9
X5.19Y-4.0
X5.19Y-4.1
X5.19Y-4.2
X5.19Y-4.3
X5.19Y-4.4
X5.19Y-4.5
X5.19Y-4.6
X5.19Y-4.7
X5.19Y-4.8
X5.19Y-4.9
T0
M30
