%TF.GenerationSoftware,KiCad,Pcbnew,(5.1.7)-1*%
%TF.CreationDate,2020-11-07T21:13:55-05:00*%
%TF.ProjectId,ATmega32u4 Breakout,41546d65-6761-4333-9275-342042726561,rev?*%
%TF.SameCoordinates,Original*%
%TF.FileFunction,Soldermask,Top*%
%TF.FilePolarity,Negative*%
%FSLAX46Y46*%
G04 Gerber Fmt 4.6, Leading zero omitted, Abs format (unit mm)*
G04 Created by KiCad (PCBNEW (5.1.7)-1) date 2020-11-07 21:13:55*
%MOMM*%
%LPD*%
G01*
G04 APERTURE LIST*
%ADD10C,1.601600*%
%ADD11O,1.801600X1.801600*%
%ADD12C,1.701600*%
%ADD13C,0.100000*%
G04 APERTURE END LIST*
D10*
%TO.C,Y1*%
X141986000Y-117602000D03*
X141986000Y-122482000D03*
%TD*%
%TO.C,U1*%
G36*
G01*
X140023213Y-90559267D02*
X140412121Y-90170359D01*
G75*
G02*
X140483963Y-90170359I35921J-35921D01*
G01*
X141544623Y-91231019D01*
G75*
G02*
X141544623Y-91302861I-35921J-35921D01*
G01*
X141155715Y-91691769D01*
G75*
G02*
X141083873Y-91691769I-35921J35921D01*
G01*
X140023213Y-90631109D01*
G75*
G02*
X140023213Y-90559267I35921J35921D01*
G01*
G37*
G36*
G01*
X139457528Y-91124953D02*
X139846436Y-90736045D01*
G75*
G02*
X139918278Y-90736045I35921J-35921D01*
G01*
X140978938Y-91796705D01*
G75*
G02*
X140978938Y-91868547I-35921J-35921D01*
G01*
X140590030Y-92257455D01*
G75*
G02*
X140518188Y-92257455I-35921J35921D01*
G01*
X139457528Y-91196795D01*
G75*
G02*
X139457528Y-91124953I35921J35921D01*
G01*
G37*
G36*
G01*
X138891843Y-91690638D02*
X139280751Y-91301730D01*
G75*
G02*
X139352593Y-91301730I35921J-35921D01*
G01*
X140413253Y-92362390D01*
G75*
G02*
X140413253Y-92434232I-35921J-35921D01*
G01*
X140024345Y-92823140D01*
G75*
G02*
X139952503Y-92823140I-35921J35921D01*
G01*
X138891843Y-91762480D01*
G75*
G02*
X138891843Y-91690638I35921J35921D01*
G01*
G37*
G36*
G01*
X138326157Y-92256323D02*
X138715065Y-91867415D01*
G75*
G02*
X138786907Y-91867415I35921J-35921D01*
G01*
X139847567Y-92928075D01*
G75*
G02*
X139847567Y-92999917I-35921J-35921D01*
G01*
X139458659Y-93388825D01*
G75*
G02*
X139386817Y-93388825I-35921J35921D01*
G01*
X138326157Y-92328165D01*
G75*
G02*
X138326157Y-92256323I35921J35921D01*
G01*
G37*
G36*
G01*
X137760472Y-92822009D02*
X138149380Y-92433101D01*
G75*
G02*
X138221222Y-92433101I35921J-35921D01*
G01*
X139281882Y-93493761D01*
G75*
G02*
X139281882Y-93565603I-35921J-35921D01*
G01*
X138892974Y-93954511D01*
G75*
G02*
X138821132Y-93954511I-35921J35921D01*
G01*
X137760472Y-92893851D01*
G75*
G02*
X137760472Y-92822009I35921J35921D01*
G01*
G37*
G36*
G01*
X137194786Y-93387694D02*
X137583694Y-92998786D01*
G75*
G02*
X137655536Y-92998786I35921J-35921D01*
G01*
X138716196Y-94059446D01*
G75*
G02*
X138716196Y-94131288I-35921J-35921D01*
G01*
X138327288Y-94520196D01*
G75*
G02*
X138255446Y-94520196I-35921J35921D01*
G01*
X137194786Y-93459536D01*
G75*
G02*
X137194786Y-93387694I35921J35921D01*
G01*
G37*
G36*
G01*
X136629101Y-93953380D02*
X137018009Y-93564472D01*
G75*
G02*
X137089851Y-93564472I35921J-35921D01*
G01*
X138150511Y-94625132D01*
G75*
G02*
X138150511Y-94696974I-35921J-35921D01*
G01*
X137761603Y-95085882D01*
G75*
G02*
X137689761Y-95085882I-35921J35921D01*
G01*
X136629101Y-94025222D01*
G75*
G02*
X136629101Y-93953380I35921J35921D01*
G01*
G37*
G36*
G01*
X136063415Y-94519065D02*
X136452323Y-94130157D01*
G75*
G02*
X136524165Y-94130157I35921J-35921D01*
G01*
X137584825Y-95190817D01*
G75*
G02*
X137584825Y-95262659I-35921J-35921D01*
G01*
X137195917Y-95651567D01*
G75*
G02*
X137124075Y-95651567I-35921J35921D01*
G01*
X136063415Y-94590907D01*
G75*
G02*
X136063415Y-94519065I35921J35921D01*
G01*
G37*
G36*
G01*
X135497730Y-95084751D02*
X135886638Y-94695843D01*
G75*
G02*
X135958480Y-94695843I35921J-35921D01*
G01*
X137019140Y-95756503D01*
G75*
G02*
X137019140Y-95828345I-35921J-35921D01*
G01*
X136630232Y-96217253D01*
G75*
G02*
X136558390Y-96217253I-35921J35921D01*
G01*
X135497730Y-95156593D01*
G75*
G02*
X135497730Y-95084751I35921J35921D01*
G01*
G37*
G36*
G01*
X134932045Y-95650436D02*
X135320953Y-95261528D01*
G75*
G02*
X135392795Y-95261528I35921J-35921D01*
G01*
X136453455Y-96322188D01*
G75*
G02*
X136453455Y-96394030I-35921J-35921D01*
G01*
X136064547Y-96782938D01*
G75*
G02*
X135992705Y-96782938I-35921J35921D01*
G01*
X134932045Y-95722278D01*
G75*
G02*
X134932045Y-95650436I35921J35921D01*
G01*
G37*
G36*
G01*
X134366359Y-96216121D02*
X134755267Y-95827213D01*
G75*
G02*
X134827109Y-95827213I35921J-35921D01*
G01*
X135887769Y-96887873D01*
G75*
G02*
X135887769Y-96959715I-35921J-35921D01*
G01*
X135498861Y-97348623D01*
G75*
G02*
X135427019Y-97348623I-35921J35921D01*
G01*
X134366359Y-96287963D01*
G75*
G02*
X134366359Y-96216121I35921J35921D01*
G01*
G37*
G36*
G01*
X134755267Y-99752787D02*
X134366359Y-99363879D01*
G75*
G02*
X134366359Y-99292037I35921J35921D01*
G01*
X135427019Y-98231377D01*
G75*
G02*
X135498861Y-98231377I35921J-35921D01*
G01*
X135887769Y-98620285D01*
G75*
G02*
X135887769Y-98692127I-35921J-35921D01*
G01*
X134827109Y-99752787D01*
G75*
G02*
X134755267Y-99752787I-35921J35921D01*
G01*
G37*
G36*
G01*
X135320953Y-100318472D02*
X134932045Y-99929564D01*
G75*
G02*
X134932045Y-99857722I35921J35921D01*
G01*
X135992705Y-98797062D01*
G75*
G02*
X136064547Y-98797062I35921J-35921D01*
G01*
X136453455Y-99185970D01*
G75*
G02*
X136453455Y-99257812I-35921J-35921D01*
G01*
X135392795Y-100318472D01*
G75*
G02*
X135320953Y-100318472I-35921J35921D01*
G01*
G37*
G36*
G01*
X135886638Y-100884157D02*
X135497730Y-100495249D01*
G75*
G02*
X135497730Y-100423407I35921J35921D01*
G01*
X136558390Y-99362747D01*
G75*
G02*
X136630232Y-99362747I35921J-35921D01*
G01*
X137019140Y-99751655D01*
G75*
G02*
X137019140Y-99823497I-35921J-35921D01*
G01*
X135958480Y-100884157D01*
G75*
G02*
X135886638Y-100884157I-35921J35921D01*
G01*
G37*
G36*
G01*
X136452323Y-101449843D02*
X136063415Y-101060935D01*
G75*
G02*
X136063415Y-100989093I35921J35921D01*
G01*
X137124075Y-99928433D01*
G75*
G02*
X137195917Y-99928433I35921J-35921D01*
G01*
X137584825Y-100317341D01*
G75*
G02*
X137584825Y-100389183I-35921J-35921D01*
G01*
X136524165Y-101449843D01*
G75*
G02*
X136452323Y-101449843I-35921J35921D01*
G01*
G37*
G36*
G01*
X137018009Y-102015528D02*
X136629101Y-101626620D01*
G75*
G02*
X136629101Y-101554778I35921J35921D01*
G01*
X137689761Y-100494118D01*
G75*
G02*
X137761603Y-100494118I35921J-35921D01*
G01*
X138150511Y-100883026D01*
G75*
G02*
X138150511Y-100954868I-35921J-35921D01*
G01*
X137089851Y-102015528D01*
G75*
G02*
X137018009Y-102015528I-35921J35921D01*
G01*
G37*
G36*
G01*
X137583694Y-102581214D02*
X137194786Y-102192306D01*
G75*
G02*
X137194786Y-102120464I35921J35921D01*
G01*
X138255446Y-101059804D01*
G75*
G02*
X138327288Y-101059804I35921J-35921D01*
G01*
X138716196Y-101448712D01*
G75*
G02*
X138716196Y-101520554I-35921J-35921D01*
G01*
X137655536Y-102581214D01*
G75*
G02*
X137583694Y-102581214I-35921J35921D01*
G01*
G37*
G36*
G01*
X138149380Y-103146899D02*
X137760472Y-102757991D01*
G75*
G02*
X137760472Y-102686149I35921J35921D01*
G01*
X138821132Y-101625489D01*
G75*
G02*
X138892974Y-101625489I35921J-35921D01*
G01*
X139281882Y-102014397D01*
G75*
G02*
X139281882Y-102086239I-35921J-35921D01*
G01*
X138221222Y-103146899D01*
G75*
G02*
X138149380Y-103146899I-35921J35921D01*
G01*
G37*
G36*
G01*
X138715065Y-103712585D02*
X138326157Y-103323677D01*
G75*
G02*
X138326157Y-103251835I35921J35921D01*
G01*
X139386817Y-102191175D01*
G75*
G02*
X139458659Y-102191175I35921J-35921D01*
G01*
X139847567Y-102580083D01*
G75*
G02*
X139847567Y-102651925I-35921J-35921D01*
G01*
X138786907Y-103712585D01*
G75*
G02*
X138715065Y-103712585I-35921J35921D01*
G01*
G37*
G36*
G01*
X139280751Y-104278270D02*
X138891843Y-103889362D01*
G75*
G02*
X138891843Y-103817520I35921J35921D01*
G01*
X139952503Y-102756860D01*
G75*
G02*
X140024345Y-102756860I35921J-35921D01*
G01*
X140413253Y-103145768D01*
G75*
G02*
X140413253Y-103217610I-35921J-35921D01*
G01*
X139352593Y-104278270D01*
G75*
G02*
X139280751Y-104278270I-35921J35921D01*
G01*
G37*
G36*
G01*
X139846436Y-104843955D02*
X139457528Y-104455047D01*
G75*
G02*
X139457528Y-104383205I35921J35921D01*
G01*
X140518188Y-103322545D01*
G75*
G02*
X140590030Y-103322545I35921J-35921D01*
G01*
X140978938Y-103711453D01*
G75*
G02*
X140978938Y-103783295I-35921J-35921D01*
G01*
X139918278Y-104843955D01*
G75*
G02*
X139846436Y-104843955I-35921J35921D01*
G01*
G37*
G36*
G01*
X140412121Y-105409641D02*
X140023213Y-105020733D01*
G75*
G02*
X140023213Y-104948891I35921J35921D01*
G01*
X141083873Y-103888231D01*
G75*
G02*
X141155715Y-103888231I35921J-35921D01*
G01*
X141544623Y-104277139D01*
G75*
G02*
X141544623Y-104348981I-35921J-35921D01*
G01*
X140483963Y-105409641D01*
G75*
G02*
X140412121Y-105409641I-35921J35921D01*
G01*
G37*
G36*
G01*
X142427377Y-104277139D02*
X142816285Y-103888231D01*
G75*
G02*
X142888127Y-103888231I35921J-35921D01*
G01*
X143948787Y-104948891D01*
G75*
G02*
X143948787Y-105020733I-35921J-35921D01*
G01*
X143559879Y-105409641D01*
G75*
G02*
X143488037Y-105409641I-35921J35921D01*
G01*
X142427377Y-104348981D01*
G75*
G02*
X142427377Y-104277139I35921J35921D01*
G01*
G37*
G36*
G01*
X142993062Y-103711453D02*
X143381970Y-103322545D01*
G75*
G02*
X143453812Y-103322545I35921J-35921D01*
G01*
X144514472Y-104383205D01*
G75*
G02*
X144514472Y-104455047I-35921J-35921D01*
G01*
X144125564Y-104843955D01*
G75*
G02*
X144053722Y-104843955I-35921J35921D01*
G01*
X142993062Y-103783295D01*
G75*
G02*
X142993062Y-103711453I35921J35921D01*
G01*
G37*
G36*
G01*
X143558747Y-103145768D02*
X143947655Y-102756860D01*
G75*
G02*
X144019497Y-102756860I35921J-35921D01*
G01*
X145080157Y-103817520D01*
G75*
G02*
X145080157Y-103889362I-35921J-35921D01*
G01*
X144691249Y-104278270D01*
G75*
G02*
X144619407Y-104278270I-35921J35921D01*
G01*
X143558747Y-103217610D01*
G75*
G02*
X143558747Y-103145768I35921J35921D01*
G01*
G37*
G36*
G01*
X144124433Y-102580083D02*
X144513341Y-102191175D01*
G75*
G02*
X144585183Y-102191175I35921J-35921D01*
G01*
X145645843Y-103251835D01*
G75*
G02*
X145645843Y-103323677I-35921J-35921D01*
G01*
X145256935Y-103712585D01*
G75*
G02*
X145185093Y-103712585I-35921J35921D01*
G01*
X144124433Y-102651925D01*
G75*
G02*
X144124433Y-102580083I35921J35921D01*
G01*
G37*
G36*
G01*
X144690118Y-102014397D02*
X145079026Y-101625489D01*
G75*
G02*
X145150868Y-101625489I35921J-35921D01*
G01*
X146211528Y-102686149D01*
G75*
G02*
X146211528Y-102757991I-35921J-35921D01*
G01*
X145822620Y-103146899D01*
G75*
G02*
X145750778Y-103146899I-35921J35921D01*
G01*
X144690118Y-102086239D01*
G75*
G02*
X144690118Y-102014397I35921J35921D01*
G01*
G37*
G36*
G01*
X145255804Y-101448712D02*
X145644712Y-101059804D01*
G75*
G02*
X145716554Y-101059804I35921J-35921D01*
G01*
X146777214Y-102120464D01*
G75*
G02*
X146777214Y-102192306I-35921J-35921D01*
G01*
X146388306Y-102581214D01*
G75*
G02*
X146316464Y-102581214I-35921J35921D01*
G01*
X145255804Y-101520554D01*
G75*
G02*
X145255804Y-101448712I35921J35921D01*
G01*
G37*
G36*
G01*
X145821489Y-100883026D02*
X146210397Y-100494118D01*
G75*
G02*
X146282239Y-100494118I35921J-35921D01*
G01*
X147342899Y-101554778D01*
G75*
G02*
X147342899Y-101626620I-35921J-35921D01*
G01*
X146953991Y-102015528D01*
G75*
G02*
X146882149Y-102015528I-35921J35921D01*
G01*
X145821489Y-100954868D01*
G75*
G02*
X145821489Y-100883026I35921J35921D01*
G01*
G37*
G36*
G01*
X146387175Y-100317341D02*
X146776083Y-99928433D01*
G75*
G02*
X146847925Y-99928433I35921J-35921D01*
G01*
X147908585Y-100989093D01*
G75*
G02*
X147908585Y-101060935I-35921J-35921D01*
G01*
X147519677Y-101449843D01*
G75*
G02*
X147447835Y-101449843I-35921J35921D01*
G01*
X146387175Y-100389183D01*
G75*
G02*
X146387175Y-100317341I35921J35921D01*
G01*
G37*
G36*
G01*
X146952860Y-99751655D02*
X147341768Y-99362747D01*
G75*
G02*
X147413610Y-99362747I35921J-35921D01*
G01*
X148474270Y-100423407D01*
G75*
G02*
X148474270Y-100495249I-35921J-35921D01*
G01*
X148085362Y-100884157D01*
G75*
G02*
X148013520Y-100884157I-35921J35921D01*
G01*
X146952860Y-99823497D01*
G75*
G02*
X146952860Y-99751655I35921J35921D01*
G01*
G37*
G36*
G01*
X147518545Y-99185970D02*
X147907453Y-98797062D01*
G75*
G02*
X147979295Y-98797062I35921J-35921D01*
G01*
X149039955Y-99857722D01*
G75*
G02*
X149039955Y-99929564I-35921J-35921D01*
G01*
X148651047Y-100318472D01*
G75*
G02*
X148579205Y-100318472I-35921J35921D01*
G01*
X147518545Y-99257812D01*
G75*
G02*
X147518545Y-99185970I35921J35921D01*
G01*
G37*
G36*
G01*
X148084231Y-98620285D02*
X148473139Y-98231377D01*
G75*
G02*
X148544981Y-98231377I35921J-35921D01*
G01*
X149605641Y-99292037D01*
G75*
G02*
X149605641Y-99363879I-35921J-35921D01*
G01*
X149216733Y-99752787D01*
G75*
G02*
X149144891Y-99752787I-35921J35921D01*
G01*
X148084231Y-98692127D01*
G75*
G02*
X148084231Y-98620285I35921J35921D01*
G01*
G37*
G36*
G01*
X148473139Y-97348623D02*
X148084231Y-96959715D01*
G75*
G02*
X148084231Y-96887873I35921J35921D01*
G01*
X149144891Y-95827213D01*
G75*
G02*
X149216733Y-95827213I35921J-35921D01*
G01*
X149605641Y-96216121D01*
G75*
G02*
X149605641Y-96287963I-35921J-35921D01*
G01*
X148544981Y-97348623D01*
G75*
G02*
X148473139Y-97348623I-35921J35921D01*
G01*
G37*
G36*
G01*
X147907453Y-96782938D02*
X147518545Y-96394030D01*
G75*
G02*
X147518545Y-96322188I35921J35921D01*
G01*
X148579205Y-95261528D01*
G75*
G02*
X148651047Y-95261528I35921J-35921D01*
G01*
X149039955Y-95650436D01*
G75*
G02*
X149039955Y-95722278I-35921J-35921D01*
G01*
X147979295Y-96782938D01*
G75*
G02*
X147907453Y-96782938I-35921J35921D01*
G01*
G37*
G36*
G01*
X147341768Y-96217253D02*
X146952860Y-95828345D01*
G75*
G02*
X146952860Y-95756503I35921J35921D01*
G01*
X148013520Y-94695843D01*
G75*
G02*
X148085362Y-94695843I35921J-35921D01*
G01*
X148474270Y-95084751D01*
G75*
G02*
X148474270Y-95156593I-35921J-35921D01*
G01*
X147413610Y-96217253D01*
G75*
G02*
X147341768Y-96217253I-35921J35921D01*
G01*
G37*
G36*
G01*
X146776083Y-95651567D02*
X146387175Y-95262659D01*
G75*
G02*
X146387175Y-95190817I35921J35921D01*
G01*
X147447835Y-94130157D01*
G75*
G02*
X147519677Y-94130157I35921J-35921D01*
G01*
X147908585Y-94519065D01*
G75*
G02*
X147908585Y-94590907I-35921J-35921D01*
G01*
X146847925Y-95651567D01*
G75*
G02*
X146776083Y-95651567I-35921J35921D01*
G01*
G37*
G36*
G01*
X146210397Y-95085882D02*
X145821489Y-94696974D01*
G75*
G02*
X145821489Y-94625132I35921J35921D01*
G01*
X146882149Y-93564472D01*
G75*
G02*
X146953991Y-93564472I35921J-35921D01*
G01*
X147342899Y-93953380D01*
G75*
G02*
X147342899Y-94025222I-35921J-35921D01*
G01*
X146282239Y-95085882D01*
G75*
G02*
X146210397Y-95085882I-35921J35921D01*
G01*
G37*
G36*
G01*
X145644712Y-94520196D02*
X145255804Y-94131288D01*
G75*
G02*
X145255804Y-94059446I35921J35921D01*
G01*
X146316464Y-92998786D01*
G75*
G02*
X146388306Y-92998786I35921J-35921D01*
G01*
X146777214Y-93387694D01*
G75*
G02*
X146777214Y-93459536I-35921J-35921D01*
G01*
X145716554Y-94520196D01*
G75*
G02*
X145644712Y-94520196I-35921J35921D01*
G01*
G37*
G36*
G01*
X145079026Y-93954511D02*
X144690118Y-93565603D01*
G75*
G02*
X144690118Y-93493761I35921J35921D01*
G01*
X145750778Y-92433101D01*
G75*
G02*
X145822620Y-92433101I35921J-35921D01*
G01*
X146211528Y-92822009D01*
G75*
G02*
X146211528Y-92893851I-35921J-35921D01*
G01*
X145150868Y-93954511D01*
G75*
G02*
X145079026Y-93954511I-35921J35921D01*
G01*
G37*
G36*
G01*
X144513341Y-93388825D02*
X144124433Y-92999917D01*
G75*
G02*
X144124433Y-92928075I35921J35921D01*
G01*
X145185093Y-91867415D01*
G75*
G02*
X145256935Y-91867415I35921J-35921D01*
G01*
X145645843Y-92256323D01*
G75*
G02*
X145645843Y-92328165I-35921J-35921D01*
G01*
X144585183Y-93388825D01*
G75*
G02*
X144513341Y-93388825I-35921J35921D01*
G01*
G37*
G36*
G01*
X143947655Y-92823140D02*
X143558747Y-92434232D01*
G75*
G02*
X143558747Y-92362390I35921J35921D01*
G01*
X144619407Y-91301730D01*
G75*
G02*
X144691249Y-91301730I35921J-35921D01*
G01*
X145080157Y-91690638D01*
G75*
G02*
X145080157Y-91762480I-35921J-35921D01*
G01*
X144019497Y-92823140D01*
G75*
G02*
X143947655Y-92823140I-35921J35921D01*
G01*
G37*
G36*
G01*
X143381970Y-92257455D02*
X142993062Y-91868547D01*
G75*
G02*
X142993062Y-91796705I35921J35921D01*
G01*
X144053722Y-90736045D01*
G75*
G02*
X144125564Y-90736045I35921J-35921D01*
G01*
X144514472Y-91124953D01*
G75*
G02*
X144514472Y-91196795I-35921J-35921D01*
G01*
X143453812Y-92257455D01*
G75*
G02*
X143381970Y-92257455I-35921J35921D01*
G01*
G37*
G36*
G01*
X142816285Y-91691769D02*
X142427377Y-91302861D01*
G75*
G02*
X142427377Y-91231019I35921J35921D01*
G01*
X143488037Y-90170359D01*
G75*
G02*
X143559879Y-90170359I35921J-35921D01*
G01*
X143948787Y-90559267D01*
G75*
G02*
X143948787Y-90631109I-35921J-35921D01*
G01*
X142888127Y-91691769D01*
G75*
G02*
X142816285Y-91691769I-35921J35921D01*
G01*
G37*
%TD*%
%TO.C,J1*%
G36*
G01*
X130925200Y-71970000D02*
X130925200Y-70270000D01*
G75*
G02*
X130976000Y-70219200I50800J0D01*
G01*
X132676000Y-70219200D01*
G75*
G02*
X132726800Y-70270000I0J-50800D01*
G01*
X132726800Y-71970000D01*
G75*
G02*
X132676000Y-72020800I-50800J0D01*
G01*
X130976000Y-72020800D01*
G75*
G02*
X130925200Y-71970000I0J50800D01*
G01*
G37*
D11*
X131826000Y-73660000D03*
X131826000Y-76200000D03*
X131826000Y-78740000D03*
X131826000Y-81280000D03*
X131826000Y-83820000D03*
X131826000Y-86360000D03*
X131826000Y-88900000D03*
X131826000Y-91440000D03*
X131826000Y-93980000D03*
X131826000Y-96520000D03*
X131826000Y-99060000D03*
X131826000Y-101600000D03*
X131826000Y-104140000D03*
X131826000Y-106680000D03*
X131826000Y-109220000D03*
X131826000Y-111760000D03*
X131826000Y-114300000D03*
X131826000Y-116840000D03*
X131826000Y-119380000D03*
X131826000Y-121920000D03*
X131826000Y-124460000D03*
%TD*%
%TO.C,J2*%
X152146000Y-124460000D03*
X152146000Y-121920000D03*
X152146000Y-119380000D03*
X152146000Y-116840000D03*
X152146000Y-114300000D03*
X152146000Y-111760000D03*
X152146000Y-109220000D03*
X152146000Y-106680000D03*
X152146000Y-104140000D03*
X152146000Y-101600000D03*
X152146000Y-99060000D03*
X152146000Y-96520000D03*
X152146000Y-93980000D03*
X152146000Y-91440000D03*
X152146000Y-88900000D03*
X152146000Y-86360000D03*
X152146000Y-83820000D03*
X152146000Y-81280000D03*
X152146000Y-78740000D03*
X152146000Y-76200000D03*
X152146000Y-73660000D03*
G36*
G01*
X151245200Y-71970000D02*
X151245200Y-70270000D01*
G75*
G02*
X151296000Y-70219200I50800J0D01*
G01*
X152996000Y-70219200D01*
G75*
G02*
X153046800Y-70270000I0J-50800D01*
G01*
X153046800Y-71970000D01*
G75*
G02*
X152996000Y-72020800I-50800J0D01*
G01*
X151296000Y-72020800D01*
G75*
G02*
X151245200Y-71970000I0J50800D01*
G01*
G37*
%TD*%
D12*
%TO.C,C2*%
X143256000Y-112776000D03*
X143256000Y-110276000D03*
%TD*%
%TO.C,C1*%
X140716000Y-112736000D03*
X140716000Y-110236000D03*
%TD*%
D13*
G36*
X142853620Y-103850895D02*
G01*
X143986123Y-104983398D01*
X143986641Y-104985330D01*
X143986123Y-104986226D01*
X143525372Y-105446977D01*
X143523440Y-105447495D01*
X143522544Y-105446977D01*
X142390041Y-104314474D01*
X142389662Y-104313060D01*
X142394284Y-104313060D01*
X143523958Y-105442734D01*
X143981880Y-104984812D01*
X142852206Y-103855138D01*
X142394284Y-104313060D01*
X142389662Y-104313060D01*
X142389523Y-104312542D01*
X142390041Y-104311646D01*
X142850792Y-103850895D01*
X142852724Y-103850377D01*
X142853620Y-103850895D01*
G37*
G36*
X141121208Y-103850895D02*
G01*
X141581959Y-104311646D01*
X141582477Y-104313578D01*
X141581959Y-104314474D01*
X140449456Y-105446977D01*
X140447524Y-105447495D01*
X140446628Y-105446977D01*
X139985877Y-104986226D01*
X139985498Y-104984812D01*
X139990120Y-104984812D01*
X140448042Y-105442734D01*
X141577716Y-104313060D01*
X141119794Y-103855138D01*
X139990120Y-104984812D01*
X139985498Y-104984812D01*
X139985359Y-104984294D01*
X139985877Y-104983398D01*
X141118380Y-103850895D01*
X141120312Y-103850377D01*
X141121208Y-103850895D01*
G37*
G36*
X143419305Y-103285209D02*
G01*
X144551808Y-104417712D01*
X144552326Y-104419644D01*
X144551808Y-104420540D01*
X144091057Y-104881291D01*
X144089125Y-104881809D01*
X144088229Y-104881291D01*
X142955726Y-103748788D01*
X142955347Y-103747374D01*
X142959969Y-103747374D01*
X144089643Y-104877048D01*
X144547565Y-104419126D01*
X143417891Y-103289452D01*
X142959969Y-103747374D01*
X142955347Y-103747374D01*
X142955208Y-103746856D01*
X142955726Y-103745960D01*
X143416477Y-103285209D01*
X143418409Y-103284691D01*
X143419305Y-103285209D01*
G37*
G36*
X140555523Y-103285209D02*
G01*
X141016274Y-103745960D01*
X141016792Y-103747892D01*
X141016274Y-103748788D01*
X139883771Y-104881291D01*
X139881839Y-104881809D01*
X139880943Y-104881291D01*
X139420192Y-104420540D01*
X139419813Y-104419126D01*
X139424435Y-104419126D01*
X139882357Y-104877048D01*
X141012031Y-103747374D01*
X140554109Y-103289452D01*
X139424435Y-104419126D01*
X139419813Y-104419126D01*
X139419674Y-104418608D01*
X139420192Y-104417712D01*
X140552695Y-103285209D01*
X140554627Y-103284691D01*
X140555523Y-103285209D01*
G37*
G36*
X139989838Y-102719524D02*
G01*
X140450589Y-103180275D01*
X140451107Y-103182207D01*
X140450589Y-103183103D01*
X139318086Y-104315606D01*
X139316154Y-104316124D01*
X139315258Y-104315606D01*
X138854507Y-103854855D01*
X138854128Y-103853441D01*
X138858750Y-103853441D01*
X139316672Y-104311363D01*
X140446346Y-103181689D01*
X139988424Y-102723767D01*
X138858750Y-103853441D01*
X138854128Y-103853441D01*
X138853989Y-103852923D01*
X138854507Y-103852027D01*
X139987010Y-102719524D01*
X139988942Y-102719006D01*
X139989838Y-102719524D01*
G37*
G36*
X143984990Y-102719524D02*
G01*
X145117493Y-103852027D01*
X145118011Y-103853959D01*
X145117493Y-103854855D01*
X144656742Y-104315606D01*
X144654810Y-104316124D01*
X144653914Y-104315606D01*
X143521411Y-103183103D01*
X143521032Y-103181689D01*
X143525654Y-103181689D01*
X144655328Y-104311363D01*
X145113250Y-103853441D01*
X143983576Y-102723767D01*
X143525654Y-103181689D01*
X143521032Y-103181689D01*
X143520893Y-103181171D01*
X143521411Y-103180275D01*
X143982162Y-102719524D01*
X143984094Y-102719006D01*
X143984990Y-102719524D01*
G37*
G36*
X139424152Y-102153839D02*
G01*
X139884903Y-102614590D01*
X139885421Y-102616522D01*
X139884903Y-102617418D01*
X138752400Y-103749921D01*
X138750468Y-103750439D01*
X138749572Y-103749921D01*
X138288821Y-103289170D01*
X138288442Y-103287756D01*
X138293064Y-103287756D01*
X138750986Y-103745678D01*
X139880660Y-102616004D01*
X139422738Y-102158082D01*
X138293064Y-103287756D01*
X138288442Y-103287756D01*
X138288303Y-103287238D01*
X138288821Y-103286342D01*
X139421324Y-102153839D01*
X139423256Y-102153321D01*
X139424152Y-102153839D01*
G37*
G36*
X144550676Y-102153839D02*
G01*
X145683179Y-103286342D01*
X145683697Y-103288274D01*
X145683179Y-103289170D01*
X145222428Y-103749921D01*
X145220496Y-103750439D01*
X145219600Y-103749921D01*
X144087097Y-102617418D01*
X144086718Y-102616004D01*
X144091340Y-102616004D01*
X145221014Y-103745678D01*
X145678936Y-103287756D01*
X144549262Y-102158082D01*
X144091340Y-102616004D01*
X144086718Y-102616004D01*
X144086579Y-102615486D01*
X144087097Y-102614590D01*
X144547848Y-102153839D01*
X144549780Y-102153321D01*
X144550676Y-102153839D01*
G37*
G36*
X138858467Y-101588153D02*
G01*
X139319218Y-102048904D01*
X139319736Y-102050836D01*
X139319218Y-102051732D01*
X138186715Y-103184235D01*
X138184783Y-103184753D01*
X138183887Y-103184235D01*
X137723136Y-102723484D01*
X137722757Y-102722070D01*
X137727379Y-102722070D01*
X138185301Y-103179992D01*
X139314975Y-102050318D01*
X138857053Y-101592396D01*
X137727379Y-102722070D01*
X137722757Y-102722070D01*
X137722618Y-102721552D01*
X137723136Y-102720656D01*
X138855639Y-101588153D01*
X138857571Y-101587635D01*
X138858467Y-101588153D01*
G37*
G36*
X145116361Y-101588153D02*
G01*
X146248864Y-102720656D01*
X146249382Y-102722588D01*
X146248864Y-102723484D01*
X145788113Y-103184235D01*
X145786181Y-103184753D01*
X145785285Y-103184235D01*
X144652782Y-102051732D01*
X144652403Y-102050318D01*
X144657025Y-102050318D01*
X145786699Y-103179992D01*
X146244621Y-102722070D01*
X145114947Y-101592396D01*
X144657025Y-102050318D01*
X144652403Y-102050318D01*
X144652264Y-102049800D01*
X144652782Y-102048904D01*
X145113533Y-101588153D01*
X145115465Y-101587635D01*
X145116361Y-101588153D01*
G37*
G36*
X138292781Y-101022468D02*
G01*
X138753532Y-101483219D01*
X138754050Y-101485151D01*
X138753532Y-101486047D01*
X137621029Y-102618550D01*
X137619097Y-102619068D01*
X137618201Y-102618550D01*
X137157450Y-102157799D01*
X137157071Y-102156385D01*
X137161693Y-102156385D01*
X137619615Y-102614307D01*
X138749289Y-101484633D01*
X138291367Y-101026711D01*
X137161693Y-102156385D01*
X137157071Y-102156385D01*
X137156932Y-102155867D01*
X137157450Y-102154971D01*
X138289953Y-101022468D01*
X138291885Y-101021950D01*
X138292781Y-101022468D01*
G37*
G36*
X145682047Y-101022468D02*
G01*
X146814550Y-102154971D01*
X146815068Y-102156903D01*
X146814550Y-102157799D01*
X146353799Y-102618550D01*
X146351867Y-102619068D01*
X146350971Y-102618550D01*
X145218468Y-101486047D01*
X145218089Y-101484633D01*
X145222711Y-101484633D01*
X146352385Y-102614307D01*
X146810307Y-102156385D01*
X145680633Y-101026711D01*
X145222711Y-101484633D01*
X145218089Y-101484633D01*
X145217950Y-101484115D01*
X145218468Y-101483219D01*
X145679219Y-101022468D01*
X145681151Y-101021950D01*
X145682047Y-101022468D01*
G37*
G36*
X137727096Y-100456782D02*
G01*
X138187847Y-100917533D01*
X138188365Y-100919465D01*
X138187847Y-100920361D01*
X137055344Y-102052864D01*
X137053412Y-102053382D01*
X137052516Y-102052864D01*
X136591765Y-101592113D01*
X136591386Y-101590699D01*
X136596008Y-101590699D01*
X137053930Y-102048621D01*
X138183604Y-100918947D01*
X137725682Y-100461025D01*
X136596008Y-101590699D01*
X136591386Y-101590699D01*
X136591247Y-101590181D01*
X136591765Y-101589285D01*
X137724268Y-100456782D01*
X137726200Y-100456264D01*
X137727096Y-100456782D01*
G37*
G36*
X146247732Y-100456782D02*
G01*
X147380235Y-101589285D01*
X147380753Y-101591217D01*
X147380235Y-101592113D01*
X146919484Y-102052864D01*
X146917552Y-102053382D01*
X146916656Y-102052864D01*
X145784153Y-100920361D01*
X145783774Y-100918947D01*
X145788396Y-100918947D01*
X146918070Y-102048621D01*
X147375992Y-101590699D01*
X146246318Y-100461025D01*
X145788396Y-100918947D01*
X145783774Y-100918947D01*
X145783635Y-100918429D01*
X145784153Y-100917533D01*
X146244904Y-100456782D01*
X146246836Y-100456264D01*
X146247732Y-100456782D01*
G37*
G36*
X137161410Y-99891097D02*
G01*
X137622161Y-100351848D01*
X137622679Y-100353780D01*
X137622161Y-100354676D01*
X136489658Y-101487179D01*
X136487726Y-101487697D01*
X136486830Y-101487179D01*
X136026079Y-101026428D01*
X136025700Y-101025014D01*
X136030322Y-101025014D01*
X136488244Y-101482936D01*
X137617918Y-100353262D01*
X137159996Y-99895340D01*
X136030322Y-101025014D01*
X136025700Y-101025014D01*
X136025561Y-101024496D01*
X136026079Y-101023600D01*
X137158582Y-99891097D01*
X137160514Y-99890579D01*
X137161410Y-99891097D01*
G37*
G36*
X146813418Y-99891097D02*
G01*
X147945921Y-101023600D01*
X147946439Y-101025532D01*
X147945921Y-101026428D01*
X147485170Y-101487179D01*
X147483238Y-101487697D01*
X147482342Y-101487179D01*
X146349839Y-100354676D01*
X146349460Y-100353262D01*
X146354082Y-100353262D01*
X147483756Y-101482936D01*
X147941678Y-101025014D01*
X146812004Y-99895340D01*
X146354082Y-100353262D01*
X146349460Y-100353262D01*
X146349321Y-100352744D01*
X146349839Y-100351848D01*
X146810590Y-99891097D01*
X146812522Y-99890579D01*
X146813418Y-99891097D01*
G37*
G36*
X147379103Y-99325411D02*
G01*
X148511606Y-100457914D01*
X148512124Y-100459846D01*
X148511606Y-100460742D01*
X148050855Y-100921493D01*
X148048923Y-100922011D01*
X148048027Y-100921493D01*
X146915524Y-99788990D01*
X146915145Y-99787576D01*
X146919767Y-99787576D01*
X148049441Y-100917250D01*
X148507363Y-100459328D01*
X147377689Y-99329654D01*
X146919767Y-99787576D01*
X146915145Y-99787576D01*
X146915006Y-99787058D01*
X146915524Y-99786162D01*
X147376275Y-99325411D01*
X147378207Y-99324893D01*
X147379103Y-99325411D01*
G37*
G36*
X136595725Y-99325411D02*
G01*
X137056476Y-99786162D01*
X137056994Y-99788094D01*
X137056476Y-99788990D01*
X135923973Y-100921493D01*
X135922041Y-100922011D01*
X135921145Y-100921493D01*
X135460394Y-100460742D01*
X135460015Y-100459328D01*
X135464637Y-100459328D01*
X135922559Y-100917250D01*
X137052233Y-99787576D01*
X136594311Y-99329654D01*
X135464637Y-100459328D01*
X135460015Y-100459328D01*
X135459876Y-100458810D01*
X135460394Y-100457914D01*
X136592897Y-99325411D01*
X136594829Y-99324893D01*
X136595725Y-99325411D01*
G37*
G36*
X136030040Y-98759726D02*
G01*
X136490791Y-99220477D01*
X136491309Y-99222409D01*
X136490791Y-99223305D01*
X135358288Y-100355808D01*
X135356356Y-100356326D01*
X135355460Y-100355808D01*
X134894709Y-99895057D01*
X134894330Y-99893643D01*
X134898952Y-99893643D01*
X135356874Y-100351565D01*
X136486548Y-99221891D01*
X136028626Y-98763969D01*
X134898952Y-99893643D01*
X134894330Y-99893643D01*
X134894191Y-99893125D01*
X134894709Y-99892229D01*
X136027212Y-98759726D01*
X136029144Y-98759208D01*
X136030040Y-98759726D01*
G37*
G36*
X147944788Y-98759726D02*
G01*
X149077291Y-99892229D01*
X149077809Y-99894161D01*
X149077291Y-99895057D01*
X148616540Y-100355808D01*
X148614608Y-100356326D01*
X148613712Y-100355808D01*
X147481209Y-99223305D01*
X147480830Y-99221891D01*
X147485452Y-99221891D01*
X148615126Y-100351565D01*
X149073048Y-99893643D01*
X147943374Y-98763969D01*
X147485452Y-99221891D01*
X147480830Y-99221891D01*
X147480691Y-99221373D01*
X147481209Y-99220477D01*
X147941960Y-98759726D01*
X147943892Y-98759208D01*
X147944788Y-98759726D01*
G37*
G36*
X148510474Y-98194041D02*
G01*
X149642977Y-99326544D01*
X149643495Y-99328476D01*
X149642977Y-99329372D01*
X149182226Y-99790123D01*
X149180294Y-99790641D01*
X149179398Y-99790123D01*
X148046895Y-98657620D01*
X148046516Y-98656206D01*
X148051138Y-98656206D01*
X149180812Y-99785880D01*
X149638734Y-99327958D01*
X148509060Y-98198284D01*
X148051138Y-98656206D01*
X148046516Y-98656206D01*
X148046377Y-98655688D01*
X148046895Y-98654792D01*
X148507646Y-98194041D01*
X148509578Y-98193523D01*
X148510474Y-98194041D01*
G37*
G36*
X135464354Y-98194041D02*
G01*
X135925105Y-98654792D01*
X135925623Y-98656724D01*
X135925105Y-98657620D01*
X134792602Y-99790123D01*
X134790670Y-99790641D01*
X134789774Y-99790123D01*
X134329023Y-99329372D01*
X134328644Y-99327958D01*
X134333266Y-99327958D01*
X134791188Y-99785880D01*
X135920862Y-98656206D01*
X135462940Y-98198284D01*
X134333266Y-99327958D01*
X134328644Y-99327958D01*
X134328505Y-99327440D01*
X134329023Y-99326544D01*
X135461526Y-98194041D01*
X135463458Y-98193523D01*
X135464354Y-98194041D01*
G37*
G36*
X149182226Y-95789877D02*
G01*
X149642977Y-96250628D01*
X149643495Y-96252560D01*
X149642977Y-96253456D01*
X148510474Y-97385959D01*
X148508542Y-97386477D01*
X148507646Y-97385959D01*
X148046895Y-96925208D01*
X148046516Y-96923794D01*
X148051138Y-96923794D01*
X148509060Y-97381716D01*
X149638734Y-96252042D01*
X149180812Y-95794120D01*
X148051138Y-96923794D01*
X148046516Y-96923794D01*
X148046377Y-96923276D01*
X148046895Y-96922380D01*
X149179398Y-95789877D01*
X149181330Y-95789359D01*
X149182226Y-95789877D01*
G37*
G36*
X134792602Y-95789877D02*
G01*
X135925105Y-96922380D01*
X135925623Y-96924312D01*
X135925105Y-96925208D01*
X135464354Y-97385959D01*
X135462422Y-97386477D01*
X135461526Y-97385959D01*
X134329023Y-96253456D01*
X134328644Y-96252042D01*
X134333266Y-96252042D01*
X135462940Y-97381716D01*
X135920862Y-96923794D01*
X134791188Y-95794120D01*
X134333266Y-96252042D01*
X134328644Y-96252042D01*
X134328505Y-96251524D01*
X134329023Y-96250628D01*
X134789774Y-95789877D01*
X134791706Y-95789359D01*
X134792602Y-95789877D01*
G37*
G36*
X135358288Y-95224192D02*
G01*
X136490791Y-96356695D01*
X136491309Y-96358627D01*
X136490791Y-96359523D01*
X136030040Y-96820274D01*
X136028108Y-96820792D01*
X136027212Y-96820274D01*
X134894709Y-95687771D01*
X134894330Y-95686357D01*
X134898952Y-95686357D01*
X136028626Y-96816031D01*
X136486548Y-96358109D01*
X135356874Y-95228435D01*
X134898952Y-95686357D01*
X134894330Y-95686357D01*
X134894191Y-95685839D01*
X134894709Y-95684943D01*
X135355460Y-95224192D01*
X135357392Y-95223674D01*
X135358288Y-95224192D01*
G37*
G36*
X148616540Y-95224192D02*
G01*
X149077291Y-95684943D01*
X149077809Y-95686875D01*
X149077291Y-95687771D01*
X147944788Y-96820274D01*
X147942856Y-96820792D01*
X147941960Y-96820274D01*
X147481209Y-96359523D01*
X147480830Y-96358109D01*
X147485452Y-96358109D01*
X147943374Y-96816031D01*
X149073048Y-95686357D01*
X148615126Y-95228435D01*
X147485452Y-96358109D01*
X147480830Y-96358109D01*
X147480691Y-96357591D01*
X147481209Y-96356695D01*
X148613712Y-95224192D01*
X148615644Y-95223674D01*
X148616540Y-95224192D01*
G37*
G36*
X148050855Y-94658507D02*
G01*
X148511606Y-95119258D01*
X148512124Y-95121190D01*
X148511606Y-95122086D01*
X147379103Y-96254589D01*
X147377171Y-96255107D01*
X147376275Y-96254589D01*
X146915524Y-95793838D01*
X146915145Y-95792424D01*
X146919767Y-95792424D01*
X147377689Y-96250346D01*
X148507363Y-95120672D01*
X148049441Y-94662750D01*
X146919767Y-95792424D01*
X146915145Y-95792424D01*
X146915006Y-95791906D01*
X146915524Y-95791010D01*
X148048027Y-94658507D01*
X148049959Y-94657989D01*
X148050855Y-94658507D01*
G37*
G36*
X135923973Y-94658507D02*
G01*
X137056476Y-95791010D01*
X137056994Y-95792942D01*
X137056476Y-95793838D01*
X136595725Y-96254589D01*
X136593793Y-96255107D01*
X136592897Y-96254589D01*
X135460394Y-95122086D01*
X135460015Y-95120672D01*
X135464637Y-95120672D01*
X136594311Y-96250346D01*
X137052233Y-95792424D01*
X135922559Y-94662750D01*
X135464637Y-95120672D01*
X135460015Y-95120672D01*
X135459876Y-95120154D01*
X135460394Y-95119258D01*
X135921145Y-94658507D01*
X135923077Y-94657989D01*
X135923973Y-94658507D01*
G37*
G36*
X136489658Y-94092821D02*
G01*
X137622161Y-95225324D01*
X137622679Y-95227256D01*
X137622161Y-95228152D01*
X137161410Y-95688903D01*
X137159478Y-95689421D01*
X137158582Y-95688903D01*
X136026079Y-94556400D01*
X136025700Y-94554986D01*
X136030322Y-94554986D01*
X137159996Y-95684660D01*
X137617918Y-95226738D01*
X136488244Y-94097064D01*
X136030322Y-94554986D01*
X136025700Y-94554986D01*
X136025561Y-94554468D01*
X136026079Y-94553572D01*
X136486830Y-94092821D01*
X136488762Y-94092303D01*
X136489658Y-94092821D01*
G37*
G36*
X147485170Y-94092821D02*
G01*
X147945921Y-94553572D01*
X147946439Y-94555504D01*
X147945921Y-94556400D01*
X146813418Y-95688903D01*
X146811486Y-95689421D01*
X146810590Y-95688903D01*
X146349839Y-95228152D01*
X146349460Y-95226738D01*
X146354082Y-95226738D01*
X146812004Y-95684660D01*
X147941678Y-94554986D01*
X147483756Y-94097064D01*
X146354082Y-95226738D01*
X146349460Y-95226738D01*
X146349321Y-95226220D01*
X146349839Y-95225324D01*
X147482342Y-94092821D01*
X147484274Y-94092303D01*
X147485170Y-94092821D01*
G37*
G36*
X137055344Y-93527136D02*
G01*
X138187847Y-94659639D01*
X138188365Y-94661571D01*
X138187847Y-94662467D01*
X137727096Y-95123218D01*
X137725164Y-95123736D01*
X137724268Y-95123218D01*
X136591765Y-93990715D01*
X136591386Y-93989301D01*
X136596008Y-93989301D01*
X137725682Y-95118975D01*
X138183604Y-94661053D01*
X137053930Y-93531379D01*
X136596008Y-93989301D01*
X136591386Y-93989301D01*
X136591247Y-93988783D01*
X136591765Y-93987887D01*
X137052516Y-93527136D01*
X137054448Y-93526618D01*
X137055344Y-93527136D01*
G37*
G36*
X146919484Y-93527136D02*
G01*
X147380235Y-93987887D01*
X147380753Y-93989819D01*
X147380235Y-93990715D01*
X146247732Y-95123218D01*
X146245800Y-95123736D01*
X146244904Y-95123218D01*
X145784153Y-94662467D01*
X145783774Y-94661053D01*
X145788396Y-94661053D01*
X146246318Y-95118975D01*
X147375992Y-93989301D01*
X146918070Y-93531379D01*
X145788396Y-94661053D01*
X145783774Y-94661053D01*
X145783635Y-94660535D01*
X145784153Y-94659639D01*
X146916656Y-93527136D01*
X146918588Y-93526618D01*
X146919484Y-93527136D01*
G37*
G36*
X146353799Y-92961450D02*
G01*
X146814550Y-93422201D01*
X146815068Y-93424133D01*
X146814550Y-93425029D01*
X145682047Y-94557532D01*
X145680115Y-94558050D01*
X145679219Y-94557532D01*
X145218468Y-94096781D01*
X145218089Y-94095367D01*
X145222711Y-94095367D01*
X145680633Y-94553289D01*
X146810307Y-93423615D01*
X146352385Y-92965693D01*
X145222711Y-94095367D01*
X145218089Y-94095367D01*
X145217950Y-94094849D01*
X145218468Y-94093953D01*
X146350971Y-92961450D01*
X146352903Y-92960932D01*
X146353799Y-92961450D01*
G37*
G36*
X137621029Y-92961450D02*
G01*
X138753532Y-94093953D01*
X138754050Y-94095885D01*
X138753532Y-94096781D01*
X138292781Y-94557532D01*
X138290849Y-94558050D01*
X138289953Y-94557532D01*
X137157450Y-93425029D01*
X137157071Y-93423615D01*
X137161693Y-93423615D01*
X138291367Y-94553289D01*
X138749289Y-94095367D01*
X137619615Y-92965693D01*
X137161693Y-93423615D01*
X137157071Y-93423615D01*
X137156932Y-93423097D01*
X137157450Y-93422201D01*
X137618201Y-92961450D01*
X137620133Y-92960932D01*
X137621029Y-92961450D01*
G37*
G36*
X138186715Y-92395765D02*
G01*
X139319218Y-93528268D01*
X139319736Y-93530200D01*
X139319218Y-93531096D01*
X138858467Y-93991847D01*
X138856535Y-93992365D01*
X138855639Y-93991847D01*
X137723136Y-92859344D01*
X137722757Y-92857930D01*
X137727379Y-92857930D01*
X138857053Y-93987604D01*
X139314975Y-93529682D01*
X138185301Y-92400008D01*
X137727379Y-92857930D01*
X137722757Y-92857930D01*
X137722618Y-92857412D01*
X137723136Y-92856516D01*
X138183887Y-92395765D01*
X138185819Y-92395247D01*
X138186715Y-92395765D01*
G37*
G36*
X145788113Y-92395765D02*
G01*
X146248864Y-92856516D01*
X146249382Y-92858448D01*
X146248864Y-92859344D01*
X145116361Y-93991847D01*
X145114429Y-93992365D01*
X145113533Y-93991847D01*
X144652782Y-93531096D01*
X144652403Y-93529682D01*
X144657025Y-93529682D01*
X145114947Y-93987604D01*
X146244621Y-92857930D01*
X145786699Y-92400008D01*
X144657025Y-93529682D01*
X144652403Y-93529682D01*
X144652264Y-93529164D01*
X144652782Y-93528268D01*
X145785285Y-92395765D01*
X145787217Y-92395247D01*
X145788113Y-92395765D01*
G37*
G36*
X138752400Y-91830079D02*
G01*
X139884903Y-92962582D01*
X139885421Y-92964514D01*
X139884903Y-92965410D01*
X139424152Y-93426161D01*
X139422220Y-93426679D01*
X139421324Y-93426161D01*
X138288821Y-92293658D01*
X138288442Y-92292244D01*
X138293064Y-92292244D01*
X139422738Y-93421918D01*
X139880660Y-92963996D01*
X138750986Y-91834322D01*
X138293064Y-92292244D01*
X138288442Y-92292244D01*
X138288303Y-92291726D01*
X138288821Y-92290830D01*
X138749572Y-91830079D01*
X138751504Y-91829561D01*
X138752400Y-91830079D01*
G37*
G36*
X145222428Y-91830079D02*
G01*
X145683179Y-92290830D01*
X145683697Y-92292762D01*
X145683179Y-92293658D01*
X144550676Y-93426161D01*
X144548744Y-93426679D01*
X144547848Y-93426161D01*
X144087097Y-92965410D01*
X144086718Y-92963996D01*
X144091340Y-92963996D01*
X144549262Y-93421918D01*
X145678936Y-92292244D01*
X145221014Y-91834322D01*
X144091340Y-92963996D01*
X144086718Y-92963996D01*
X144086579Y-92963478D01*
X144087097Y-92962582D01*
X145219600Y-91830079D01*
X145221532Y-91829561D01*
X145222428Y-91830079D01*
G37*
G36*
X139318086Y-91264394D02*
G01*
X140450589Y-92396897D01*
X140451107Y-92398829D01*
X140450589Y-92399725D01*
X139989838Y-92860476D01*
X139987906Y-92860994D01*
X139987010Y-92860476D01*
X138854507Y-91727973D01*
X138854128Y-91726559D01*
X138858750Y-91726559D01*
X139988424Y-92856233D01*
X140446346Y-92398311D01*
X139316672Y-91268637D01*
X138858750Y-91726559D01*
X138854128Y-91726559D01*
X138853989Y-91726041D01*
X138854507Y-91725145D01*
X139315258Y-91264394D01*
X139317190Y-91263876D01*
X139318086Y-91264394D01*
G37*
G36*
X144656742Y-91264394D02*
G01*
X145117493Y-91725145D01*
X145118011Y-91727077D01*
X145117493Y-91727973D01*
X143984990Y-92860476D01*
X143983058Y-92860994D01*
X143982162Y-92860476D01*
X143521411Y-92399725D01*
X143521032Y-92398311D01*
X143525654Y-92398311D01*
X143983576Y-92856233D01*
X145113250Y-91726559D01*
X144655328Y-91268637D01*
X143525654Y-92398311D01*
X143521032Y-92398311D01*
X143520893Y-92397793D01*
X143521411Y-92396897D01*
X144653914Y-91264394D01*
X144655846Y-91263876D01*
X144656742Y-91264394D01*
G37*
G36*
X144091057Y-90698709D02*
G01*
X144551808Y-91159460D01*
X144552326Y-91161392D01*
X144551808Y-91162288D01*
X143419305Y-92294791D01*
X143417373Y-92295309D01*
X143416477Y-92294791D01*
X142955726Y-91834040D01*
X142955347Y-91832626D01*
X142959969Y-91832626D01*
X143417891Y-92290548D01*
X144547565Y-91160874D01*
X144089643Y-90702952D01*
X142959969Y-91832626D01*
X142955347Y-91832626D01*
X142955208Y-91832108D01*
X142955726Y-91831212D01*
X144088229Y-90698709D01*
X144090161Y-90698191D01*
X144091057Y-90698709D01*
G37*
G36*
X139883771Y-90698709D02*
G01*
X141016274Y-91831212D01*
X141016792Y-91833144D01*
X141016274Y-91834040D01*
X140555523Y-92294791D01*
X140553591Y-92295309D01*
X140552695Y-92294791D01*
X139420192Y-91162288D01*
X139419813Y-91160874D01*
X139424435Y-91160874D01*
X140554109Y-92290548D01*
X141012031Y-91832626D01*
X139882357Y-90702952D01*
X139424435Y-91160874D01*
X139419813Y-91160874D01*
X139419674Y-91160356D01*
X139420192Y-91159460D01*
X139880943Y-90698709D01*
X139882875Y-90698191D01*
X139883771Y-90698709D01*
G37*
G36*
X140449456Y-90133023D02*
G01*
X141581959Y-91265526D01*
X141582477Y-91267458D01*
X141581959Y-91268354D01*
X141121208Y-91729105D01*
X141119276Y-91729623D01*
X141118380Y-91729105D01*
X139985877Y-90596602D01*
X139985498Y-90595188D01*
X139990120Y-90595188D01*
X141119794Y-91724862D01*
X141577716Y-91266940D01*
X140448042Y-90137266D01*
X139990120Y-90595188D01*
X139985498Y-90595188D01*
X139985359Y-90594670D01*
X139985877Y-90593774D01*
X140446628Y-90133023D01*
X140448560Y-90132505D01*
X140449456Y-90133023D01*
G37*
G36*
X143525372Y-90133023D02*
G01*
X143986123Y-90593774D01*
X143986641Y-90595706D01*
X143986123Y-90596602D01*
X142853620Y-91729105D01*
X142851688Y-91729623D01*
X142850792Y-91729105D01*
X142390041Y-91268354D01*
X142389662Y-91266940D01*
X142394284Y-91266940D01*
X142852206Y-91724862D01*
X143981880Y-90595188D01*
X143523958Y-90137266D01*
X142394284Y-91266940D01*
X142389662Y-91266940D01*
X142389523Y-91266422D01*
X142390041Y-91265526D01*
X143522544Y-90133023D01*
X143524476Y-90132505D01*
X143525372Y-90133023D01*
G37*
M02*
