%TF.GenerationSoftware,KiCad,Pcbnew,(5.1.7)-1*%
%TF.CreationDate,2020-11-07T21:13:55-05:00*%
%TF.ProjectId,ATmega32u4 Breakout,41546d65-6761-4333-9275-342042726561,rev?*%
%TF.SameCoordinates,Original*%
%TF.FileFunction,Legend,Bot*%
%TF.FilePolarity,Positive*%
%FSLAX46Y46*%
G04 Gerber Fmt 4.6, Leading zero omitted, Abs format (unit mm)*
G04 Created by KiCad (PCBNEW (5.1.7)-1) date 2020-11-07 21:13:55*
%MOMM*%
%LPD*%
G01*
G04 APERTURE LIST*
%ADD10C,0.300000*%
G04 APERTURE END LIST*
D10*
X146847142Y-71727142D02*
X146632857Y-71798571D01*
X146275714Y-71798571D01*
X146132857Y-71727142D01*
X146061428Y-71655714D01*
X145990000Y-71512857D01*
X145990000Y-71370000D01*
X146061428Y-71227142D01*
X146132857Y-71155714D01*
X146275714Y-71084285D01*
X146561428Y-71012857D01*
X146704285Y-70941428D01*
X146775714Y-70870000D01*
X146847142Y-70727142D01*
X146847142Y-70584285D01*
X146775714Y-70441428D01*
X146704285Y-70370000D01*
X146561428Y-70298571D01*
X146204285Y-70298571D01*
X145990000Y-70370000D01*
X144490000Y-71798571D02*
X144990000Y-71084285D01*
X145347142Y-71798571D02*
X145347142Y-70298571D01*
X144775714Y-70298571D01*
X144632857Y-70370000D01*
X144561428Y-70441428D01*
X144490000Y-70584285D01*
X144490000Y-70798571D01*
X144561428Y-70941428D01*
X144632857Y-71012857D01*
X144775714Y-71084285D01*
X145347142Y-71084285D01*
X144061428Y-70298571D02*
X143204285Y-70298571D01*
X143632857Y-71798571D02*
X143632857Y-70298571D01*
X142418571Y-70298571D02*
X142275714Y-70298571D01*
X142132857Y-70370000D01*
X142061428Y-70441428D01*
X141990000Y-70584285D01*
X141918571Y-70870000D01*
X141918571Y-71227142D01*
X141990000Y-71512857D01*
X142061428Y-71655714D01*
X142132857Y-71727142D01*
X142275714Y-71798571D01*
X142418571Y-71798571D01*
X142561428Y-71727142D01*
X142632857Y-71655714D01*
X142704285Y-71512857D01*
X142775714Y-71227142D01*
X142775714Y-70870000D01*
X142704285Y-70584285D01*
X142632857Y-70441428D01*
X142561428Y-70370000D01*
X142418571Y-70298571D01*
X140990000Y-70298571D02*
X140847142Y-70298571D01*
X140704285Y-70370000D01*
X140632857Y-70441428D01*
X140561428Y-70584285D01*
X140490000Y-70870000D01*
X140490000Y-71227142D01*
X140561428Y-71512857D01*
X140632857Y-71655714D01*
X140704285Y-71727142D01*
X140847142Y-71798571D01*
X140990000Y-71798571D01*
X141132857Y-71727142D01*
X141204285Y-71655714D01*
X141275714Y-71512857D01*
X141347142Y-71227142D01*
X141347142Y-70870000D01*
X141275714Y-70584285D01*
X141204285Y-70441428D01*
X141132857Y-70370000D01*
X140990000Y-70298571D01*
X139561428Y-70298571D02*
X139418571Y-70298571D01*
X139275714Y-70370000D01*
X139204285Y-70441428D01*
X139132857Y-70584285D01*
X139061428Y-70870000D01*
X139061428Y-71227142D01*
X139132857Y-71512857D01*
X139204285Y-71655714D01*
X139275714Y-71727142D01*
X139418571Y-71798571D01*
X139561428Y-71798571D01*
X139704285Y-71727142D01*
X139775714Y-71655714D01*
X139847142Y-71512857D01*
X139918571Y-71227142D01*
X139918571Y-70870000D01*
X139847142Y-70584285D01*
X139775714Y-70441428D01*
X139704285Y-70370000D01*
X139561428Y-70298571D01*
X137632857Y-71798571D02*
X138490000Y-71798571D01*
X138061428Y-71798571D02*
X138061428Y-70298571D01*
X138204285Y-70512857D01*
X138347142Y-70655714D01*
X138490000Y-70727142D01*
M02*
