%TF.GenerationSoftware,KiCad,Pcbnew,(5.1.7)-1*%
%TF.CreationDate,2020-11-07T21:13:55-05:00*%
%TF.ProjectId,ATmega32u4 Breakout,41546d65-6761-4333-9275-342042726561,rev?*%
%TF.SameCoordinates,Original*%
%TF.FileFunction,Copper,L2,Bot*%
%TF.FilePolarity,Positive*%
%FSLAX46Y46*%
G04 Gerber Fmt 4.6, Leading zero omitted, Abs format (unit mm)*
G04 Created by KiCad (PCBNEW (5.1.7)-1) date 2020-11-07 21:13:55*
%MOMM*%
%LPD*%
G01*
G04 APERTURE LIST*
%TA.AperFunction,ComponentPad*%
%ADD10C,1.500000*%
%TD*%
%TA.AperFunction,ComponentPad*%
%ADD11R,1.700000X1.700000*%
%TD*%
%TA.AperFunction,ComponentPad*%
%ADD12O,1.700000X1.700000*%
%TD*%
%TA.AperFunction,ComponentPad*%
%ADD13C,1.600000*%
%TD*%
%TA.AperFunction,ViaPad*%
%ADD14C,0.700000*%
%TD*%
%TA.AperFunction,ViaPad*%
%ADD15C,0.800000*%
%TD*%
%TA.AperFunction,Conductor*%
%ADD16C,0.400000*%
%TD*%
%TA.AperFunction,Conductor*%
%ADD17C,0.250000*%
%TD*%
%TA.AperFunction,Conductor*%
%ADD18C,0.254000*%
%TD*%
%TA.AperFunction,Conductor*%
%ADD19C,0.100000*%
%TD*%
G04 APERTURE END LIST*
D10*
%TO.P,Y1,1*%
%TO.N,XTAL1*%
X141986000Y-117602000D03*
%TO.P,Y1,2*%
%TO.N,XTAL2*%
X141986000Y-122482000D03*
%TD*%
D11*
%TO.P,J1,1*%
%TO.N,D7*%
X131826000Y-71120000D03*
D12*
%TO.P,J1,2*%
%TO.N,UVCC*%
X131826000Y-73660000D03*
%TO.P,J1,3*%
%TO.N,D-*%
X131826000Y-76200000D03*
%TO.P,J1,4*%
%TO.N,D+*%
X131826000Y-78740000D03*
%TO.P,J1,5*%
%TO.N,UGND*%
X131826000Y-81280000D03*
%TO.P,J1,6*%
%TO.N,UCAP*%
X131826000Y-83820000D03*
%TO.P,J1,7*%
%TO.N,VBUS*%
X131826000Y-86360000D03*
%TO.P,J1,8*%
%TO.N,PB0*%
X131826000Y-88900000D03*
%TO.P,J1,9*%
%TO.N,PB1*%
X131826000Y-91440000D03*
%TO.P,J1,10*%
%TO.N,PB2*%
X131826000Y-93980000D03*
%TO.P,J1,11*%
%TO.N,PB3*%
X131826000Y-96520000D03*
%TO.P,J1,12*%
%TO.N,PB7*%
X131826000Y-99060000D03*
%TO.P,J1,13*%
%TO.N,RESET*%
X131826000Y-101600000D03*
%TO.P,J1,14*%
%TO.N,VCC*%
X131826000Y-104140000D03*
%TO.P,J1,15*%
%TO.N,GND*%
X131826000Y-106680000D03*
%TO.P,J1,16*%
%TO.N,XTAL2*%
X131826000Y-109220000D03*
%TO.P,J1,17*%
%TO.N,XTAL1*%
X131826000Y-111760000D03*
%TO.P,J1,18*%
%TO.N,PD0*%
X131826000Y-114300000D03*
%TO.P,J1,19*%
%TO.N,PD1*%
X131826000Y-116840000D03*
%TO.P,J1,20*%
%TO.N,PD2*%
X131826000Y-119380000D03*
%TO.P,J1,21*%
%TO.N,PD3*%
X131826000Y-121920000D03*
%TO.P,J1,22*%
%TO.N,PD5*%
X131826000Y-124460000D03*
%TD*%
%TO.P,J2,22*%
%TO.N,GND*%
X152146000Y-124460000D03*
%TO.P,J2,21*%
%TO.N,AVCC*%
X152146000Y-121920000D03*
%TO.P,J2,20*%
%TO.N,PD4*%
X152146000Y-119380000D03*
%TO.P,J2,19*%
%TO.N,PD6*%
X152146000Y-116840000D03*
%TO.P,J2,18*%
%TO.N,PD7*%
X152146000Y-114300000D03*
%TO.P,J2,17*%
%TO.N,PB4*%
X152146000Y-111760000D03*
%TO.P,J2,16*%
%TO.N,PB5*%
X152146000Y-109220000D03*
%TO.P,J2,15*%
%TO.N,PB6*%
X152146000Y-106680000D03*
%TO.P,J2,14*%
%TO.N,PC6*%
X152146000Y-104140000D03*
%TO.P,J2,13*%
%TO.N,PC7*%
X152146000Y-101600000D03*
%TO.P,J2,12*%
%TO.N,PE2*%
X152146000Y-99060000D03*
%TO.P,J2,11*%
%TO.N,VCC*%
X152146000Y-96520000D03*
%TO.P,J2,10*%
%TO.N,GND*%
X152146000Y-93980000D03*
%TO.P,J2,9*%
%TO.N,PF7*%
X152146000Y-91440000D03*
%TO.P,J2,8*%
%TO.N,PF6*%
X152146000Y-88900000D03*
%TO.P,J2,7*%
%TO.N,PF5*%
X152146000Y-86360000D03*
%TO.P,J2,6*%
%TO.N,PF4*%
X152146000Y-83820000D03*
%TO.P,J2,5*%
%TO.N,PF1*%
X152146000Y-81280000D03*
%TO.P,J2,4*%
%TO.N,PF0*%
X152146000Y-78740000D03*
%TO.P,J2,3*%
%TO.N,AREF*%
X152146000Y-76200000D03*
%TO.P,J2,2*%
%TO.N,GND*%
X152146000Y-73660000D03*
D11*
%TO.P,J2,1*%
%TO.N,AVCC*%
X152146000Y-71120000D03*
%TD*%
D13*
%TO.P,C2,1*%
%TO.N,XTAL1*%
X143256000Y-112776000D03*
%TO.P,C2,2*%
%TO.N,GND*%
X143256000Y-110276000D03*
%TD*%
%TO.P,C1,2*%
%TO.N,GND*%
X140716000Y-112736000D03*
%TO.P,C1,1*%
%TO.N,XTAL2*%
X140716000Y-110236000D03*
%TD*%
D14*
%TO.N,VCC*%
X137668000Y-98806000D03*
X143256000Y-98806000D03*
D15*
%TO.N,XTAL1*%
X131826000Y-111760000D03*
%TD*%
D16*
%TO.N,VCC*%
X137668000Y-98806000D02*
X143256000Y-98806000D01*
D17*
%TO.N,XTAL2*%
X131828999Y-109217001D02*
X131826000Y-109220000D01*
X134087412Y-109220000D02*
X131826000Y-109220000D01*
X139700000Y-109220000D02*
X140716000Y-110236000D01*
X134087412Y-109220000D02*
X139700000Y-109220000D01*
%TO.N,XTAL1*%
X141478000Y-117246998D02*
X141478000Y-117856000D01*
X131826000Y-111760000D02*
X131828999Y-111757001D01*
X143256000Y-116332000D02*
X141986000Y-117602000D01*
X143256000Y-112776000D02*
X143256000Y-116332000D01*
X133927001Y-113861001D02*
X131826000Y-111760000D01*
X142170999Y-113861001D02*
X133927001Y-113861001D01*
X143256000Y-112776000D02*
X142170999Y-113861001D01*
%TD*%
D18*
%TO.N,GND*%
X150844815Y-69818815D02*
X150765463Y-69915506D01*
X150706498Y-70025820D01*
X150670188Y-70145518D01*
X150657928Y-70270000D01*
X150657928Y-71970000D01*
X150670188Y-72094482D01*
X150706498Y-72214180D01*
X150765463Y-72324494D01*
X150844815Y-72421185D01*
X150941506Y-72500537D01*
X151051820Y-72559502D01*
X151132466Y-72583966D01*
X151048412Y-72659731D01*
X150874359Y-72893080D01*
X150749175Y-73155901D01*
X150704524Y-73303110D01*
X150825845Y-73533000D01*
X152019000Y-73533000D01*
X152019000Y-73513000D01*
X152273000Y-73513000D01*
X152273000Y-73533000D01*
X152293000Y-73533000D01*
X152293000Y-73787000D01*
X152273000Y-73787000D01*
X152273000Y-73807000D01*
X152019000Y-73807000D01*
X152019000Y-73787000D01*
X150825845Y-73787000D01*
X150704524Y-74016890D01*
X150749175Y-74164099D01*
X150874359Y-74426920D01*
X151048412Y-74660269D01*
X151264645Y-74855178D01*
X151381534Y-74924805D01*
X151199368Y-75046525D01*
X150992525Y-75253368D01*
X150830010Y-75496589D01*
X150718068Y-75766842D01*
X150661000Y-76053740D01*
X150661000Y-76346260D01*
X150718068Y-76633158D01*
X150830010Y-76903411D01*
X150992525Y-77146632D01*
X151199368Y-77353475D01*
X151373760Y-77470000D01*
X151199368Y-77586525D01*
X150992525Y-77793368D01*
X150830010Y-78036589D01*
X150718068Y-78306842D01*
X150661000Y-78593740D01*
X150661000Y-78886260D01*
X150718068Y-79173158D01*
X150830010Y-79443411D01*
X150992525Y-79686632D01*
X151199368Y-79893475D01*
X151373760Y-80010000D01*
X151199368Y-80126525D01*
X150992525Y-80333368D01*
X150830010Y-80576589D01*
X150718068Y-80846842D01*
X150661000Y-81133740D01*
X150661000Y-81426260D01*
X150718068Y-81713158D01*
X150830010Y-81983411D01*
X150992525Y-82226632D01*
X151199368Y-82433475D01*
X151373760Y-82550000D01*
X151199368Y-82666525D01*
X150992525Y-82873368D01*
X150830010Y-83116589D01*
X150718068Y-83386842D01*
X150661000Y-83673740D01*
X150661000Y-83966260D01*
X150718068Y-84253158D01*
X150830010Y-84523411D01*
X150992525Y-84766632D01*
X151199368Y-84973475D01*
X151373760Y-85090000D01*
X151199368Y-85206525D01*
X150992525Y-85413368D01*
X150830010Y-85656589D01*
X150718068Y-85926842D01*
X150661000Y-86213740D01*
X150661000Y-86506260D01*
X150718068Y-86793158D01*
X150830010Y-87063411D01*
X150992525Y-87306632D01*
X151199368Y-87513475D01*
X151373760Y-87630000D01*
X151199368Y-87746525D01*
X150992525Y-87953368D01*
X150830010Y-88196589D01*
X150718068Y-88466842D01*
X150661000Y-88753740D01*
X150661000Y-89046260D01*
X150718068Y-89333158D01*
X150830010Y-89603411D01*
X150992525Y-89846632D01*
X151199368Y-90053475D01*
X151373760Y-90170000D01*
X151199368Y-90286525D01*
X150992525Y-90493368D01*
X150830010Y-90736589D01*
X150718068Y-91006842D01*
X150661000Y-91293740D01*
X150661000Y-91586260D01*
X150718068Y-91873158D01*
X150830010Y-92143411D01*
X150992525Y-92386632D01*
X151199368Y-92593475D01*
X151381534Y-92715195D01*
X151264645Y-92784822D01*
X151048412Y-92979731D01*
X150874359Y-93213080D01*
X150749175Y-93475901D01*
X150704524Y-93623110D01*
X150825845Y-93853000D01*
X152019000Y-93853000D01*
X152019000Y-93833000D01*
X152273000Y-93833000D01*
X152273000Y-93853000D01*
X152293000Y-93853000D01*
X152293000Y-94107000D01*
X152273000Y-94107000D01*
X152273000Y-94127000D01*
X152019000Y-94127000D01*
X152019000Y-94107000D01*
X150825845Y-94107000D01*
X150704524Y-94336890D01*
X150749175Y-94484099D01*
X150874359Y-94746920D01*
X151048412Y-94980269D01*
X151264645Y-95175178D01*
X151381534Y-95244805D01*
X151199368Y-95366525D01*
X150992525Y-95573368D01*
X150830010Y-95816589D01*
X150718068Y-96086842D01*
X150661000Y-96373740D01*
X150661000Y-96666260D01*
X150718068Y-96953158D01*
X150830010Y-97223411D01*
X150992525Y-97466632D01*
X151199368Y-97673475D01*
X151373760Y-97790000D01*
X151199368Y-97906525D01*
X150992525Y-98113368D01*
X150830010Y-98356589D01*
X150718068Y-98626842D01*
X150661000Y-98913740D01*
X150661000Y-99206260D01*
X150718068Y-99493158D01*
X150830010Y-99763411D01*
X150992525Y-100006632D01*
X151199368Y-100213475D01*
X151373760Y-100330000D01*
X151199368Y-100446525D01*
X150992525Y-100653368D01*
X150830010Y-100896589D01*
X150718068Y-101166842D01*
X150661000Y-101453740D01*
X150661000Y-101746260D01*
X150718068Y-102033158D01*
X150830010Y-102303411D01*
X150992525Y-102546632D01*
X151199368Y-102753475D01*
X151373760Y-102870000D01*
X151199368Y-102986525D01*
X150992525Y-103193368D01*
X150830010Y-103436589D01*
X150718068Y-103706842D01*
X150661000Y-103993740D01*
X150661000Y-104286260D01*
X150718068Y-104573158D01*
X150830010Y-104843411D01*
X150992525Y-105086632D01*
X151199368Y-105293475D01*
X151373760Y-105410000D01*
X151199368Y-105526525D01*
X150992525Y-105733368D01*
X150830010Y-105976589D01*
X150718068Y-106246842D01*
X150661000Y-106533740D01*
X150661000Y-106826260D01*
X150718068Y-107113158D01*
X150830010Y-107383411D01*
X150992525Y-107626632D01*
X151199368Y-107833475D01*
X151373760Y-107950000D01*
X151199368Y-108066525D01*
X150992525Y-108273368D01*
X150830010Y-108516589D01*
X150718068Y-108786842D01*
X150661000Y-109073740D01*
X150661000Y-109366260D01*
X150718068Y-109653158D01*
X150830010Y-109923411D01*
X150992525Y-110166632D01*
X151199368Y-110373475D01*
X151373760Y-110490000D01*
X151199368Y-110606525D01*
X150992525Y-110813368D01*
X150830010Y-111056589D01*
X150718068Y-111326842D01*
X150661000Y-111613740D01*
X150661000Y-111906260D01*
X150718068Y-112193158D01*
X150830010Y-112463411D01*
X150992525Y-112706632D01*
X151199368Y-112913475D01*
X151373760Y-113030000D01*
X151199368Y-113146525D01*
X150992525Y-113353368D01*
X150830010Y-113596589D01*
X150718068Y-113866842D01*
X150661000Y-114153740D01*
X150661000Y-114446260D01*
X150718068Y-114733158D01*
X150830010Y-115003411D01*
X150992525Y-115246632D01*
X151199368Y-115453475D01*
X151373760Y-115570000D01*
X151199368Y-115686525D01*
X150992525Y-115893368D01*
X150830010Y-116136589D01*
X150718068Y-116406842D01*
X150661000Y-116693740D01*
X150661000Y-116986260D01*
X150718068Y-117273158D01*
X150830010Y-117543411D01*
X150992525Y-117786632D01*
X151199368Y-117993475D01*
X151373760Y-118110000D01*
X151199368Y-118226525D01*
X150992525Y-118433368D01*
X150830010Y-118676589D01*
X150718068Y-118946842D01*
X150661000Y-119233740D01*
X150661000Y-119526260D01*
X150718068Y-119813158D01*
X150830010Y-120083411D01*
X150992525Y-120326632D01*
X151199368Y-120533475D01*
X151373760Y-120650000D01*
X151199368Y-120766525D01*
X150992525Y-120973368D01*
X150830010Y-121216589D01*
X150718068Y-121486842D01*
X150661000Y-121773740D01*
X150661000Y-122066260D01*
X150718068Y-122353158D01*
X150830010Y-122623411D01*
X150992525Y-122866632D01*
X151199368Y-123073475D01*
X151381534Y-123195195D01*
X151264645Y-123264822D01*
X151048412Y-123459731D01*
X150874359Y-123693080D01*
X150749175Y-123955901D01*
X150704524Y-124103110D01*
X150825845Y-124333000D01*
X152019000Y-124333000D01*
X152019000Y-124313000D01*
X152273000Y-124313000D01*
X152273000Y-124333000D01*
X152293000Y-124333000D01*
X152293000Y-124587000D01*
X152273000Y-124587000D01*
X152273000Y-124607000D01*
X152019000Y-124607000D01*
X152019000Y-124587000D01*
X150825845Y-124587000D01*
X150704524Y-124816890D01*
X150749175Y-124964099D01*
X150874359Y-125226920D01*
X151048412Y-125460269D01*
X151264645Y-125655178D01*
X151514748Y-125804157D01*
X151593239Y-125832000D01*
X132394190Y-125832000D01*
X132529411Y-125775990D01*
X132772632Y-125613475D01*
X132979475Y-125406632D01*
X133141990Y-125163411D01*
X133253932Y-124893158D01*
X133311000Y-124606260D01*
X133311000Y-124313740D01*
X133253932Y-124026842D01*
X133141990Y-123756589D01*
X132979475Y-123513368D01*
X132772632Y-123306525D01*
X132598240Y-123190000D01*
X132772632Y-123073475D01*
X132979475Y-122866632D01*
X133141990Y-122623411D01*
X133253932Y-122353158D01*
X133255437Y-122345589D01*
X140601000Y-122345589D01*
X140601000Y-122618411D01*
X140654225Y-122885989D01*
X140758629Y-123138043D01*
X140910201Y-123364886D01*
X141103114Y-123557799D01*
X141329957Y-123709371D01*
X141582011Y-123813775D01*
X141849589Y-123867000D01*
X142122411Y-123867000D01*
X142389989Y-123813775D01*
X142642043Y-123709371D01*
X142868886Y-123557799D01*
X143061799Y-123364886D01*
X143213371Y-123138043D01*
X143317775Y-122885989D01*
X143371000Y-122618411D01*
X143371000Y-122345589D01*
X143317775Y-122078011D01*
X143213371Y-121825957D01*
X143061799Y-121599114D01*
X142868886Y-121406201D01*
X142642043Y-121254629D01*
X142389989Y-121150225D01*
X142122411Y-121097000D01*
X141849589Y-121097000D01*
X141582011Y-121150225D01*
X141329957Y-121254629D01*
X141103114Y-121406201D01*
X140910201Y-121599114D01*
X140758629Y-121825957D01*
X140654225Y-122078011D01*
X140601000Y-122345589D01*
X133255437Y-122345589D01*
X133311000Y-122066260D01*
X133311000Y-121773740D01*
X133253932Y-121486842D01*
X133141990Y-121216589D01*
X132979475Y-120973368D01*
X132772632Y-120766525D01*
X132598240Y-120650000D01*
X132772632Y-120533475D01*
X132979475Y-120326632D01*
X133141990Y-120083411D01*
X133253932Y-119813158D01*
X133311000Y-119526260D01*
X133311000Y-119233740D01*
X133253932Y-118946842D01*
X133141990Y-118676589D01*
X132979475Y-118433368D01*
X132772632Y-118226525D01*
X132598240Y-118110000D01*
X132772632Y-117993475D01*
X132979475Y-117786632D01*
X133141990Y-117543411D01*
X133253932Y-117273158D01*
X133311000Y-116986260D01*
X133311000Y-116693740D01*
X133253932Y-116406842D01*
X133141990Y-116136589D01*
X132979475Y-115893368D01*
X132772632Y-115686525D01*
X132598240Y-115570000D01*
X132772632Y-115453475D01*
X132979475Y-115246632D01*
X133141990Y-115003411D01*
X133253932Y-114733158D01*
X133311000Y-114446260D01*
X133311000Y-114319802D01*
X133363202Y-114372004D01*
X133387000Y-114401002D01*
X133415998Y-114424800D01*
X133502724Y-114495975D01*
X133634754Y-114566547D01*
X133778015Y-114610004D01*
X133889668Y-114621001D01*
X133889677Y-114621001D01*
X133927000Y-114624677D01*
X133964323Y-114621001D01*
X142133677Y-114621001D01*
X142170999Y-114624677D01*
X142208321Y-114621001D01*
X142208332Y-114621001D01*
X142319985Y-114610004D01*
X142463246Y-114566547D01*
X142496000Y-114549039D01*
X142496001Y-116017197D01*
X142267365Y-116245833D01*
X142122411Y-116217000D01*
X141849589Y-116217000D01*
X141582011Y-116270225D01*
X141329957Y-116374629D01*
X141103114Y-116526201D01*
X140910201Y-116719114D01*
X140758629Y-116945957D01*
X140654225Y-117198011D01*
X140601000Y-117465589D01*
X140601000Y-117738411D01*
X140654225Y-118005989D01*
X140758629Y-118258043D01*
X140910201Y-118484886D01*
X141103114Y-118677799D01*
X141329957Y-118829371D01*
X141582011Y-118933775D01*
X141849589Y-118987000D01*
X142122411Y-118987000D01*
X142389989Y-118933775D01*
X142642043Y-118829371D01*
X142868886Y-118677799D01*
X143061799Y-118484886D01*
X143213371Y-118258043D01*
X143317775Y-118005989D01*
X143371000Y-117738411D01*
X143371000Y-117465589D01*
X143342167Y-117320635D01*
X143767003Y-116895799D01*
X143796001Y-116872001D01*
X143890974Y-116756276D01*
X143961546Y-116624247D01*
X144005003Y-116480986D01*
X144016000Y-116369333D01*
X144016000Y-116369324D01*
X144019676Y-116332001D01*
X144016000Y-116294678D01*
X144016000Y-113994043D01*
X144170759Y-113890637D01*
X144370637Y-113690759D01*
X144527680Y-113455727D01*
X144635853Y-113194574D01*
X144691000Y-112917335D01*
X144691000Y-112634665D01*
X144635853Y-112357426D01*
X144527680Y-112096273D01*
X144370637Y-111861241D01*
X144170759Y-111661363D01*
X143970131Y-111527308D01*
X143997514Y-111512671D01*
X144069097Y-111268702D01*
X143256000Y-110455605D01*
X142442903Y-111268702D01*
X142514486Y-111512671D01*
X142543341Y-111526324D01*
X142341241Y-111661363D01*
X142141363Y-111861241D01*
X141996963Y-112077351D01*
X141952671Y-111994486D01*
X141708702Y-111922903D01*
X140895605Y-112736000D01*
X140909748Y-112750143D01*
X140730143Y-112929748D01*
X140716000Y-112915605D01*
X140701858Y-112929748D01*
X140522253Y-112750143D01*
X140536395Y-112736000D01*
X139723298Y-111922903D01*
X139479329Y-111994486D01*
X139358429Y-112249996D01*
X139289700Y-112524184D01*
X139275783Y-112806512D01*
X139317213Y-113086130D01*
X139322531Y-113101001D01*
X134241803Y-113101001D01*
X133267209Y-112126408D01*
X133311000Y-111906260D01*
X133311000Y-111613740D01*
X133253932Y-111326842D01*
X133141990Y-111056589D01*
X132979475Y-110813368D01*
X132772632Y-110606525D01*
X132598240Y-110490000D01*
X132772632Y-110373475D01*
X132979475Y-110166632D01*
X133104178Y-109980000D01*
X139303809Y-109980000D01*
X139281000Y-110094665D01*
X139281000Y-110377335D01*
X139336147Y-110654574D01*
X139444320Y-110915727D01*
X139601363Y-111150759D01*
X139801241Y-111350637D01*
X140001869Y-111484692D01*
X139974486Y-111499329D01*
X139902903Y-111743298D01*
X140716000Y-112556395D01*
X141529097Y-111743298D01*
X141457514Y-111499329D01*
X141428659Y-111485676D01*
X141630759Y-111350637D01*
X141830637Y-111150759D01*
X141975037Y-110934649D01*
X142019329Y-111017514D01*
X142263298Y-111089097D01*
X143076395Y-110276000D01*
X143435605Y-110276000D01*
X144248702Y-111089097D01*
X144492671Y-111017514D01*
X144613571Y-110762004D01*
X144682300Y-110487816D01*
X144696217Y-110205488D01*
X144654787Y-109925870D01*
X144559603Y-109659708D01*
X144492671Y-109534486D01*
X144248702Y-109462903D01*
X143435605Y-110276000D01*
X143076395Y-110276000D01*
X142263298Y-109462903D01*
X142019329Y-109534486D01*
X141997641Y-109580321D01*
X141987680Y-109556273D01*
X141830637Y-109321241D01*
X141792694Y-109283298D01*
X142442903Y-109283298D01*
X143256000Y-110096395D01*
X144069097Y-109283298D01*
X143997514Y-109039329D01*
X143742004Y-108918429D01*
X143467816Y-108849700D01*
X143185488Y-108835783D01*
X142905870Y-108877213D01*
X142639708Y-108972397D01*
X142514486Y-109039329D01*
X142442903Y-109283298D01*
X141792694Y-109283298D01*
X141630759Y-109121363D01*
X141395727Y-108964320D01*
X141134574Y-108856147D01*
X140857335Y-108801000D01*
X140574665Y-108801000D01*
X140392113Y-108837312D01*
X140263804Y-108709002D01*
X140240001Y-108679999D01*
X140124276Y-108585026D01*
X139992247Y-108514454D01*
X139848986Y-108470997D01*
X139737333Y-108460000D01*
X139737322Y-108460000D01*
X139700000Y-108456324D01*
X139662678Y-108460000D01*
X133104178Y-108460000D01*
X132979475Y-108273368D01*
X132772632Y-108066525D01*
X132590466Y-107944805D01*
X132707355Y-107875178D01*
X132923588Y-107680269D01*
X133097641Y-107446920D01*
X133222825Y-107184099D01*
X133267476Y-107036890D01*
X133146155Y-106807000D01*
X131953000Y-106807000D01*
X131953000Y-106827000D01*
X131699000Y-106827000D01*
X131699000Y-106807000D01*
X131679000Y-106807000D01*
X131679000Y-106553000D01*
X131699000Y-106553000D01*
X131699000Y-106533000D01*
X131953000Y-106533000D01*
X131953000Y-106553000D01*
X133146155Y-106553000D01*
X133267476Y-106323110D01*
X133222825Y-106175901D01*
X133097641Y-105913080D01*
X132923588Y-105679731D01*
X132707355Y-105484822D01*
X132590466Y-105415195D01*
X132772632Y-105293475D01*
X132979475Y-105086632D01*
X133141990Y-104843411D01*
X133253932Y-104573158D01*
X133311000Y-104286260D01*
X133311000Y-103993740D01*
X133253932Y-103706842D01*
X133141990Y-103436589D01*
X132979475Y-103193368D01*
X132772632Y-102986525D01*
X132598240Y-102870000D01*
X132772632Y-102753475D01*
X132979475Y-102546632D01*
X133141990Y-102303411D01*
X133253932Y-102033158D01*
X133311000Y-101746260D01*
X133311000Y-101453740D01*
X133253932Y-101166842D01*
X133141990Y-100896589D01*
X132979475Y-100653368D01*
X132772632Y-100446525D01*
X132598240Y-100330000D01*
X132772632Y-100213475D01*
X132979475Y-100006632D01*
X133141990Y-99763411D01*
X133253932Y-99493158D01*
X133311000Y-99206260D01*
X133311000Y-98913740D01*
X133270272Y-98708986D01*
X136683000Y-98708986D01*
X136683000Y-98903014D01*
X136720853Y-99093314D01*
X136795104Y-99272572D01*
X136902901Y-99433901D01*
X137040099Y-99571099D01*
X137201428Y-99678896D01*
X137380686Y-99753147D01*
X137570986Y-99791000D01*
X137765014Y-99791000D01*
X137955314Y-99753147D01*
X138134572Y-99678896D01*
X138191287Y-99641000D01*
X142732713Y-99641000D01*
X142789428Y-99678896D01*
X142968686Y-99753147D01*
X143158986Y-99791000D01*
X143353014Y-99791000D01*
X143543314Y-99753147D01*
X143722572Y-99678896D01*
X143883901Y-99571099D01*
X144021099Y-99433901D01*
X144128896Y-99272572D01*
X144203147Y-99093314D01*
X144241000Y-98903014D01*
X144241000Y-98708986D01*
X144203147Y-98518686D01*
X144128896Y-98339428D01*
X144021099Y-98178099D01*
X143883901Y-98040901D01*
X143722572Y-97933104D01*
X143543314Y-97858853D01*
X143353014Y-97821000D01*
X143158986Y-97821000D01*
X142968686Y-97858853D01*
X142789428Y-97933104D01*
X142732713Y-97971000D01*
X138191287Y-97971000D01*
X138134572Y-97933104D01*
X137955314Y-97858853D01*
X137765014Y-97821000D01*
X137570986Y-97821000D01*
X137380686Y-97858853D01*
X137201428Y-97933104D01*
X137040099Y-98040901D01*
X136902901Y-98178099D01*
X136795104Y-98339428D01*
X136720853Y-98518686D01*
X136683000Y-98708986D01*
X133270272Y-98708986D01*
X133253932Y-98626842D01*
X133141990Y-98356589D01*
X132979475Y-98113368D01*
X132772632Y-97906525D01*
X132598240Y-97790000D01*
X132772632Y-97673475D01*
X132979475Y-97466632D01*
X133141990Y-97223411D01*
X133253932Y-96953158D01*
X133311000Y-96666260D01*
X133311000Y-96373740D01*
X133253932Y-96086842D01*
X133141990Y-95816589D01*
X132979475Y-95573368D01*
X132772632Y-95366525D01*
X132598240Y-95250000D01*
X132772632Y-95133475D01*
X132979475Y-94926632D01*
X133141990Y-94683411D01*
X133253932Y-94413158D01*
X133311000Y-94126260D01*
X133311000Y-93833740D01*
X133253932Y-93546842D01*
X133141990Y-93276589D01*
X132979475Y-93033368D01*
X132772632Y-92826525D01*
X132598240Y-92710000D01*
X132772632Y-92593475D01*
X132979475Y-92386632D01*
X133141990Y-92143411D01*
X133253932Y-91873158D01*
X133311000Y-91586260D01*
X133311000Y-91293740D01*
X133253932Y-91006842D01*
X133141990Y-90736589D01*
X132979475Y-90493368D01*
X132772632Y-90286525D01*
X132598240Y-90170000D01*
X132772632Y-90053475D01*
X132979475Y-89846632D01*
X133141990Y-89603411D01*
X133253932Y-89333158D01*
X133311000Y-89046260D01*
X133311000Y-88753740D01*
X133253932Y-88466842D01*
X133141990Y-88196589D01*
X132979475Y-87953368D01*
X132772632Y-87746525D01*
X132598240Y-87630000D01*
X132772632Y-87513475D01*
X132979475Y-87306632D01*
X133141990Y-87063411D01*
X133253932Y-86793158D01*
X133311000Y-86506260D01*
X133311000Y-86213740D01*
X133253932Y-85926842D01*
X133141990Y-85656589D01*
X132979475Y-85413368D01*
X132772632Y-85206525D01*
X132598240Y-85090000D01*
X132772632Y-84973475D01*
X132979475Y-84766632D01*
X133141990Y-84523411D01*
X133253932Y-84253158D01*
X133311000Y-83966260D01*
X133311000Y-83673740D01*
X133253932Y-83386842D01*
X133141990Y-83116589D01*
X132979475Y-82873368D01*
X132772632Y-82666525D01*
X132598240Y-82550000D01*
X132772632Y-82433475D01*
X132979475Y-82226632D01*
X133141990Y-81983411D01*
X133253932Y-81713158D01*
X133311000Y-81426260D01*
X133311000Y-81133740D01*
X133253932Y-80846842D01*
X133141990Y-80576589D01*
X132979475Y-80333368D01*
X132772632Y-80126525D01*
X132598240Y-80010000D01*
X132772632Y-79893475D01*
X132979475Y-79686632D01*
X133141990Y-79443411D01*
X133253932Y-79173158D01*
X133311000Y-78886260D01*
X133311000Y-78593740D01*
X133253932Y-78306842D01*
X133141990Y-78036589D01*
X132979475Y-77793368D01*
X132772632Y-77586525D01*
X132598240Y-77470000D01*
X132772632Y-77353475D01*
X132979475Y-77146632D01*
X133141990Y-76903411D01*
X133253932Y-76633158D01*
X133311000Y-76346260D01*
X133311000Y-76053740D01*
X133253932Y-75766842D01*
X133141990Y-75496589D01*
X132979475Y-75253368D01*
X132772632Y-75046525D01*
X132598240Y-74930000D01*
X132772632Y-74813475D01*
X132979475Y-74606632D01*
X133141990Y-74363411D01*
X133253932Y-74093158D01*
X133311000Y-73806260D01*
X133311000Y-73513740D01*
X133253932Y-73226842D01*
X133141990Y-72956589D01*
X132979475Y-72713368D01*
X132847620Y-72581513D01*
X132920180Y-72559502D01*
X133030494Y-72500537D01*
X133127185Y-72421185D01*
X133206537Y-72324494D01*
X133265502Y-72214180D01*
X133301812Y-72094482D01*
X133314072Y-71970000D01*
X133314072Y-70270000D01*
X133301812Y-70145518D01*
X133265502Y-70025820D01*
X133206537Y-69915506D01*
X133127185Y-69818815D01*
X133040896Y-69748000D01*
X150931104Y-69748000D01*
X150844815Y-69818815D01*
%TA.AperFunction,Conductor*%
D19*
G36*
X150844815Y-69818815D02*
G01*
X150765463Y-69915506D01*
X150706498Y-70025820D01*
X150670188Y-70145518D01*
X150657928Y-70270000D01*
X150657928Y-71970000D01*
X150670188Y-72094482D01*
X150706498Y-72214180D01*
X150765463Y-72324494D01*
X150844815Y-72421185D01*
X150941506Y-72500537D01*
X151051820Y-72559502D01*
X151132466Y-72583966D01*
X151048412Y-72659731D01*
X150874359Y-72893080D01*
X150749175Y-73155901D01*
X150704524Y-73303110D01*
X150825845Y-73533000D01*
X152019000Y-73533000D01*
X152019000Y-73513000D01*
X152273000Y-73513000D01*
X152273000Y-73533000D01*
X152293000Y-73533000D01*
X152293000Y-73787000D01*
X152273000Y-73787000D01*
X152273000Y-73807000D01*
X152019000Y-73807000D01*
X152019000Y-73787000D01*
X150825845Y-73787000D01*
X150704524Y-74016890D01*
X150749175Y-74164099D01*
X150874359Y-74426920D01*
X151048412Y-74660269D01*
X151264645Y-74855178D01*
X151381534Y-74924805D01*
X151199368Y-75046525D01*
X150992525Y-75253368D01*
X150830010Y-75496589D01*
X150718068Y-75766842D01*
X150661000Y-76053740D01*
X150661000Y-76346260D01*
X150718068Y-76633158D01*
X150830010Y-76903411D01*
X150992525Y-77146632D01*
X151199368Y-77353475D01*
X151373760Y-77470000D01*
X151199368Y-77586525D01*
X150992525Y-77793368D01*
X150830010Y-78036589D01*
X150718068Y-78306842D01*
X150661000Y-78593740D01*
X150661000Y-78886260D01*
X150718068Y-79173158D01*
X150830010Y-79443411D01*
X150992525Y-79686632D01*
X151199368Y-79893475D01*
X151373760Y-80010000D01*
X151199368Y-80126525D01*
X150992525Y-80333368D01*
X150830010Y-80576589D01*
X150718068Y-80846842D01*
X150661000Y-81133740D01*
X150661000Y-81426260D01*
X150718068Y-81713158D01*
X150830010Y-81983411D01*
X150992525Y-82226632D01*
X151199368Y-82433475D01*
X151373760Y-82550000D01*
X151199368Y-82666525D01*
X150992525Y-82873368D01*
X150830010Y-83116589D01*
X150718068Y-83386842D01*
X150661000Y-83673740D01*
X150661000Y-83966260D01*
X150718068Y-84253158D01*
X150830010Y-84523411D01*
X150992525Y-84766632D01*
X151199368Y-84973475D01*
X151373760Y-85090000D01*
X151199368Y-85206525D01*
X150992525Y-85413368D01*
X150830010Y-85656589D01*
X150718068Y-85926842D01*
X150661000Y-86213740D01*
X150661000Y-86506260D01*
X150718068Y-86793158D01*
X150830010Y-87063411D01*
X150992525Y-87306632D01*
X151199368Y-87513475D01*
X151373760Y-87630000D01*
X151199368Y-87746525D01*
X150992525Y-87953368D01*
X150830010Y-88196589D01*
X150718068Y-88466842D01*
X150661000Y-88753740D01*
X150661000Y-89046260D01*
X150718068Y-89333158D01*
X150830010Y-89603411D01*
X150992525Y-89846632D01*
X151199368Y-90053475D01*
X151373760Y-90170000D01*
X151199368Y-90286525D01*
X150992525Y-90493368D01*
X150830010Y-90736589D01*
X150718068Y-91006842D01*
X150661000Y-91293740D01*
X150661000Y-91586260D01*
X150718068Y-91873158D01*
X150830010Y-92143411D01*
X150992525Y-92386632D01*
X151199368Y-92593475D01*
X151381534Y-92715195D01*
X151264645Y-92784822D01*
X151048412Y-92979731D01*
X150874359Y-93213080D01*
X150749175Y-93475901D01*
X150704524Y-93623110D01*
X150825845Y-93853000D01*
X152019000Y-93853000D01*
X152019000Y-93833000D01*
X152273000Y-93833000D01*
X152273000Y-93853000D01*
X152293000Y-93853000D01*
X152293000Y-94107000D01*
X152273000Y-94107000D01*
X152273000Y-94127000D01*
X152019000Y-94127000D01*
X152019000Y-94107000D01*
X150825845Y-94107000D01*
X150704524Y-94336890D01*
X150749175Y-94484099D01*
X150874359Y-94746920D01*
X151048412Y-94980269D01*
X151264645Y-95175178D01*
X151381534Y-95244805D01*
X151199368Y-95366525D01*
X150992525Y-95573368D01*
X150830010Y-95816589D01*
X150718068Y-96086842D01*
X150661000Y-96373740D01*
X150661000Y-96666260D01*
X150718068Y-96953158D01*
X150830010Y-97223411D01*
X150992525Y-97466632D01*
X151199368Y-97673475D01*
X151373760Y-97790000D01*
X151199368Y-97906525D01*
X150992525Y-98113368D01*
X150830010Y-98356589D01*
X150718068Y-98626842D01*
X150661000Y-98913740D01*
X150661000Y-99206260D01*
X150718068Y-99493158D01*
X150830010Y-99763411D01*
X150992525Y-100006632D01*
X151199368Y-100213475D01*
X151373760Y-100330000D01*
X151199368Y-100446525D01*
X150992525Y-100653368D01*
X150830010Y-100896589D01*
X150718068Y-101166842D01*
X150661000Y-101453740D01*
X150661000Y-101746260D01*
X150718068Y-102033158D01*
X150830010Y-102303411D01*
X150992525Y-102546632D01*
X151199368Y-102753475D01*
X151373760Y-102870000D01*
X151199368Y-102986525D01*
X150992525Y-103193368D01*
X150830010Y-103436589D01*
X150718068Y-103706842D01*
X150661000Y-103993740D01*
X150661000Y-104286260D01*
X150718068Y-104573158D01*
X150830010Y-104843411D01*
X150992525Y-105086632D01*
X151199368Y-105293475D01*
X151373760Y-105410000D01*
X151199368Y-105526525D01*
X150992525Y-105733368D01*
X150830010Y-105976589D01*
X150718068Y-106246842D01*
X150661000Y-106533740D01*
X150661000Y-106826260D01*
X150718068Y-107113158D01*
X150830010Y-107383411D01*
X150992525Y-107626632D01*
X151199368Y-107833475D01*
X151373760Y-107950000D01*
X151199368Y-108066525D01*
X150992525Y-108273368D01*
X150830010Y-108516589D01*
X150718068Y-108786842D01*
X150661000Y-109073740D01*
X150661000Y-109366260D01*
X150718068Y-109653158D01*
X150830010Y-109923411D01*
X150992525Y-110166632D01*
X151199368Y-110373475D01*
X151373760Y-110490000D01*
X151199368Y-110606525D01*
X150992525Y-110813368D01*
X150830010Y-111056589D01*
X150718068Y-111326842D01*
X150661000Y-111613740D01*
X150661000Y-111906260D01*
X150718068Y-112193158D01*
X150830010Y-112463411D01*
X150992525Y-112706632D01*
X151199368Y-112913475D01*
X151373760Y-113030000D01*
X151199368Y-113146525D01*
X150992525Y-113353368D01*
X150830010Y-113596589D01*
X150718068Y-113866842D01*
X150661000Y-114153740D01*
X150661000Y-114446260D01*
X150718068Y-114733158D01*
X150830010Y-115003411D01*
X150992525Y-115246632D01*
X151199368Y-115453475D01*
X151373760Y-115570000D01*
X151199368Y-115686525D01*
X150992525Y-115893368D01*
X150830010Y-116136589D01*
X150718068Y-116406842D01*
X150661000Y-116693740D01*
X150661000Y-116986260D01*
X150718068Y-117273158D01*
X150830010Y-117543411D01*
X150992525Y-117786632D01*
X151199368Y-117993475D01*
X151373760Y-118110000D01*
X151199368Y-118226525D01*
X150992525Y-118433368D01*
X150830010Y-118676589D01*
X150718068Y-118946842D01*
X150661000Y-119233740D01*
X150661000Y-119526260D01*
X150718068Y-119813158D01*
X150830010Y-120083411D01*
X150992525Y-120326632D01*
X151199368Y-120533475D01*
X151373760Y-120650000D01*
X151199368Y-120766525D01*
X150992525Y-120973368D01*
X150830010Y-121216589D01*
X150718068Y-121486842D01*
X150661000Y-121773740D01*
X150661000Y-122066260D01*
X150718068Y-122353158D01*
X150830010Y-122623411D01*
X150992525Y-122866632D01*
X151199368Y-123073475D01*
X151381534Y-123195195D01*
X151264645Y-123264822D01*
X151048412Y-123459731D01*
X150874359Y-123693080D01*
X150749175Y-123955901D01*
X150704524Y-124103110D01*
X150825845Y-124333000D01*
X152019000Y-124333000D01*
X152019000Y-124313000D01*
X152273000Y-124313000D01*
X152273000Y-124333000D01*
X152293000Y-124333000D01*
X152293000Y-124587000D01*
X152273000Y-124587000D01*
X152273000Y-124607000D01*
X152019000Y-124607000D01*
X152019000Y-124587000D01*
X150825845Y-124587000D01*
X150704524Y-124816890D01*
X150749175Y-124964099D01*
X150874359Y-125226920D01*
X151048412Y-125460269D01*
X151264645Y-125655178D01*
X151514748Y-125804157D01*
X151593239Y-125832000D01*
X132394190Y-125832000D01*
X132529411Y-125775990D01*
X132772632Y-125613475D01*
X132979475Y-125406632D01*
X133141990Y-125163411D01*
X133253932Y-124893158D01*
X133311000Y-124606260D01*
X133311000Y-124313740D01*
X133253932Y-124026842D01*
X133141990Y-123756589D01*
X132979475Y-123513368D01*
X132772632Y-123306525D01*
X132598240Y-123190000D01*
X132772632Y-123073475D01*
X132979475Y-122866632D01*
X133141990Y-122623411D01*
X133253932Y-122353158D01*
X133255437Y-122345589D01*
X140601000Y-122345589D01*
X140601000Y-122618411D01*
X140654225Y-122885989D01*
X140758629Y-123138043D01*
X140910201Y-123364886D01*
X141103114Y-123557799D01*
X141329957Y-123709371D01*
X141582011Y-123813775D01*
X141849589Y-123867000D01*
X142122411Y-123867000D01*
X142389989Y-123813775D01*
X142642043Y-123709371D01*
X142868886Y-123557799D01*
X143061799Y-123364886D01*
X143213371Y-123138043D01*
X143317775Y-122885989D01*
X143371000Y-122618411D01*
X143371000Y-122345589D01*
X143317775Y-122078011D01*
X143213371Y-121825957D01*
X143061799Y-121599114D01*
X142868886Y-121406201D01*
X142642043Y-121254629D01*
X142389989Y-121150225D01*
X142122411Y-121097000D01*
X141849589Y-121097000D01*
X141582011Y-121150225D01*
X141329957Y-121254629D01*
X141103114Y-121406201D01*
X140910201Y-121599114D01*
X140758629Y-121825957D01*
X140654225Y-122078011D01*
X140601000Y-122345589D01*
X133255437Y-122345589D01*
X133311000Y-122066260D01*
X133311000Y-121773740D01*
X133253932Y-121486842D01*
X133141990Y-121216589D01*
X132979475Y-120973368D01*
X132772632Y-120766525D01*
X132598240Y-120650000D01*
X132772632Y-120533475D01*
X132979475Y-120326632D01*
X133141990Y-120083411D01*
X133253932Y-119813158D01*
X133311000Y-119526260D01*
X133311000Y-119233740D01*
X133253932Y-118946842D01*
X133141990Y-118676589D01*
X132979475Y-118433368D01*
X132772632Y-118226525D01*
X132598240Y-118110000D01*
X132772632Y-117993475D01*
X132979475Y-117786632D01*
X133141990Y-117543411D01*
X133253932Y-117273158D01*
X133311000Y-116986260D01*
X133311000Y-116693740D01*
X133253932Y-116406842D01*
X133141990Y-116136589D01*
X132979475Y-115893368D01*
X132772632Y-115686525D01*
X132598240Y-115570000D01*
X132772632Y-115453475D01*
X132979475Y-115246632D01*
X133141990Y-115003411D01*
X133253932Y-114733158D01*
X133311000Y-114446260D01*
X133311000Y-114319802D01*
X133363202Y-114372004D01*
X133387000Y-114401002D01*
X133415998Y-114424800D01*
X133502724Y-114495975D01*
X133634754Y-114566547D01*
X133778015Y-114610004D01*
X133889668Y-114621001D01*
X133889677Y-114621001D01*
X133927000Y-114624677D01*
X133964323Y-114621001D01*
X142133677Y-114621001D01*
X142170999Y-114624677D01*
X142208321Y-114621001D01*
X142208332Y-114621001D01*
X142319985Y-114610004D01*
X142463246Y-114566547D01*
X142496000Y-114549039D01*
X142496001Y-116017197D01*
X142267365Y-116245833D01*
X142122411Y-116217000D01*
X141849589Y-116217000D01*
X141582011Y-116270225D01*
X141329957Y-116374629D01*
X141103114Y-116526201D01*
X140910201Y-116719114D01*
X140758629Y-116945957D01*
X140654225Y-117198011D01*
X140601000Y-117465589D01*
X140601000Y-117738411D01*
X140654225Y-118005989D01*
X140758629Y-118258043D01*
X140910201Y-118484886D01*
X141103114Y-118677799D01*
X141329957Y-118829371D01*
X141582011Y-118933775D01*
X141849589Y-118987000D01*
X142122411Y-118987000D01*
X142389989Y-118933775D01*
X142642043Y-118829371D01*
X142868886Y-118677799D01*
X143061799Y-118484886D01*
X143213371Y-118258043D01*
X143317775Y-118005989D01*
X143371000Y-117738411D01*
X143371000Y-117465589D01*
X143342167Y-117320635D01*
X143767003Y-116895799D01*
X143796001Y-116872001D01*
X143890974Y-116756276D01*
X143961546Y-116624247D01*
X144005003Y-116480986D01*
X144016000Y-116369333D01*
X144016000Y-116369324D01*
X144019676Y-116332001D01*
X144016000Y-116294678D01*
X144016000Y-113994043D01*
X144170759Y-113890637D01*
X144370637Y-113690759D01*
X144527680Y-113455727D01*
X144635853Y-113194574D01*
X144691000Y-112917335D01*
X144691000Y-112634665D01*
X144635853Y-112357426D01*
X144527680Y-112096273D01*
X144370637Y-111861241D01*
X144170759Y-111661363D01*
X143970131Y-111527308D01*
X143997514Y-111512671D01*
X144069097Y-111268702D01*
X143256000Y-110455605D01*
X142442903Y-111268702D01*
X142514486Y-111512671D01*
X142543341Y-111526324D01*
X142341241Y-111661363D01*
X142141363Y-111861241D01*
X141996963Y-112077351D01*
X141952671Y-111994486D01*
X141708702Y-111922903D01*
X140895605Y-112736000D01*
X140909748Y-112750143D01*
X140730143Y-112929748D01*
X140716000Y-112915605D01*
X140701858Y-112929748D01*
X140522253Y-112750143D01*
X140536395Y-112736000D01*
X139723298Y-111922903D01*
X139479329Y-111994486D01*
X139358429Y-112249996D01*
X139289700Y-112524184D01*
X139275783Y-112806512D01*
X139317213Y-113086130D01*
X139322531Y-113101001D01*
X134241803Y-113101001D01*
X133267209Y-112126408D01*
X133311000Y-111906260D01*
X133311000Y-111613740D01*
X133253932Y-111326842D01*
X133141990Y-111056589D01*
X132979475Y-110813368D01*
X132772632Y-110606525D01*
X132598240Y-110490000D01*
X132772632Y-110373475D01*
X132979475Y-110166632D01*
X133104178Y-109980000D01*
X139303809Y-109980000D01*
X139281000Y-110094665D01*
X139281000Y-110377335D01*
X139336147Y-110654574D01*
X139444320Y-110915727D01*
X139601363Y-111150759D01*
X139801241Y-111350637D01*
X140001869Y-111484692D01*
X139974486Y-111499329D01*
X139902903Y-111743298D01*
X140716000Y-112556395D01*
X141529097Y-111743298D01*
X141457514Y-111499329D01*
X141428659Y-111485676D01*
X141630759Y-111350637D01*
X141830637Y-111150759D01*
X141975037Y-110934649D01*
X142019329Y-111017514D01*
X142263298Y-111089097D01*
X143076395Y-110276000D01*
X143435605Y-110276000D01*
X144248702Y-111089097D01*
X144492671Y-111017514D01*
X144613571Y-110762004D01*
X144682300Y-110487816D01*
X144696217Y-110205488D01*
X144654787Y-109925870D01*
X144559603Y-109659708D01*
X144492671Y-109534486D01*
X144248702Y-109462903D01*
X143435605Y-110276000D01*
X143076395Y-110276000D01*
X142263298Y-109462903D01*
X142019329Y-109534486D01*
X141997641Y-109580321D01*
X141987680Y-109556273D01*
X141830637Y-109321241D01*
X141792694Y-109283298D01*
X142442903Y-109283298D01*
X143256000Y-110096395D01*
X144069097Y-109283298D01*
X143997514Y-109039329D01*
X143742004Y-108918429D01*
X143467816Y-108849700D01*
X143185488Y-108835783D01*
X142905870Y-108877213D01*
X142639708Y-108972397D01*
X142514486Y-109039329D01*
X142442903Y-109283298D01*
X141792694Y-109283298D01*
X141630759Y-109121363D01*
X141395727Y-108964320D01*
X141134574Y-108856147D01*
X140857335Y-108801000D01*
X140574665Y-108801000D01*
X140392113Y-108837312D01*
X140263804Y-108709002D01*
X140240001Y-108679999D01*
X140124276Y-108585026D01*
X139992247Y-108514454D01*
X139848986Y-108470997D01*
X139737333Y-108460000D01*
X139737322Y-108460000D01*
X139700000Y-108456324D01*
X139662678Y-108460000D01*
X133104178Y-108460000D01*
X132979475Y-108273368D01*
X132772632Y-108066525D01*
X132590466Y-107944805D01*
X132707355Y-107875178D01*
X132923588Y-107680269D01*
X133097641Y-107446920D01*
X133222825Y-107184099D01*
X133267476Y-107036890D01*
X133146155Y-106807000D01*
X131953000Y-106807000D01*
X131953000Y-106827000D01*
X131699000Y-106827000D01*
X131699000Y-106807000D01*
X131679000Y-106807000D01*
X131679000Y-106553000D01*
X131699000Y-106553000D01*
X131699000Y-106533000D01*
X131953000Y-106533000D01*
X131953000Y-106553000D01*
X133146155Y-106553000D01*
X133267476Y-106323110D01*
X133222825Y-106175901D01*
X133097641Y-105913080D01*
X132923588Y-105679731D01*
X132707355Y-105484822D01*
X132590466Y-105415195D01*
X132772632Y-105293475D01*
X132979475Y-105086632D01*
X133141990Y-104843411D01*
X133253932Y-104573158D01*
X133311000Y-104286260D01*
X133311000Y-103993740D01*
X133253932Y-103706842D01*
X133141990Y-103436589D01*
X132979475Y-103193368D01*
X132772632Y-102986525D01*
X132598240Y-102870000D01*
X132772632Y-102753475D01*
X132979475Y-102546632D01*
X133141990Y-102303411D01*
X133253932Y-102033158D01*
X133311000Y-101746260D01*
X133311000Y-101453740D01*
X133253932Y-101166842D01*
X133141990Y-100896589D01*
X132979475Y-100653368D01*
X132772632Y-100446525D01*
X132598240Y-100330000D01*
X132772632Y-100213475D01*
X132979475Y-100006632D01*
X133141990Y-99763411D01*
X133253932Y-99493158D01*
X133311000Y-99206260D01*
X133311000Y-98913740D01*
X133270272Y-98708986D01*
X136683000Y-98708986D01*
X136683000Y-98903014D01*
X136720853Y-99093314D01*
X136795104Y-99272572D01*
X136902901Y-99433901D01*
X137040099Y-99571099D01*
X137201428Y-99678896D01*
X137380686Y-99753147D01*
X137570986Y-99791000D01*
X137765014Y-99791000D01*
X137955314Y-99753147D01*
X138134572Y-99678896D01*
X138191287Y-99641000D01*
X142732713Y-99641000D01*
X142789428Y-99678896D01*
X142968686Y-99753147D01*
X143158986Y-99791000D01*
X143353014Y-99791000D01*
X143543314Y-99753147D01*
X143722572Y-99678896D01*
X143883901Y-99571099D01*
X144021099Y-99433901D01*
X144128896Y-99272572D01*
X144203147Y-99093314D01*
X144241000Y-98903014D01*
X144241000Y-98708986D01*
X144203147Y-98518686D01*
X144128896Y-98339428D01*
X144021099Y-98178099D01*
X143883901Y-98040901D01*
X143722572Y-97933104D01*
X143543314Y-97858853D01*
X143353014Y-97821000D01*
X143158986Y-97821000D01*
X142968686Y-97858853D01*
X142789428Y-97933104D01*
X142732713Y-97971000D01*
X138191287Y-97971000D01*
X138134572Y-97933104D01*
X137955314Y-97858853D01*
X137765014Y-97821000D01*
X137570986Y-97821000D01*
X137380686Y-97858853D01*
X137201428Y-97933104D01*
X137040099Y-98040901D01*
X136902901Y-98178099D01*
X136795104Y-98339428D01*
X136720853Y-98518686D01*
X136683000Y-98708986D01*
X133270272Y-98708986D01*
X133253932Y-98626842D01*
X133141990Y-98356589D01*
X132979475Y-98113368D01*
X132772632Y-97906525D01*
X132598240Y-97790000D01*
X132772632Y-97673475D01*
X132979475Y-97466632D01*
X133141990Y-97223411D01*
X133253932Y-96953158D01*
X133311000Y-96666260D01*
X133311000Y-96373740D01*
X133253932Y-96086842D01*
X133141990Y-95816589D01*
X132979475Y-95573368D01*
X132772632Y-95366525D01*
X132598240Y-95250000D01*
X132772632Y-95133475D01*
X132979475Y-94926632D01*
X133141990Y-94683411D01*
X133253932Y-94413158D01*
X133311000Y-94126260D01*
X133311000Y-93833740D01*
X133253932Y-93546842D01*
X133141990Y-93276589D01*
X132979475Y-93033368D01*
X132772632Y-92826525D01*
X132598240Y-92710000D01*
X132772632Y-92593475D01*
X132979475Y-92386632D01*
X133141990Y-92143411D01*
X133253932Y-91873158D01*
X133311000Y-91586260D01*
X133311000Y-91293740D01*
X133253932Y-91006842D01*
X133141990Y-90736589D01*
X132979475Y-90493368D01*
X132772632Y-90286525D01*
X132598240Y-90170000D01*
X132772632Y-90053475D01*
X132979475Y-89846632D01*
X133141990Y-89603411D01*
X133253932Y-89333158D01*
X133311000Y-89046260D01*
X133311000Y-88753740D01*
X133253932Y-88466842D01*
X133141990Y-88196589D01*
X132979475Y-87953368D01*
X132772632Y-87746525D01*
X132598240Y-87630000D01*
X132772632Y-87513475D01*
X132979475Y-87306632D01*
X133141990Y-87063411D01*
X133253932Y-86793158D01*
X133311000Y-86506260D01*
X133311000Y-86213740D01*
X133253932Y-85926842D01*
X133141990Y-85656589D01*
X132979475Y-85413368D01*
X132772632Y-85206525D01*
X132598240Y-85090000D01*
X132772632Y-84973475D01*
X132979475Y-84766632D01*
X133141990Y-84523411D01*
X133253932Y-84253158D01*
X133311000Y-83966260D01*
X133311000Y-83673740D01*
X133253932Y-83386842D01*
X133141990Y-83116589D01*
X132979475Y-82873368D01*
X132772632Y-82666525D01*
X132598240Y-82550000D01*
X132772632Y-82433475D01*
X132979475Y-82226632D01*
X133141990Y-81983411D01*
X133253932Y-81713158D01*
X133311000Y-81426260D01*
X133311000Y-81133740D01*
X133253932Y-80846842D01*
X133141990Y-80576589D01*
X132979475Y-80333368D01*
X132772632Y-80126525D01*
X132598240Y-80010000D01*
X132772632Y-79893475D01*
X132979475Y-79686632D01*
X133141990Y-79443411D01*
X133253932Y-79173158D01*
X133311000Y-78886260D01*
X133311000Y-78593740D01*
X133253932Y-78306842D01*
X133141990Y-78036589D01*
X132979475Y-77793368D01*
X132772632Y-77586525D01*
X132598240Y-77470000D01*
X132772632Y-77353475D01*
X132979475Y-77146632D01*
X133141990Y-76903411D01*
X133253932Y-76633158D01*
X133311000Y-76346260D01*
X133311000Y-76053740D01*
X133253932Y-75766842D01*
X133141990Y-75496589D01*
X132979475Y-75253368D01*
X132772632Y-75046525D01*
X132598240Y-74930000D01*
X132772632Y-74813475D01*
X132979475Y-74606632D01*
X133141990Y-74363411D01*
X133253932Y-74093158D01*
X133311000Y-73806260D01*
X133311000Y-73513740D01*
X133253932Y-73226842D01*
X133141990Y-72956589D01*
X132979475Y-72713368D01*
X132847620Y-72581513D01*
X132920180Y-72559502D01*
X133030494Y-72500537D01*
X133127185Y-72421185D01*
X133206537Y-72324494D01*
X133265502Y-72214180D01*
X133301812Y-72094482D01*
X133314072Y-71970000D01*
X133314072Y-70270000D01*
X133301812Y-70145518D01*
X133265502Y-70025820D01*
X133206537Y-69915506D01*
X133127185Y-69818815D01*
X133040896Y-69748000D01*
X150931104Y-69748000D01*
X150844815Y-69818815D01*
G37*
%TD.AperFunction*%
%TD*%
M02*
