%TF.GenerationSoftware,KiCad,Pcbnew,(5.1.7)-1*%
%TF.CreationDate,2020-11-07T21:13:55-05:00*%
%TF.ProjectId,ATmega32u4 Breakout,41546d65-6761-4333-9275-342042726561,rev?*%
%TF.SameCoordinates,Original*%
%TF.FileFunction,Paste,Top*%
%TF.FilePolarity,Positive*%
%FSLAX46Y46*%
G04 Gerber Fmt 4.6, Leading zero omitted, Abs format (unit mm)*
G04 Created by KiCad (PCBNEW (5.1.7)-1) date 2020-11-07 21:13:55*
%MOMM*%
%LPD*%
G01*
G04 APERTURE LIST*
%ADD10C,0.100000*%
G04 APERTURE END LIST*
D10*
%TO.C,U1*%
G36*
X140059134Y-90595188D02*
G01*
X140448042Y-90206280D01*
X141508702Y-91266940D01*
X141119794Y-91655848D01*
X140059134Y-90595188D01*
G37*
G36*
X139493449Y-91160874D02*
G01*
X139882357Y-90771966D01*
X140943017Y-91832626D01*
X140554109Y-92221534D01*
X139493449Y-91160874D01*
G37*
G36*
X138927764Y-91726559D02*
G01*
X139316672Y-91337651D01*
X140377332Y-92398311D01*
X139988424Y-92787219D01*
X138927764Y-91726559D01*
G37*
G36*
X138362078Y-92292244D02*
G01*
X138750986Y-91903336D01*
X139811646Y-92963996D01*
X139422738Y-93352904D01*
X138362078Y-92292244D01*
G37*
G36*
X137796393Y-92857930D02*
G01*
X138185301Y-92469022D01*
X139245961Y-93529682D01*
X138857053Y-93918590D01*
X137796393Y-92857930D01*
G37*
G36*
X137230707Y-93423615D02*
G01*
X137619615Y-93034707D01*
X138680275Y-94095367D01*
X138291367Y-94484275D01*
X137230707Y-93423615D01*
G37*
G36*
X136665022Y-93989301D02*
G01*
X137053930Y-93600393D01*
X138114590Y-94661053D01*
X137725682Y-95049961D01*
X136665022Y-93989301D01*
G37*
G36*
X136099336Y-94554986D02*
G01*
X136488244Y-94166078D01*
X137548904Y-95226738D01*
X137159996Y-95615646D01*
X136099336Y-94554986D01*
G37*
G36*
X135533651Y-95120672D02*
G01*
X135922559Y-94731764D01*
X136983219Y-95792424D01*
X136594311Y-96181332D01*
X135533651Y-95120672D01*
G37*
G36*
X134967966Y-95686357D02*
G01*
X135356874Y-95297449D01*
X136417534Y-96358109D01*
X136028626Y-96747017D01*
X134967966Y-95686357D01*
G37*
G36*
X134402280Y-96252042D02*
G01*
X134791188Y-95863134D01*
X135851848Y-96923794D01*
X135462940Y-97312702D01*
X134402280Y-96252042D01*
G37*
G36*
X134791188Y-99716866D02*
G01*
X134402280Y-99327958D01*
X135462940Y-98267298D01*
X135851848Y-98656206D01*
X134791188Y-99716866D01*
G37*
G36*
X135356874Y-100282551D02*
G01*
X134967966Y-99893643D01*
X136028626Y-98832983D01*
X136417534Y-99221891D01*
X135356874Y-100282551D01*
G37*
G36*
X135922559Y-100848236D02*
G01*
X135533651Y-100459328D01*
X136594311Y-99398668D01*
X136983219Y-99787576D01*
X135922559Y-100848236D01*
G37*
G36*
X136488244Y-101413922D02*
G01*
X136099336Y-101025014D01*
X137159996Y-99964354D01*
X137548904Y-100353262D01*
X136488244Y-101413922D01*
G37*
G36*
X137053930Y-101979607D02*
G01*
X136665022Y-101590699D01*
X137725682Y-100530039D01*
X138114590Y-100918947D01*
X137053930Y-101979607D01*
G37*
G36*
X137619615Y-102545293D02*
G01*
X137230707Y-102156385D01*
X138291367Y-101095725D01*
X138680275Y-101484633D01*
X137619615Y-102545293D01*
G37*
G36*
X138185301Y-103110978D02*
G01*
X137796393Y-102722070D01*
X138857053Y-101661410D01*
X139245961Y-102050318D01*
X138185301Y-103110978D01*
G37*
G36*
X138750986Y-103676664D02*
G01*
X138362078Y-103287756D01*
X139422738Y-102227096D01*
X139811646Y-102616004D01*
X138750986Y-103676664D01*
G37*
G36*
X139316672Y-104242349D02*
G01*
X138927764Y-103853441D01*
X139988424Y-102792781D01*
X140377332Y-103181689D01*
X139316672Y-104242349D01*
G37*
G36*
X139882357Y-104808034D02*
G01*
X139493449Y-104419126D01*
X140554109Y-103358466D01*
X140943017Y-103747374D01*
X139882357Y-104808034D01*
G37*
G36*
X140448042Y-105373720D02*
G01*
X140059134Y-104984812D01*
X141119794Y-103924152D01*
X141508702Y-104313060D01*
X140448042Y-105373720D01*
G37*
G36*
X142463298Y-104313060D02*
G01*
X142852206Y-103924152D01*
X143912866Y-104984812D01*
X143523958Y-105373720D01*
X142463298Y-104313060D01*
G37*
G36*
X143028983Y-103747374D02*
G01*
X143417891Y-103358466D01*
X144478551Y-104419126D01*
X144089643Y-104808034D01*
X143028983Y-103747374D01*
G37*
G36*
X143594668Y-103181689D02*
G01*
X143983576Y-102792781D01*
X145044236Y-103853441D01*
X144655328Y-104242349D01*
X143594668Y-103181689D01*
G37*
G36*
X144160354Y-102616004D02*
G01*
X144549262Y-102227096D01*
X145609922Y-103287756D01*
X145221014Y-103676664D01*
X144160354Y-102616004D01*
G37*
G36*
X144726039Y-102050318D02*
G01*
X145114947Y-101661410D01*
X146175607Y-102722070D01*
X145786699Y-103110978D01*
X144726039Y-102050318D01*
G37*
G36*
X145291725Y-101484633D02*
G01*
X145680633Y-101095725D01*
X146741293Y-102156385D01*
X146352385Y-102545293D01*
X145291725Y-101484633D01*
G37*
G36*
X145857410Y-100918947D02*
G01*
X146246318Y-100530039D01*
X147306978Y-101590699D01*
X146918070Y-101979607D01*
X145857410Y-100918947D01*
G37*
G36*
X146423096Y-100353262D02*
G01*
X146812004Y-99964354D01*
X147872664Y-101025014D01*
X147483756Y-101413922D01*
X146423096Y-100353262D01*
G37*
G36*
X146988781Y-99787576D02*
G01*
X147377689Y-99398668D01*
X148438349Y-100459328D01*
X148049441Y-100848236D01*
X146988781Y-99787576D01*
G37*
G36*
X147554466Y-99221891D02*
G01*
X147943374Y-98832983D01*
X149004034Y-99893643D01*
X148615126Y-100282551D01*
X147554466Y-99221891D01*
G37*
G36*
X148120152Y-98656206D02*
G01*
X148509060Y-98267298D01*
X149569720Y-99327958D01*
X149180812Y-99716866D01*
X148120152Y-98656206D01*
G37*
G36*
X148509060Y-97312702D02*
G01*
X148120152Y-96923794D01*
X149180812Y-95863134D01*
X149569720Y-96252042D01*
X148509060Y-97312702D01*
G37*
G36*
X147943374Y-96747017D02*
G01*
X147554466Y-96358109D01*
X148615126Y-95297449D01*
X149004034Y-95686357D01*
X147943374Y-96747017D01*
G37*
G36*
X147377689Y-96181332D02*
G01*
X146988781Y-95792424D01*
X148049441Y-94731764D01*
X148438349Y-95120672D01*
X147377689Y-96181332D01*
G37*
G36*
X146812004Y-95615646D02*
G01*
X146423096Y-95226738D01*
X147483756Y-94166078D01*
X147872664Y-94554986D01*
X146812004Y-95615646D01*
G37*
G36*
X146246318Y-95049961D02*
G01*
X145857410Y-94661053D01*
X146918070Y-93600393D01*
X147306978Y-93989301D01*
X146246318Y-95049961D01*
G37*
G36*
X145680633Y-94484275D02*
G01*
X145291725Y-94095367D01*
X146352385Y-93034707D01*
X146741293Y-93423615D01*
X145680633Y-94484275D01*
G37*
G36*
X145114947Y-93918590D02*
G01*
X144726039Y-93529682D01*
X145786699Y-92469022D01*
X146175607Y-92857930D01*
X145114947Y-93918590D01*
G37*
G36*
X144549262Y-93352904D02*
G01*
X144160354Y-92963996D01*
X145221014Y-91903336D01*
X145609922Y-92292244D01*
X144549262Y-93352904D01*
G37*
G36*
X143983576Y-92787219D02*
G01*
X143594668Y-92398311D01*
X144655328Y-91337651D01*
X145044236Y-91726559D01*
X143983576Y-92787219D01*
G37*
G36*
X143417891Y-92221534D02*
G01*
X143028983Y-91832626D01*
X144089643Y-90771966D01*
X144478551Y-91160874D01*
X143417891Y-92221534D01*
G37*
G36*
X142852206Y-91655848D02*
G01*
X142463298Y-91266940D01*
X143523958Y-90206280D01*
X143912866Y-90595188D01*
X142852206Y-91655848D01*
G37*
%TD*%
M02*
